<mxfile host="app.diagrams.net" agent="Mozilla/5.0 (Windows NT 10.0; Win64; x64) AppleWebKit/537.36 (KHTML, like Gecko) Chrome/128.0.0.0 Safari/537.36" version="24.7.7">
  <diagram name="Page-1" id="yQg-yU0O9CkpPY_gRglF">
    <mxGraphModel dx="3834" dy="2739" grid="1" gridSize="10" guides="1" tooltips="1" connect="1" arrows="1" fold="1" page="0" pageScale="1" pageWidth="850" pageHeight="1100" math="0" shadow="0">
      <root>
        <mxCell id="0" />
        <mxCell id="1" parent="0" />
        <mxCell id="fKHsVGfNWyKWpTp4zAhi-60" value="" style="sketch=0;outlineConnect=0;fontColor=#232F3E;gradientColor=none;fillColor=#232F3D;strokeColor=none;dashed=0;verticalLabelPosition=bottom;verticalAlign=top;align=center;html=1;fontSize=18;fontStyle=0;aspect=fixed;pointerEvents=1;shape=mxgraph.aws4.user;" vertex="1" parent="1">
          <mxGeometry x="-2060" y="-1020" width="80" height="80" as="geometry" />
        </mxCell>
        <mxCell id="fKHsVGfNWyKWpTp4zAhi-61" value="Junior Backend Developer" style="text;whiteSpace=wrap;align=center;fontSize=14;verticalAlign=top;" vertex="1" parent="1">
          <mxGeometry x="-2085" y="-940" width="130" height="50" as="geometry" />
        </mxCell>
        <mxCell id="fKHsVGfNWyKWpTp4zAhi-65" style="edgeStyle=orthogonalEdgeStyle;rounded=0;orthogonalLoop=1;jettySize=auto;html=1;dashed=1;entryX=0.5;entryY=1;entryDx=0;entryDy=0;" edge="1" parent="1" source="fKHsVGfNWyKWpTp4zAhi-60" target="fKHsVGfNWyKWpTp4zAhi-67">
          <mxGeometry relative="1" as="geometry" />
        </mxCell>
        <mxCell id="fKHsVGfNWyKWpTp4zAhi-66" style="edgeStyle=orthogonalEdgeStyle;rounded=0;orthogonalLoop=1;jettySize=auto;html=1;exitX=0.73;exitY=0.016;exitDx=0;exitDy=0;entryX=0.5;entryY=0;entryDx=0;entryDy=0;dashed=1;exitPerimeter=0;" edge="1" parent="1" source="fKHsVGfNWyKWpTp4zAhi-67" target="fKHsVGfNWyKWpTp4zAhi-72">
          <mxGeometry relative="1" as="geometry">
            <Array as="points">
              <mxPoint x="-2011" y="-1280" />
              <mxPoint x="-1900" y="-1280" />
            </Array>
          </mxGeometry>
        </mxCell>
        <mxCell id="fKHsVGfNWyKWpTp4zAhi-69" style="edgeStyle=orthogonalEdgeStyle;rounded=0;orthogonalLoop=1;jettySize=auto;html=1;exitX=1;exitY=0.5;exitDx=0;exitDy=0;entryX=0.5;entryY=0;entryDx=0;entryDy=0;curved=1;endArrow=none;endFill=0;strokeWidth=3;fillColor=#fff2cc;strokeColor=#d6b656;" edge="1" parent="1">
          <mxGeometry relative="1" as="geometry">
            <mxPoint x="-1960" y="-1160" as="targetPoint" />
            <mxPoint x="-2000" y="-1200" as="sourcePoint" />
          </mxGeometry>
        </mxCell>
        <mxCell id="fKHsVGfNWyKWpTp4zAhi-70" style="edgeStyle=orthogonalEdgeStyle;curved=1;rounded=0;orthogonalLoop=1;jettySize=auto;html=1;exitX=0;exitY=0.5;exitDx=0;exitDy=0;entryX=0.5;entryY=1;entryDx=0;entryDy=0;endArrow=none;endFill=0;strokeWidth=3;fillColor=#fff2cc;strokeColor=#d6b656;" edge="1" parent="1" source="fKHsVGfNWyKWpTp4zAhi-72">
          <mxGeometry relative="1" as="geometry">
            <mxPoint x="-1960" y="-1160" as="targetPoint" />
          </mxGeometry>
        </mxCell>
        <mxCell id="fKHsVGfNWyKWpTp4zAhi-71" style="edgeStyle=orthogonalEdgeStyle;rounded=0;orthogonalLoop=1;jettySize=auto;html=1;exitX=1;exitY=0.5;exitDx=0;exitDy=0;entryX=0;entryY=0.5;entryDx=0;entryDy=0;endArrow=none;endFill=0;fillColor=#fff2cc;strokeColor=#d6b656;strokeWidth=3;" edge="1" parent="1" source="fKHsVGfNWyKWpTp4zAhi-72" target="fKHsVGfNWyKWpTp4zAhi-74">
          <mxGeometry relative="1" as="geometry" />
        </mxCell>
        <mxCell id="fKHsVGfNWyKWpTp4zAhi-72" value="" style="ellipse;whiteSpace=wrap;html=1;aspect=fixed;fillColor=#fff2cc;strokeColor=#d6b656;strokeWidth=2;" vertex="1" parent="1">
          <mxGeometry x="-1920" y="-1140" width="40" height="40" as="geometry" />
        </mxCell>
        <mxCell id="fKHsVGfNWyKWpTp4zAhi-73" style="edgeStyle=orthogonalEdgeStyle;curved=1;rounded=0;orthogonalLoop=1;jettySize=auto;html=1;exitX=1;exitY=0.5;exitDx=0;exitDy=0;endArrow=none;endFill=0;fillColor=#ffe6cc;strokeColor=#d79b00;strokeWidth=3;" edge="1" parent="1" source="fKHsVGfNWyKWpTp4zAhi-74">
          <mxGeometry relative="1" as="geometry">
            <mxPoint x="-1720" y="-1160" as="targetPoint" />
          </mxGeometry>
        </mxCell>
        <mxCell id="fKHsVGfNWyKWpTp4zAhi-74" value="" style="ellipse;whiteSpace=wrap;html=1;aspect=fixed;fillColor=#fff2cc;strokeColor=#d6b656;strokeWidth=2;" vertex="1" parent="1">
          <mxGeometry x="-1800" y="-1140" width="40" height="40" as="geometry" />
        </mxCell>
        <mxCell id="fKHsVGfNWyKWpTp4zAhi-76" value="Senior Backend Developer" style="text;whiteSpace=wrap;align=center;fontSize=14;verticalAlign=top;" vertex="1" parent="1">
          <mxGeometry x="-1385" y="-1225" width="130" height="50" as="geometry" />
        </mxCell>
        <mxCell id="fKHsVGfNWyKWpTp4zAhi-77" style="edgeStyle=orthogonalEdgeStyle;curved=1;rounded=0;orthogonalLoop=1;jettySize=auto;html=1;exitX=0;exitY=0.5;exitDx=0;exitDy=0;entryX=0.5;entryY=0;entryDx=0;entryDy=0;endArrow=none;endFill=0;fillColor=#ffe6cc;strokeColor=#d79b00;strokeWidth=3;" edge="1" parent="1">
          <mxGeometry relative="1" as="geometry">
            <mxPoint x="-1720" y="-1240" as="targetPoint" />
            <mxPoint x="-1680" y="-1280" as="sourcePoint" />
          </mxGeometry>
        </mxCell>
        <mxCell id="fKHsVGfNWyKWpTp4zAhi-78" style="edgeStyle=orthogonalEdgeStyle;rounded=0;orthogonalLoop=1;jettySize=auto;html=1;exitX=0.5;exitY=1;exitDx=0;exitDy=0;entryX=0.5;entryY=1;entryDx=0;entryDy=0;dashed=1;" edge="1" parent="1" target="fKHsVGfNWyKWpTp4zAhi-114">
          <mxGeometry relative="1" as="geometry">
            <mxPoint x="-1660" y="-1180" as="targetPoint" />
            <mxPoint x="-1980" y="-960" as="sourcePoint" />
            <Array as="points">
              <mxPoint x="-1660" y="-960" />
            </Array>
          </mxGeometry>
        </mxCell>
        <mxCell id="fKHsVGfNWyKWpTp4zAhi-82" style="edgeStyle=orthogonalEdgeStyle;rounded=0;orthogonalLoop=1;jettySize=auto;html=1;exitX=0.5;exitY=1;exitDx=0;exitDy=0;dashed=1;" edge="1" parent="1" source="fKHsVGfNWyKWpTp4zAhi-72">
          <mxGeometry relative="1" as="geometry">
            <mxPoint x="-1980" y="-1000" as="targetPoint" />
            <Array as="points">
              <mxPoint x="-1900" y="-1000" />
            </Array>
            <mxPoint x="-1900" y="-1080" as="sourcePoint" />
          </mxGeometry>
        </mxCell>
        <mxCell id="fKHsVGfNWyKWpTp4zAhi-83" style="edgeStyle=orthogonalEdgeStyle;rounded=0;orthogonalLoop=1;jettySize=auto;html=1;entryX=0.5;entryY=1;entryDx=0;entryDy=0;dashed=1;" edge="1" parent="1" target="fKHsVGfNWyKWpTp4zAhi-74">
          <mxGeometry relative="1" as="geometry">
            <mxPoint x="-1980" y="-980" as="sourcePoint" />
            <Array as="points">
              <mxPoint x="-1780" y="-980" />
            </Array>
            <mxPoint x="-1780" y="-1080" as="targetPoint" />
          </mxGeometry>
        </mxCell>
        <mxCell id="fKHsVGfNWyKWpTp4zAhi-84" value="Create Feature Branch" style="rounded=0;whiteSpace=wrap;html=1;fillColor=#e1d5e7;strokeColor=#9673a6;fontSize=12;" vertex="1" parent="1">
          <mxGeometry x="-2090" y="-1100" width="140" height="30" as="geometry" />
        </mxCell>
        <mxCell id="fKHsVGfNWyKWpTp4zAhi-85" value="Push to Feature Branch" style="rounded=0;whiteSpace=wrap;html=1;fillColor=#fff2cc;strokeColor=#d6b656;fontSize=12;" vertex="1" parent="1">
          <mxGeometry x="-1850" y="-1050" width="140" height="30" as="geometry" />
        </mxCell>
        <mxCell id="fKHsVGfNWyKWpTp4zAhi-146" style="edgeStyle=orthogonalEdgeStyle;rounded=0;orthogonalLoop=1;jettySize=auto;html=1;exitX=1;exitY=0.5;exitDx=0;exitDy=0;dashed=1;" edge="1" parent="1" source="fKHsVGfNWyKWpTp4zAhi-86">
          <mxGeometry relative="1" as="geometry">
            <mxPoint x="-1280" y="-1240" as="targetPoint" />
            <Array as="points">
              <mxPoint x="-1200" y="-1085" />
              <mxPoint x="-1200" y="-1240" />
            </Array>
          </mxGeometry>
        </mxCell>
        <mxCell id="fKHsVGfNWyKWpTp4zAhi-86" value="Submit Pull Request" style="rounded=0;whiteSpace=wrap;html=1;fillColor=#e1d5e7;strokeColor=#9673a6;fontSize=12;" vertex="1" parent="1">
          <mxGeometry x="-1720" y="-1100" width="120" height="30" as="geometry" />
        </mxCell>
        <mxCell id="fKHsVGfNWyKWpTp4zAhi-87" value="CodeBuild" style="shape=image;verticalLabelPosition=bottom;labelBackgroundColor=default;verticalAlign=top;aspect=fixed;imageAspect=0;image=data:image/png,iVBORw0KGgoAAAANSUhEUgAAAgAAAAIACAIAAAB7GkOtAAAAAXNSR0IArs4c6QAAIABJREFUeAHsnYtvHNW9+PMn/VRVKHLTrdkYa+U6i5uYPKwQjGuCSUwIBBEEkUWFgihBSi/cSqlAFG574bZIRGmU0twIIshtHiRgLJO4ZuOYjePYjr34FceJHXt+nTmzZ868znzPY557qqPt2fGsEyb293M+3+95rKnfeNnZWgfqpbTNg/WAlt88SGtbS3lqW7+tFNjybUMS2vbhBiltR7lBvLWPNFBbY/tIcOsYbRRvnaONDG2ssdPZCp1jetvJ2iYKO12ta6LA3CYLXfa2a7Lg05p2VRhad6WJv003dRttz3QTY2veO9u0Z7p5z6zV9s42i7fn5pultOcXmolWfH6Bp72wWBRvL94rsrSWF+95tJeWW6S0AystYu1XPRpHW+OM/ogHMADkNw/Wtw74veoUAQCgng6AzYN0AOS3BgNg/bYSHwAatg/n24bQq/4dpABg+7AIABrbq/ygAqABAoD2EQkA6AgGQEEP+qOFnfqrGwCNCADRMWBSh8Qu4tUBgC5fABR2TTIAYBcMAHumdU64XxEAugMA0LzHCPco6BuvGBgWAPbIAMDeWSAAis8vND837/eqfxMCAM18AHh+gRUALS/eK76wSL7q34EFAEVPALx4TxQAB1bM7yAGgJYDK/IAsPGyuAQgMKSdAZgcJgYSwACLH+lhgN0SnBIQOQPcomCXgIgZ4CsKPB5gGkBSPQCBIRYGOJiBYJAIBmCHiJwBPgYgwwMshGTCAzAJlAd4e0NQIkh5AC0j5DYAdIXdA7ABoE7SPMDSiLg9wOJBDXsAFQBiHkCmhjLgAbZ0kPIAz+JBEAOUB9AYIMkDbAaQPA8gU0PxeoAtHZQEBsThAUEAADOADPdm8sdRSEi5B1gGgErKCWCAqgcQpWNXQXinO8/jvkJUAlBVIP31AIcBJM0DLANAJeX4PMAyAFRPTgIDIq8HAAAAZoCV8zFCvwcS0s8A5QHe+R9SCJQH+E0W8h3jQ8rF0HqAhwEkyQNIA4i9HmCTgITUhKP1ABgAwAwgg76DB+bb9DPApgLKA8jQj/tBDFD1AFouSKwe4GkAyfEApwHE5wGkAZgF4YQwIEIPAAMAzAAc90kYkH1VD/BeTyC+OGBHmb44IFFzQ1U9gMYAX1dIvQe4DSAhHoAnidbUvCAWAIAZgMI9JoFHR3mApzoIMEDVA1Q9gDL2J78U77wgbwOI2wMsA6ixegAjAMAMoCwQM/GQfgaoeoCqB5BrhuWvEcuoB/hKQExrxHAuyFYSSEJNOPx6ADsAWBjgMfYnpwalnwGqHiDOAFUPoOWCMlcP8DMAMxEUEwOcBlAzHsAFABYGkNl/d1/VA1Q9wF4MSMJeEZ6zRe1LhX02Cwplr4ia8QC8gUSM6wNsEpCQmnCYHsALABYGKA/wjvKeZQB8UdUD7NvGRbtnXKbWB5AFAEc/rnqA2wMsA4i7HoAyQpYTJCEXFNq8IAEAsDDAPfYnrygP8CaEAAPUfkHCNWHlAbxbyKEIDnsl6wHYAEwYxLFGzBH9TQwkgQHheMCanHs7aKYrZE5fpK/qAXjsT3YEGKDmBQkzQHlAFAxANuA0gLg9wDKATNcDdABExgBy1O/uKw9QHqDqAbSCsG8xoGIeHhC0d7R+TgBaFex+jfX8ABz9SSGI3QPwyoAMe4AJgMgYoOoB3lGeHPW7+8oDVD0AR/+MzgvCDHCXB2KpCTsNIKMesCbXohuA8gD3sWK2KZ4sZ4qp9QHic0PtKqDOD4BsFpR6D3DUAEgbiIUBZD3A4kG26gFrci390TNAeYDyAHuI9zhWTK0PoKWDMucBNAOIux5AkkDvJ4EBkuYFIQDEwAB3DYC8ouoB3oQQyAWpeUHCNWE1LyiKmjA58Cf7empIzQvCc4HIjsA5YjoA6jdeVh7gTgHhK9y5INsH3Zl9visCDFDzgoQZoOYFRcEAdxnA8oMEMAAJQTY8ABtAfywMIEf97r7yAOUBrkyRqgfURD2AHPvj6G924mNA9uYFWQagPAAP+T07tuE8S03Y9kG+Ub/7U8oD1LygrM8LIj0AM8C8GAcDrDowmhGUiXlBDgNQHlDyjP7ooi2UszBAzQtS84LUvqHNe430EWyFMAr0pAc45gjFXg+weJCEmjAuCTDWA5wGoDyAAoD120rcDLB90D2i57uiPEB5QG14gNMA1LwgHPFxh2tekKcBKA9QHjBCHi7W2D4S3PB5kCKdoLMk7SUBVQ+ooXqAwwBirwdgAzA76fQAbwNQHqA8gARAos6SVOsDamp9AJkLIqsCVj+OeoBzZUBq6wEUA1AeoDxAeYB77j/kiv3wgK5JsgDg6KtzxKxQHlQeIEsCZD/GekDa5wXRDEB5gPIA5QGFncCIP6FH9q7qa1esDFDrhJ9fKHI0cnoPoI+zQObKgBR6QKABKA9QHqA8AMIA9z2xMgAXh52daXPr0D3TjsNhHG+TvG8oOfw3iwEJWCds8SA99YBgA1AeoDxAeYDyABIPyTlHzFkhiK8e4KwKJIEBgHlBQANQHqA8QHmAe4wPuaI8ALZ7RFABgCwVeBqAqQLxMQAbQIrmBVkAQCN9+qvaN9TPBmzT/FnWiNk+yLcawP0ptT5ArQ/AmZ/M1QNIEjgNIO71AZgBadkvyAKAsRcQGunTX9X5Ad42YAvlLAxQ64TVOmFyapCaF+QO8Z5XSA9wrBJQ84Ja8AIxsuNaJ+wEAN0AVD3AzwDQdW4G2D7oHtHzXVEeoDygNjzAqgOTeaQ4ckFOA0j8vCAnAJQH5LeW/Bo9+gsyQHmA8gDlAdz7BTkMICH1AIsHSagJYxUgPMAbAMoDYmGA8gBxBqh1wmqdsC1fFIcHkMsCksUA17wgbwAoD/ADQH6rdwHAIQe2UK7qAXgrIZFtgvBn1X5BuyredQKc8OHppHt9gKcBJMQD8GrhRJwhY/cAGgCUB/hhwBHuPd9yM8D2Qb7sv/tTqh6g6gGYCpmbF+RdA4i7HuBcGZDIegANAMoD/ACgPMCxNAy/Dd40tH0kOM+DB/uUjvIA5QFkiDf6iATuVz0pFGsuCCWCzHRQkuoBa3JF+qRP88Rgug2o9QGeEqDOD/DlASWyw78UxABVD6jBeoCtAEBQIS4GWDUAcnOhJDDAqAcYAAhiAEwF1PoA7/KALaWj6gGqHtBFrh9W64Rra52wxYMkMOCl5SoAghhANwD0VeUBygMSmAtSHlDjHuCsEMSaC7IKwi8sJqEmvCZX7NOzQKi1BKSDACqgPEB5gLlrkG/+B0uAqgeYNqA8IFwPcMwRirEegA0gIfUABAAoA5QH+JWF/cb+5HXuXJDtg+4ZPnxX1LwgNS8ou/OCyEqA0wBQ6Tg+D8AMSMJ+QRgAUAYAJKA/+lxQfvNgfeuA32v95kFIy28epDX/FcKICmSs9+vbQrmqB2AVgBd+KXcG1YTVecK0XBCGgbOT7vUBOPp7TA2KjwE4ERS7B5AAgDJAeYDygIYd5cb2cgPSiHbbTtG4DIA7yckFqXoAjQGZWx+APAAzgNQCsx8HA5wGEOv6AAcAoAxQHhALA9R+QcFrCJQHqPUBrvUBjhoAaQOx1wMsHsQxL8gNACgDlAfEwgBbEokv++/+lKoHqHoAzvxkzgNoBhB3PcC5WjhyBngCAMoA5QGxMEB5gPIAtW8o976h5PDfYkMcuSBH9I+lHuAHACgDlAfEwgDlAeIMUPWAGqwHuMsAiWJA9POCKACAMkB5QCwMUB4gzgA1L4jGAJwUcnayMC+I9ABcIYixHhDXvCA6AKAMUB4QCwOUB4gzQHkAjQGZqwfQDCC+eoBVB458v6BAAEAZoDwgFgYoDxBngPIAGgOcw/9K9ebseAA2ADMdFHc9wOJB+DVhCACgDFAeEAsDlAeIM0B5QDWs4/hOdDLtAVYNgJw8Gh8DHJXhsPcLAgIAygDlAbEwQHmAOAOUB9AYkGkPcBhAQjwAVwVCZQAcAFAGKA+IhQHKA8QZoDyAxoCMeoC3AcRXD3AaQMjrhJkAAGWA8oBYGKA8QJwBygNoDMioB3gaQOwegA0g1PUBrACAMkB5QCwMUB4gzgDlATQGZM4DaAYQnwdYdeCQ5wVxAADKAOUBsTBAeYA4A5QH0BiQUQ9AJHC/6jNH46sJIxJYPJA9L4gPAFAGKA+IhQHKA8QZoDyAxoDMeYB7fQC6YvlBfAxwVgWkMoAbAFAGKA+IhQHKA8QZoDyAxoCa8QBcIYjdA3BVQOK8IBEAQBmgPCAWBigPEGeA8gAaA2rAAywDiK8e4DQAqfOCBAEAZYDygFgYoDxAnAHKA2gMqAEPwAZgwiDWXJCtJCAjF7Qm19xnnAsv8go6U155QCwMUB4gzgDlATQGZNoDnAYQnwdYdWCp84IMAETFAOUBsTBAeYA4A5QH0BiQaQ9wGEDsHmCTgBcWBesBVQBExQDlAbEwQHmAOAOUB9AYkFEP8DaA+DwA1QOcVQGBXBABgKgYoDwgFgYoDxBngPIAGgMy6gGeBpAQDxCfF2QHQFQMUB4QCwOUB4gzQHkAjQGZ8wCaAcTtAc6qAJcHuAAQFQOUB8TCAOUB4gxQHkBjQEY9AJHA/RrvOmFsACYM2BngBYCoGKA8IBYGKA8QZ4DyABoDMucByVwn7DQArvUBa9Y19+ozQd2tKDIxVK0PGMxvpratJb/oj66v31YKbLZQ3jYEf6s8QJwBygNoDKgZD8AVgtjXCVs8YPEAHQDxMkB5gB8JAgGwflsJHvRpd24fbpDSdpQbeFtje/Wz7SMN1NbYPhLcOkaDQ3zgPZ2j9ijvfKs8gMaAGvAAZ4Ug1jViOB2kzxECM8AwgGJfvAxQ9YBYGKA8IBgSQQywE2KssdPZCp1jetvJ2iYKO12ta6LA3CYLXfa2a7Lg05p2VRia7xifOEvS9x51nvBC8Xn/Ri71AvexATDVA0wDUB5Q3zrA3DYP1gNaknNBNi2QIgHbh7kloGFHWXkAgQoXAHZCADCpQ2IX8eoAQJcvAAq7JhkAsAsS6CtNmfYApwGkcF5QNQVkSEAmPeDh9u8f33t15wvDHO3J/WV3e3zv1abHhkxaAABQTy8GbB70G/7j66HmgpQHKA8gnUA+AzLtAbgGQE4QirEegBNBQA+wDCCXAAbIrQfse/VG/8DCyqom/X/Ly9qlvoU9B37QMZB+BigPEGeAqgfUYD3A2wDi8wCcBSIXDNPrARYAzCxQVuoBH3w8JT3uO77hyqp2+J2JPAwAygM4U0PUgnADpCDcPhIc3wMLwh3OCrA9++/+qrMY0IiKAaoe4BSCdNcDPA3ABEN8NWFEAosH/jVhCwC5Zr0UjJvHxND0rA84/IdRR7AO6e3Kqtbz5qjyAN9JRLyTglQ9gCgGjHkUhFU9YM+0XmAwWvOeWavtnW0Wb2gUH/RKM4D4PIAc/gcywAKAFfoTkAsSmRdUaBucm18JKeK7v+34rSVU5s1ALkjVA4JdQc0L8pss5Bzaw6rE5qfS7QFkAYDsx7tOGEd/s+PlAR4A0EvBCWAAdz2g582Ihv8IBiur2r5Xb2SmJqzqAeIMUPWAGqwHuFcLW34Qdy7IcgIXA7wBkOp6wEdHK+5xeqhXjrw/Vt86mBkGKA8QZ4C9QqDqAUAbyJoH4ApBYucFeQMg1fWA4yejBsAHH0/Vtw7o1WC0mABWFlbrA+BlYbU+gCgJqPUBVvYflwFwxyoG7JFRDNg76x7aA69YBhBfPQBngSwJsK8T9gZAqusBcQEARX8TA+lngPIA5QFqfYBZTw6qBpNIcNQAbG/jzgVZPKjmggIAkMZ6wLGT06EmfNzf3GkAygMoi4rVvCD7dhHR7hVBrBBGq4XVOmHglCEWBiAeOA0gPg8gh/8OBgQDIHX1gLgAQBqA8gDfiaFie0VYWSO1PsC9WRBobqh7Pwn7ZkER7xXhO3coC/UAXANIlAfg1cLFF+8FAyB19YC4AGDVAMhthdKfC1LzgsRzQWpeUA3OC/I2gLg9wDIAY5u5NeuarMVfOPXv2UnC3FDI+oC4AOA2AOUBygPs04HwgmE1L6gm5gV5GoAJhvjqAdgAWnQDaOpNHQPoSwSAADj1xczxk9P09uX5eXfG333lXO+dw+9MZKe9VzlMae9M6F91v1I+EuaXfvfBj4lq//Ffs2G3t/779n/81yx6xR3HRfx3eOu/byet/ef/LBx6d9rpBJnbN5RmAPF5gJcBsDAAl4Vj3CuC7gFAAGzsGKzfeJnenth3zR3u/a6gXef8Xv0+pa6rJ1CbT+B/z90tPvOjEwPeJYEs1APIMoDFhvg8AJGgagAwBiSnHpBr6ffzgLgAUJu/xuq/Wj0B7idwrvdOy3N2FcicB5AzRMl+EhhQfGHRDoBM1AMUALh/IdUH1ROI+AmUhu89sq96boz38B9XC7LmAbhCEOM6YRcA0sYAtwcoAET8O6z+OPUERJ7A9ZtLHT32XFANeIBlAPHVA5ABfG3WgVEWCJYLwtOE0NSgRNUDFABEfhvVZ9UTiPgJrKxqE1P3dQaguF8zHoANwIRBHPWANeuavjaaMReIhQGJrQcoAET8C6z+OPUExJ/A7YXVp387Y6sJZ9oDnAYQkwfoAPhF8zd8DCAXCSfnPGEFAPHfRvUd1BOI/gksLq4eeHumqdteFvYWgizUAxwGEIsHYAPg9IBEMQDVAxQAov/VVX+iegJSnsDysuZcIpBRD/A2gMg9wDIAQQ9IzvoABQApv4rqm6gnEMsTWFnV/vN/Fmy5IG8JqBiuYKhA9WxIvCm0o9O8d7Zpz7THa0xnSeL5oAgD7tfI5gU5DIDTAxJVD4ADICd1IVgsvy3qD1VPIHtPYGVV++TUbRsDMucBNAOI0AMsACADEPSAJOwXxAQAOgOYVgJn7/dQ/RepJxDjEzh2erHW5gWRKqBbQvjzgiwAVKcDIQngnxsaOwNYAUBhgAJAjL//6o9WT8C5VDhzHoBzQY6O5QchM8AJACkeEG89AHgi2MaOwVzL5dxGs3luCgQEwNmv5g6/M3Ho9zfI1zeOTB7+w6itERvGHfr9jVcOj/e8Oepurxweh7fh8t0wwsTthdU3jkzuf31s36s38Ov+18ekt2dfm+g6MEpvT/WMR9C6Doxe6luQ/jBXVrV3/zr96IuTqHW9dAP3cWf78+ObnrmVhFbocp8W4L7icX7AHz+ZQ7tgSX+Avd+h7SICpwZlYV6QwwBMDITJACcAxD0g9noACwD66QwAAgCdCGYeCEweBmD1q8cFW1cG9GOEjZOEHYcD1/scIZBvHajfPIhvLnZcCyNg4V/g6dn7+169YTsMoG2I+S3laDD6l3aU9a2k0Su6035FPyWY5WyZxvZyY/uI52tD+8i2Z8f6B0NBqaZpK6vaRyfmi51lfWvoDnNH6F/uvNnYOfrLnTfRUQE+u0ajm3n3ju6a0E8Sdr4aAZ3t6BjqOWK7Jj86Ado0F/9osXZKw/cefXHSKgnUgAdYBhByPcAbAFI8IK5cECMAaAxgAMDGy1QA6OEeN3ROgPcBMkaU92MAvr7zheHxW0usv0is9y8va0f+PNXQVmKN+yGeJ7x92DwgHneYzpj0Okfs2dcmKjP3WR8O6/39g3e3PTtmAqCKAWrc16N/YeeYcQ8vA3aOEafJo77rTHnQqN/bAzZ0T356ZpH1UXDcX90uooY8wLFKIKR6gDcAxD0gxvUBTABASwf8PIANACwM8ISBhQQfCUAAeOXw+OLiKsdvEd9HTnw22/QY+9if1AX6YB/4VWwAZAcc/U1s7Cg32Bnwuw9+XF7mezBsn1pZ1cZvLT31m1usDKhCIkwGgITA6QHFZ34813uH7SkYd/Mliyam7u8+SGwZlGkPcBpAaB5AA4AUD4i+HsAEAOJoAY96ADMAWBhghXtCDvS80GYjX+TFgPzmwQ8+nuL7/eH4RcUfKQ3f29J9nVUF5HsACvdo7F9NEFmRHQwDxIDGztETp8PNXeAHiDv3lrTD71UwA1AiqBri8Xlhzk4UHgBigOUBj+yr8CXNKjP3n/7tzP+e40m4oe0imvfMWukg7yUCWagHOAwgpHoADQDiHhBLPYAJAORmom4P4AEACwNwuEdB34kEOwMebv+eb8CFos+xk9OvHB6/vcCpDvrvbc8oay7Idj9wpB94GzzQu+7EtNj27NiVEk8MQjn9T07dFim/f3Lqth76O6ySQCADqjfE7gEThV16Qbs8wvP0RseMjT93VZp2VY6d5skd3VvSjO0iqntEZ9QDvA0gBA8IBoAUD4iyHsAEAMIA+o2+zQM4AcDIAJwOQh0bDKoMeOy5Mt+vnKZp95a0N45M5reW8ltLIt9neVl778NxW0wn8zw+fZkeUDUAszjMlQtq2FF+9rWJqQpn0v/ekr5XQWP7yC933hRJf1slgUTVAwAe0NHz4+gYT/0J1XILRvRvMl7/8394pl2trGpv/fdtwJZB6fYATwOQ7gHBABD3gIjrAUwAIA3AXQ/gBwCYAWS4dxqAkRrKtw7sf32Me+Q+Vbm/58AP+twhAwD5raVix7WzX83hpARr59QXM0IlgcABfuANvHFfx8aO8uH3KtxJ/4mp+3oSX59NZE4oEikhTEzdf/a1iXR5wO6DP/IVzPsH7z6yr1LYVSnsmkTRf0O33vmP/5rlSGmurGp//GTOSgRlzgNoBiDVA6AAkOIB0dQDmADgMgCbBwgBAMwAigHkNw8e+fMUa4zG9/cP3t3SpQ/8SQDkt5bWbysd+TN/LeFK6e6mrjJTSUCmByBCYAyAJ4M2tpdFkv76w+y+Xo3+iAH667OvTUzPcvrE8rL2uw9+ZGJAjPWAA2/PzM2v4J8ueOdc753iMz8Wdk3ihhiAXg+8PcOHZNhS4XR7ACKB+1XWOuE16wp46S9TJ7nnBzABwG0ApAeIAgDMANIDMA+aHhsSGaofPzWtx+jNRvRHCwiqEpDfWmpoK4mIhWhJIHCYH3gDBoAr0Y9G+uRrY3t5254R7qS/pmknTs+bYdoc/lsAaDSWEQxe5cmJoxh64osFsyTQ6Sz/VlP/ntcjrQcceHvmHk/iR/vfc3c3dFuh38mAbr0ecODtGT7HtZ0snzkPcCwPxm8tPxBeI2YAAMwAKR4Qdj2ACQA+BmB6gAQAgBmA4z6CQdvuoes3uX7hNA3N38dLxmwdggGoJMD9p+gTWt6ZYCoJyPcA2PBfZKY/Tvq7x/7klV/uvHniC56MNmLAlRKxSgCAgYg9gC9Ro2n6nm6FLo/ojzCAPaCwa5I7uVTdLoK+RCBrHoArBILrA6oAADPAXhJg9oAI6gFMAPAzAHRdDgDADDA9QCzpb67gJdYM2wBAFANQVUCwJHD8s9nCo1eZMGDdHDjMB95AlQDRpH/PuDlt1GvsTzKgsX1EpCRQmamWBAAAIMwgdA/g2+YBpen16O8PAFwPaNJrA5WOnh/5ljdeKekFBrMkUAMeYBmAcD2AAACYAVI8ILx6ABMAqAbQ3/lsCZLo1LeCCNpZGg/w6R3BpH9p+F7b7iFyxwhn9HflgsRLAv2DbCWByDxAStKfXDjmCPeeb0VsA6kbYHMIMyMUugd0TXxy6jZHkRad66KXfBEAYAxo2lV59MXJ0vA9yC+d4x7YUuHseAA2ABMGvLkgOwDADBD0gFDXBzABgG4AMgEQ5AH51oFC2+CX5/mXJp36YqbQNoi3i/AO/dgM7Lmg/NZSz5ujfHlYTdOmKgKrBIDD/MDb7B4gIenf7lw23ACQAFQSEKk36EnzLn2nIJYWggd0TfAt10InO1qhn4kBe6Yf2VfheHrWyfJoaVimPcBpAAIe4AIAmAFSPCCMegATAKIzAKQI9kW/pA207R7inumPRo449OMOKwNEthhCqw3gU4NC9QDxmf7kwN/R9xz4Oy7+cufNT07ddoxS4W9Lw/e2Pz8OBEAYHrDpmVt8Ww3Oza88/dsZveqrbzHksW8oLgI7Orge0LSrwr3JxPSsvsw4aIlAFjzAYQDcHuAFADADBD0gpHoABwD8PECyAfgxYOPl/a+P8U2w0zQNJf1x0Hd0WBkguMkof0kgcIAPvEF8pn/PuL5g2L5lkOOtI9x7v+0YPfTuNN/MGU3T5uZX9r+OdoKDq4AMD+ia2PTMLY4xuKZplRl9ux49slsbzHEyoGnPNN86u+rJ8kZJIKMe4G0AXB7gAwAwA6R4gNx6AAcA/DwgFAC4ckEiU/Jx0t8R98m3rAxoaCt9dLTCkflFI1ymkoBcD5CT9EepJCoAgLmgxo7Rp35za2KKc5UAqqNG7AGPvjh5/eYSx7/+9ZtLj75IhH4LA7wM6K7wbTSNJm41BWwZlG4P8DQADg/wBwCYAYIeIL0ewA0AtweEBYAqA+Qm/cmg7+izMmD9tpLInqP8JQHgMN/rNllJf7xfkGPU737rPfC31wnQYQO93/HsmomA+vnZ+Q27mFSA3wM6en7kw1Vp+J6+0BcP/HH0Nzv8DPjP/1ngoJHtZPnMeQDNABg9gAoAMAOkeICsegA3ANweECIANl5u2z3EvaGYmfRHFYXqfkGOoO94y8qA/NaSeEnAmvHps1MQukHcA57uGeXbogDvlUQuHLP6kjygsXOUbzCLGIB20dGPB+gMIIFIPWD3wR/58pDo0C4r+rsxIFAP2NA9+R//Ncu3VNg4Wb621gdYbIDNCwoCAJgBgh4gsR4gCADSA0ICQL51YN+rN/h+2aykP944GnaGDOvcULxKgK8YiCIXZ0nAa4Cvn//l0yTM9LfPIGrYUZbrAborCJcEXjkMLQsbWSMGD2jsHDvw9gzfIRNfnp+vlnytzaItGCADEPAAffO4bn2pMF81Rd8uogbmBeFFwjg1BNwrAgAAMAOkeIB4PUAQAKQHhAKA1gGR7X3MpD8xm8jcQi40D0AlARTQOV5RSQCiAhwe0NhePv7ZLMffCn0Ebe9jjfddGDC/JMkDGtpHREoCy8v6DmiQkgCrB6DdeDhcL284AAAgAElEQVQyLcdOL9pLvl4MwEIg4AFN3ZWnf8u/XUTLc7XlARYGgjwABgAwAwQ9QEo94Ng/KpCIYBwKj7Z88HhFHiAdAIW2wc/P8s/0//zsvD7Tvxr9zdBffevI+fi95cgF5beWXnub/xiyqcr9rgPsZwn4jPexB2zpvs43WQX9eOjb+7Tr+4NSmnWDJAY0to9seuaWSElAH3EzlASCPYBvT2ZN0w86tkb6tihPYsB5jhjf3FC0dSj3dhH9g3dNBmSuHkCO/VHfygIB6gFgAIAZIMUDROoBUgCAPAAOgFzgSmCxpP/Kqn48r34ufDXzg6O/uYGE/zlibhLwMeDJ/WW+lfo4zy7RA8JK+lN4II8BqCTAMeJG6Lp+c+mpnvFGGfWAP37CszE42pG/sNM4Xtg39JMYcPR5a8IC20WYJ8vTpgale14Qivs4+tve+nsACwDADBD0AMF6AAMAih5jf74UUG6jfpIMZUMIkaT/3PzKvldv4IE/7mAG4Ct6J7RcEDpLQGT0ylMS8PKAMJL+kXqAcRbYG0cm+dLumqbdXlg98PYMJB3kVw/g3r0OTbI0oz+UAXI8AG0ZxLddxMqqVt0uotKUaQ/ADLDJgQ8DGAEAZoAUD+CrB7ABgMoAuAHoKSN/BkiY6V+dOYpiPRn6SQMwr4fJANGSwMDCpq5yoAr41QP0mf4iSf+BBf1wY8owP/BLsjzAYMBTPeN8p2shFdCTMDt55gVt2DXGt+kIWmbV2DmmJ39Q9IcywCEB/OuEm7orLc9N8w1E0InE1KXCWfAAXAMI9AB2AIAZIOgB3PUAZgD4MwAOAPd5wsgG5Cb9bSP9ai7IcdF8GyYDBEsCE1PsJQHDAyJI+lPYIL8eYDBgw64xkaOez/Xe2fTMLZgKmPWADd2TfNFzetZY6LtzzBb6MQaCc0HSPKCpu9K8d5bvuaGT5fWpQRn1AG8D8KkHcAEAzAApHsBaD2ABQF+u2G+2Fo90EAsA+t0M2NJV+leJcwUQmfT3DvHV2q/bACLwgPzWUgQlAdIDJCT9UTYpcIwPuUGiBxgzRN/96zR3SWB0LLgkUBWFsU3P3OI7u2Zi6n5Hz48FPfqjZjeA6D1gV2VD9yTfdhHmyfIIAGiSqPM13R7gaQAmGOy5oDV1hYv6oWAcrYnpBDF0cxTnBzACgMYARgDYGLDnwA/cJwX6Jf0dJDADfZUEjq/qb8P1gKFNnVf5xpIog3H8s1kU4gMzQhKS/mQtARLife4JyQMaO8deOTzOvRtrNTMTsGsQ2uYBPXymV3ObByv6izBAngcYSwT4VthVT5bPoAfQDMDlAToAwmaAFA+A1wPYAeDLACYA6GUAXSP0YsCh39/gHtANl+/qe/rbk/4ewb0a9/0MIBoPECwJ9H53h14SEJ3pj5L+ZPRPpgcY6SDuAI1LAvrRkj77SD/VM863zcPgVeM8d2f0F2GAvHrALv1ESb6ZrObJ8tn1ALIAQPbJNWImAMJmQJT1AC4AeDOACQBo+lBhy+VTX8wwDa/Im82Z/n77hlaDPoUHHl8K1wP0Q+dfe3ucb6Gmpml6SeClG54SIJj0P/7ZrD5gd0d/YQZI9gAjC4RWC2/ousmX2kY/RZf6FrxKAmPPvjbBt/L8XO+dDbtw2sezw5cLkuAB+oFi1dTNoXenObaLWFnVD63UiwEZrQfYJgIZw3/LD4xckAWAsBkgxQMg9QBeAHgwgAkA9Rsvb+q8+q/SHb6xP0r6OyeSgiN+vB6Q31rqenFE7ioBaUl/PwDAzhOmlIXNL0msB3SOIgyIlgR+YysLc++joB9No0f/iWre3xMA3DVhqR5gbBfBN63WdrJ8lSgYLcaUIaMkgDjh/9q8d7Zpz7TH657ZZtz2zjaLN5TJgb2SY38c/c3O8ws2AITNAEEPAK4PEACAkwFMANhz4Afu/cgWF1f3vz7mjP5p8wCRksDKqnbs5DQuCQgm/bsOjPoO/B088Mn1B8d9yfsFlRs7zOiPOgfe5tz5AK0SeOPIJMoF8Q2NzfPcvdM+nhiIzQPIk2Se/u0Mt+joS4VrwAMwA5AcrKlr1GsAZOMpCEc7L4heDxADgI0BQAD86S/jR94f4zBQpO1W0t9vKVl6PKDw6NXjp6bJpBZTX89gdAlt74O+AzT6C+eCLE5I9ACjHtDYPiJSElhZ1bdq4DOJlVXt3b9OGzP9PWO930U+Bkj1gF0Vke0i9JPlfUsC6Z4XRHoAOUfIAEC0DBD0gMD1AcIAsBgABADfoANFRlvS3w8A4IKwRwHAAY/w6wH5raXD70xwlwS4OYp2p2EL/dgGkuIB+qahpgoY6SDBkgATfdHNK6vaoXenC51jemMwAHQzHwMk1AMsD+iudPT8yLe8rrpdhLFznNsGuqEMMIsKrmSRlQjaIyMRtHfWneIPvOJlAI0X0+gBfvUAIABaH7+SK/b5N319ABAAHL9mmqbpY7SjFe+0jycJHKHc/23s9QC9JPDSDb45J3wPE59IzAmABNYD2kf0HI7wKgGm57m8rB14e8ZYNGAAIDoGSPaAR/ZVRJY76Hl8j2JAJRv1AC8DiJwBgh5AqQdIAoDuAeEB4PbC6ssHrzFE/7TVA/KbBzd1lUVWCcAjF1pazB/6E+sByAY69Nn9z742wb2sBPgkby+sPvuaWe81dpqLmAGSPYB7uwjzZHm3AZjZoXR7gL8BRM4AKfOC3PUAFgD0+xuALgchAeD6zaXH916t3zjADACWXFASPEAvCQhs3QOJXGglgRX920pWH0d2eEcgFxRiPcAgwfbnx0vD9yDPhOOe6dn7T/3mVqFrAoV+/BptLkiyBxSf+fFcL8+sPPNk+YzWA/wNIHIGCHqAZz2ABQCUFFBYADj71Zy+p79nkgd40T/5E1wDID8bST1g/Ta9JCCS2aeEsxOn51G415cRwKM8/U4BBkheH4ANoNr55c6bfJsfUJ4hWorx6Ito1lDw+QHgwkAC6gHGUmG+J1Y9WT5r9YAgA4icAVI8gKwHJBkAX56f3/nC8BP7rqHXJ/Zdc7edLwzLak/uL8tqXS+O/HvzH/er4/v/ezWAR3vpxu8++FE6Az7822zXgVGJ7amecfTdUAe/Pt0z+lTPOHr993paae03t/59QBhre7pnVORMITcJpmfvH3h75tnXJnYf/BG97j74Y5Tt6d/OoD8OdTxfn/7tjEjjW1tnbheRUQ9AJKjOAkJxn3yNcG6ooAc46gFJBoD7109dUU8g9ieAli7yLWCM/S8f3l9gZdWYqXFiPsPrA/wBEO3cUCkegOoBCgDh/Uqo76yeQA0+gY90BmRzXhAVANEyQNADcD1AAaAGf0XVf7J6AuE9gZVV7T/+S9/mwfsUgTSvD1hT13hBXwRAaRHmgqR4gAJAeL8J6jurJ1CbT2BufsV/cUCK1wcgACSIAYIesK65VwGgNn9F1X+1egLhPQG0QNrbANK8PgADIEEMEPSAY59OQn4OglYChzUNFPJ3U/eoJ6CeQNKeALUSUDFWDkPXiHnsGIp2EsWbhka1VwROAV1IVC5IxAMUAJL2m6P+PuoJpP0JmCcH6Ol+I9ZnpR5AGkCyGMDtAQoAaf9lU39/9QQS+ATe+u/bxl5AaLBPeU2TB5AAuGhIQIJyQXwewACA5hhWAifwJ1v9ldQTUE+A/gRWVrWOnh/N4T/eJy79HkACABlA6j2ADQBUBoS0FxD9R019VT0B9QSS9gQ+PbPof1SApw2kwwPcAEi9BzADwJ8BCgBJ+z1Ufx/1BKJ/AqXhe/pZMXjg7+ik2QPcAEi9B/AAwIcBv37m++h/2tSfqJ6AegIJeQIrq9r/nrtLPSnMHww6J5LuAX4ASLEHAAFw5P2xQ7+/QW9/+st4qD+IX56fP3Zymt6On6z4tOnjJ4PaqenjXO36zSXIf/ipL2b4vv/xz2ZT2k6cnk9sg2wWvbKqneu9c+KLhYS3T88sxtuOnV784ydzHnl/x/Afv02nB/gBIMUeAAQAJMCFfU955G5Lx2Cupd+rXa7feDlntOj3jj4B28R/U+fVevue0vnNg7S2tZSntvXbSoFN3/mZq6ET5/Gr0LEBeENpgb2jpZ8f8OHfZiE/sU/95pZ58GR1l2nrbad++Ay4ie0d3WUcPmO9uraP7nIfDxB4ZbLQZW+7Jgs+zTpFclfFu989bV3HgZ6nk1wPoAMglR6QIgBomoYZoIf7ln7yNddiAiAHPCfA7zbyDAD/PnmADDcA6ukA2DxIB0B+azAA1m8r8QHA+SkcxAU7AgyQe36ABAAYp4/RAVDoHGvsHDWOjRzF58aQnWjPkJF6jpgfCdB1SOhPmwfQAZBKD0gXABADNvp7AJKAaBiAz5MRAUDCGYANQOeBYOjHHxdggEQPkAMAAAPshBDzANu58y4J2Bk45Pe8wS4BXb4SUNg1aY3x6dEfzgBfTiTRAyAASJkHpA4AJANIA0D9WDxAEAAJZ4BNBXAQF+wIMECWB0gDAIABygN8JwV1V1K0b+iaugZymB/YT8G+oWkEAMkAz3pAxB4gDoCEMyCTHiATAAAGKA+gMSAlHmAAAMSA1HhAEgBwe2H19sIqpCJH3lMeuYtyQbF7gBQAJJwB2fMAyQAAMEB5AI0BaagHVAEAYgD2g0R7wEdHK2RUjaU/OrbU+Wxpbn6F9U+/fnMpCfUAWQBIOAMy5gHyAQBggPIAGgMS7wEEAEAMSIEHvPFWmTXsSr9/dGwpV+zb+cIwhwdcv7m0qfOqY0ZQxPUAiQBIOAOy5AGhAADAAOUBNAYk2wPsAAAxIOkeUNzefw+0jEl62Le+IQJArtj3xL5rafQAuQBIOAMy4wFhAQDAAOUBNAYk2ANcAAAxINEe8Ivmb8JewWtFep8eBsD6X/Xx5YJGx5a2dJXi8gAGALQOONaC+b2lLRBT6wPsk4j45gWFCAAAA5QH0BiQVA/wAgCIAYn2gAeLfWe/mvMJzlFcxgDIFftyLf2CDIh+XhAbADLBgAx4QLgAADBAeQCNAYn0AB8AgBiQaA9Y19x75P0xjvSLFD7YACDCgNHFWDwADgC0flhfQWbfE8LvrfIAa+WXfdTvvs7qAaEDAMAA5QE0BiTPA/wBAGJAoj1gXVPvg8W+vS+VDh4aOvT7G2+8VaZv/Qb86lTlfiAknAAomicMcwBp/JaZC4rSA+AAQIuHTQyknwGp9oAoAABggPIAGgMS5gFUAIAYkGwPaOpd52jNvetYWq65z9GGy3f5AJAr9v36me+nZ4P54fj+mAGRrQ+AA8AyALTLUPoZkN55QREBAMAA5QE0BiTJA4IAAGJA0j2AjwG5Yh9ChUQA5Ip9bbuHKjP8DIjGA+AAIA1AeQBth9GghI87BeRxpX2kwb9FBwAAA5QH0BiQGA8AAADEgGx6gCcDRAxArwkX+zq6r0DySG4PaNs9FM28IDgAnAagPICyp5AAAyD1ACgAesat/Z/dO0LDrwRtHK08gMaAZHgADAAgBmTTA9Y19yIMYA8QB0Cupb9t9xAHAyam7iMGhO0BcAC4DUB5QFwewACA9pFoGKA8gMaABHgAGAAgBmTNA3LNZhaIzAUNl+84xubut55FYDT8R6/rmjk9YKpy//G9oa8ThgPA2wCUB8ThAWwAiIoBygNoDIjbA1gAAGJANj2AzAVJAQBaH7Clq8ThAZUZkwHheQAcAH4GoDwgeg9gBkBUDFAeQGNArB7ACAAQA7LmAebwv1oTlgaAYt+DxT4+BoTtAcdPTbu1xn1lU+dVmgEoD4jWA3gAEBUDlAfQGBCfB7ADAMSAbHoAqgdIBABKB/ExIFQPgAOAbgDKA6L0AE4ARMUA5QE0BsTkAVwAADEgax6A6wEyAdDSn6t6wMQU89xQzAC56wPyrQOsAEAYoL2q9QGeNiB1XhA/AKJigPIAGgPi8ABeAIAYkE0PKI/wLwQj68CO/pau0vgt5l1MMQPk1gP4AIDG+36vfptDOK4nea+IhK8TFgJAVAxQHkBjQOQeIAAAEAOy5gHrmntlGoCxLACToPXxK6NjzAyYnpU8LygUA1D1AE8DQBcleYAoAKJigPIAGgOi9QAxAIAYkDUPCA8AuWJf6+NXODwAM0CWB/AZgKoH0DL+FABsH/ZY9MtOBQkAiIoBygNoDIjQA4QBAGJAdjwg19wXKgByLf18HjA3v7LzhWEp64RDNADlARQMsEd8jA20TlgOAKJigPIAGgOi8gAZAAAxIDseAAVAs77rA08TYMAT+655SUB/ruVybqPZ6jdeDmwiBqA8IC4PkAaAqBigPIDGgEg8YE1d/lxdwwUJrRGHeL9OFjyAwQDQNqKRM0DcA0I3AOUB4XiATABExQDlATQGhO8BBgCiYwBmw8W6Rv9WuFhHtHWFr3la09frAO0Xzd+sa/oavTo3DW3y3jiawQBEGGDUAzhqwjgX5KUCUA8QNwDlAdF7ABwADe0jjZAG3xiOcmfQnnHKA2gMCNkDqgCIjgHp9gBmA+BmgLFEgK8ecHthVcQDIjIA5QGyPYAJAIligPIAGgPC9AACANExIN0ewGwA3Aww0kcP7xiA7D/q2KcBMQAtEHOpQLAHyDIA5QFRegArABLFAOUBNAaE5gFr1ubP6WUA3FQ9QE8c0c4R4wQAd0242MfHgMVFfg8AAqClYxCFeNFXtU7Y0wYY5wVxACBRDFAeQGNAOB6gAyAmBqTVA/gBIMqA4G2o3R6w96WSPgWopd/VaB4QBgD8Vgir/YJolsDCAD4AJIoBygNoDAjBA0wAxMSAVNYDgADQd45DyR/HK9+8INMD2BiwsqotLq7uOfAD6/oABgBsvCw6/EfFgNYBx54Qfm+TvFdEvOcJcwMgUQxQHkBjgGwPsAAQEwPS5wFwACSBAZpmMcAlAb7rA9gAwMIA5QG08b5nIgi8TlgEAIligPIAGgOkeoANADExIGUewASApDEAuG8oMwBYGBBgDKoe4IkBQC5IEACJYoDyABoD5HmAEwAxMSBNHgAHAHmOmEc6iDcXVNx+GfJ3cNQDcC4I4gEMAGgdsNYV42ROUEd5QBgeIA6ARDFAeQCNAZI8wAMAMTEgHR4AXwfgOEfMAwACNeHi9sul4XuOEB/49t6SBqwHMADAsbFEUOgPGP7jjysPYPcAKQBIFAOUB9AYIMMDvAEQEwPS4QGQ0ffo2BICAIkB6Qz4V4mtJozrAYHrAxgAQBoAggEO4kEd5QFyPUAWABLFAOUBNAYIe4AvAGJiQNI9gNkAmvtsJHDMCBJaI9Zf3H6ZgwEQD2AAgMMAGBkQIATKA1g8gAEAO8oN7SP0lpy9IpQH0Bgg5gE0AMTEgKR7AIcBoMOETRuQyYC+whZOBux79YZXMcCcF8QAALcBMDJAeYAsD2ADQKoYoDyAxgABDwgAQEwMSK4H/KL5Gz4AhMWAln5uBrx8UN872nNeEAMAPA2AkQHKA6QwgBkAqWKA8gAaA3g9IBgAMTEgoR6wrulrEABGF8nMD9lHU4Pk1gMKWy73DywEFoEdN9xb0nQGbPRYJ8wAAD8DYGSA8gBxBvAAIFUMUB5AYwCXB4AAEBMDkugBUAPwAkAupHqAsW9ocTs/A9wSwAAAigEwMkB5gAgD8tuHWQGAzhHTjxVT9YCdEwV365ooBLRJ/YZdxGvXZMHRdk3qN3i1pl0VhuYb3ysWFdg9AAqAmBiQOA8QN4CwckFFvR7A4QHLyx4eIBMALGvElAeIMODDv82urDo0z+PtUz3j+CxJq5MeBigPsCI+hArmPdNN3UbbM91ENAYAxMSAZHmAiAG4E0GS1wkb9QBuBpAeIBkALAxQHsDHAA4DQNFfeUBh51i11ZwHsAEgJgYkywMEawBuDMisBxgM6P2OeX0A8gC8PkA+AFgYoDyAjwFCBoC2mlAe4E4E7QxMBHneEGsuyNcMnB7ADICYGJAcD+iVAoCw6gHG9hIPtfYJMiAUALAwQHkAKwO4DUB5QHX4X4sewAOAmBiQFA+QAgDsAaHsF2R4wKU+5nlBK6taz5ujuZb+sADAwgDlAawMkGAAygPMdBBfLsitAkn3AE4AxMSARHgAFAA+Z8rj0I87oTDAqAlzMyBEALAwQHkAnAGCBqA8oDY9YM3a+n+iQ8E4Xq2DJGvpPGEGAIAZgKcGyawHGAzgywWNji56TB9xXdKPhAycBup5Q9A2QTj0Kw+AM+CTU7dd/0QeF559bcKa/EPZZVrVA2qgHmAAIGUMiNkD2AAAYEDY9QAOD/AIG16X+AGgPKBtyHZ8GH7rufkP9eK2PSPv/nX6+s0lr38ij2srq1rvd3dee3vcmv9jx4B1PT0MUOuEaXND/dcHVAGQMgbEWQ9gBgCAASgdFEouiLce4BE5XJeEAMDCAOUBbg/Y1FU+/F6lf/AuZO6/659Ov3B7YfXE6XnvZQEYCelhgFofQGOAz7wgHQB1+XN6IihlDIjNA3gAEC8Din0PtfaF4QEtHYM5zwwP/CI4F4STQt6dmtk3tNhZfuXw+LneO8vLnlGd52Jp+N6RP09t6iqTqSHlAURVgK8mTKwQRquFHYuEu7xXCKNlwwyLhHcRi4F9Ar3JBpcKEAaQPgbE4wGcAAAzIKR6wEOtfWe/muMJD/6fQQCIjAE17gH7Xx/7/Oz87QXAYl//fzLKV+4taV+en3/l8Hhj+whJAr2vPCCj9QALAMoD1hW+prWmr9cZDQyAr9c19Tpbcy+e/OPZCbEe0NK//leSGYABEBkDvIf/WCOy6AFdB0aPnZyuzNynxG65X5qq3P/oxPz25/UdI5QHZNsDLACYWSDlARQMMAGgudcABjMDQq0HyGWADoCWy/p+okbjnBGE8kU4iAd1asQDHnuu/MdP5kbHoKVduQxA361/8O7h9yrFzmpqSHlA5jzACQDlATQJKOgSwGIASBoyywADAOYZMlEyIMMesKX7+r/T8f2Dd8MI6HzfE9WKzcmj6WGAmhcUUBM26gFOACgPCABAAQwAwwB+0fyNiAeEVA9Y/6u+L8/P84UD8lNVAMTAgIx5QLGz/MaRSbmlXfJfSkr/+s2ld/86vaX7Or0kkJyzJNW8oAAGdFe8AaA8gIIBdgPg9ICw6wHiDEAAqG4hF3UuKAMe0Nhe7nlz9NQXM4uLYZV2pYR+8pssL2vneqvLCHyEIDkMUB5AZ4A3AJQHSAAAYQCCHhDK+gBjbqhgipkwgH7jhOGoGZBSD2hoK+179caJz2bn5lfI2Cq3j2b1fPi32alKKAXkysz9D/82u/15Y0GZiwTJYYDyAAoDaABQHuCJAV4D4PSAsGrCLf3HT1YEIw5pAMoD1m8rURpa9/vk/vIHH0+N3wq3tGvN668uId7/+tiX5+clLh0gf3JKw/d+98GPG7puOlJDyWGA8gA/BtAAoDxAFgCQAQh6gMR6wEOt0msAyACUB3gzAJV2B6+GW9qdmNKH5I89Z0zaqYZ+cgkx2jQiJPwg4dj/+pg+c7QqBMlhgPIATwYEA0B5gAMDYgbA6QES6wF8pweTIz7cdxuA8gBSAood1944Mtn73R3u3Rrwo6Z0bi+sfn52fv/rY2Ssp/V3lEMVgtGxpT9+MqcvIzAwkBwGKA9wMyAYAMoDZAFAigcI1gMe3jFQGr5HiSZMX3LVAJQH6AZQePTqv49V+PysmXIJKfqvrGrmPP2Oa3mv8T6NAduHG3aUt3Rff/ev0yEJgbXlXOdochigPMDBACgAlAdgDMgwAE4PEKwHbOkqCVZ9HXjwM4Da9ID120pP94we/2w2vN0a0PO/fnPpg4+ntu0ZCQjxQCqELARz8ytoy7lgDHSMNoq3zlF7lHe+VR5AMgAKAOUBsgAgxQM46gGdz5amZyXPBqEaQA3VAx57rvzR0UrYuzXMza8c/2z26Z7Rhu3D+bYh/RUY4gNvM/b+DFUINE3Dywj0KN8+4t3EAdDhjPh0HjR2jrlboXNMb9Zh8cA+355xcZ4jxgYA5QHr4AvBqnsHoR2E/F+Z1wlz1AP2vlQKY1hKN4DMe0Db7qEjf56Cb8Tv8Cfg23tL+rz7Vw6PFx69asZ9fHhA25BcBqA94EKtEFhbzvlhIBIGKA9AHsAGAOUBsgAgxQOA9YCDh4buhTPtEGAAGfSAYse1w+9M9A8shJTcx2AYvHoX7dLsjvuWBITDgLArBJqmVWbMLec8VCASBtjNoEY9gAcANe4B8moAqBIQbj3g8B9Gw4tTD+8YyLX0o5E+/TX6PeOkrxMuPHpV+kb8ONaTHTyb0/vIMHL4j/uBSR7gDfgcmGqnsT3cKUOapl0p3UXLCGwkiIQBygN4AFDjHiARAFI8wLceUOz701/GycgC7K+sasCZIQgAxhpgcv6PXz+V64Qb2kpoI/6wd2vQ91z7bHbfqzca2krA0B+BB+CDAcKuEJjHk/3mloWBSBhQ4x7AD4Ca9QCJAHAVBqTVAx4s9h37B89C3+VlrefN0eOnpiG0IAFAN4A01gOe3F+OYCN+NF3yjSOTTY/5nBKMh/mBHeAwP/C26vAfR3/caWwfCbVCgGvF254d00kQCQNq2QP4AVCzHgAFgLF3tCvEk2kfsy/FA8h6wPpf9X1+lmezz8XF1X2v3vhF8zccAMiMBzz2nL5bg9z5sp40LY/oKf4t3dfzW/XVA8BRv/u2KD0AkwCtbS6PhLW2GS8jKOwck4CBoLmhNesBa9bmzthCOToQBvxagx7AAAAwA+ycYPYAcn1AYcvl3u/ueEYc+sW5+ZWdLwznin25Yh83AFLqAfnWgU1d5SPvj/UPLNCfkvhX8WxOcs0w6ruDO8+VwAE+8AZ/DzAxYJwc+VTP+InT8yHNMkC14k9O3X6qZ1wUA0EMqE0PMAAgxgCLH/lza7laXf6c1Rou1Im3RnxccGDnYl2jfytcrCMaWgrABgAwA6R4QHF7P99C3/FbS227h37R/I0gAFLnAQ+3f//a2+Nnv5pbWdXCq5ZrmkbO5g0eKTsAACAASURBVHSHfnyFJ+IbqaFYPAALwaau8uH3KuEJgaZpeMs5cxkBR3YoiAE16AFVAIgxoKY8gBkAYAaIeECu2Nf6+JXR0UWOIepw+U7r41dQ6JcCgOR7QKFtcP/rY9FsxI8i16bOqyjVg2O9X4ebAbYPAof5gbcFeoD9hrCFAHFU33KOAwCANWK15gEEAMQYUDsewAMAMAO4PeDXz3zPt9C3f2ChuP0yGf1FUkBgA4htfcCeAz8c+0eF71kxwXVi6v5HRyuPPVfObx7Mby3h5hf3yeu2UB5Y+yVuiNcDohECJGr45HpmIVAesKvSVG12AIgxoEY8gBMAYAZweAD3Qt+zX8091Kon/R0NeFQAOQvIHfoT5QGP772KS7uhpnpuL6ye+mJm36s39LouEffJPhnr/frcDLB9MHCAD7zBPszHgT6wE7YQaJrW+92dQ+9Ob+i6yeAEQQyoHQ9wAUCMAbXgAfwAADOAyQNePniNrwR36ouZB12h30wBwc6KoQPAjQSfKyGuD9jSVTr8zgRfXYRpvL+yql3qW3jt7XF9Nqd9yE+Gftz3i/vkdVsoJ4b5gdcT4gEYD6hCMFwOa8qQpmnWMgJgaiiIATVSD/ACgBgDMu8BQgAAMwDoAdwLfY8en3CM+sm3DAZQ9Fv2ZV6PxQNQafdSX+i7NWiahmZz6in+zYO25jP8j4YBNkgAh/mBt/F6QMOOcmMkU4ZsywgCSRDEgFrwAB8AiDEg2x4gCgAwAwI94Mj7Y0yjVHTzyqp25P2xdc19uWZn5gczgA0AQQzwGfg7yCHBAwpbLr988BreiJ/j4cA/os/mPDX95H4jxb95UE/4OACgPMAHGBu6bv7ugx9DFQK05dyBt2d+uZOaGgpiQOY9wB8AYgzIsAdIAACYAX4ekGvuO/bpJDxa4TuXl7U33irroR83rywQMwCCGBCuB7QO7Dnww/FT02HseIofHerg2ZwNbaX6zYP17qDvuKI8gMCAflqkbgPmmZERVAhQrfjRFyd9KwRBDMi2B1ABIMaArHqAHACAGeD2AJGFvi8fvLauqdeK/j4ewAKAvlyx32wtjkE9x1s2D9j5wvDR4xNhb8SPQv/c/Mqxk9P7Xr2x84XhJ/eXHa3rxZEn95fdr+7bul4ccbaXbnRJaQdGu8JsT/WMo++POvj16Z7Rp3rG0etTPeMM7Te3nuoZj2CrJXR6mm+tOIgBGfaAIACIMSCTHiANAGAGkB7QvOXbS308q1Xn5lc6ny3pO8fhsT/ZsXsAIwCgDJDoAftevRFqDsEx8Fdv0/4E0NSv2wurH/5t1mPKUBADsuoBAACIMSB7HiATAGAGIA8obu8fvMozlQIv9DU3jSBDP+4TDGAHAJQBUuoBJz6bTXs8Un//GJ/A+K2l7c+79pYIYkAmPQAGADEGZMwDJAMAxoBfNH+jL/Qd4znYBS301RHS3EvuGeehAlUGcAEAygBBD/joKM8upzGGG/VHJ/AJXL+5tGGXazlxEAOy5wFgAIgxIEseIB8AAAZ0dF+ZqvCc6Puv0p1iWz8a+ONXhAEPAFTnBfECAMoAbg9o2z0U6jKuBIYq9VcK6Qm8+9dpj8pwEAMy5gEsABBjQGY8IBQAUBmw96XS3PwKx68BWuiL4z4qADjeemCg2CcAACgD+DxADf85fgzUR9xPAJ165AGAGtsvaM0DuTP6jtDwBt4p2hr1uz/CtWnoWnLT0Pw5CZuGNgTuFUreYG4aGhYAfBjAvdD376cq63/VR4Z7sk/PBYkBAMoADg/gK4C7f//VFfUENE3bsGtMz+q4l4zVjAfoAIiSARnwgBAB4GLAod/f4Mt4fHS0gpL+ZNB39CkMEAYAlAGsHvCvEs9RByrYqSfg+QQ8SsEYBkEMyEY9wARAlAywzCCdHgAEQF3hIjo/gPm1yTwpjHuh73sfjuszR5t7Ic2zHiADAFAGMHmAAoBnIFMX+Z4ADQCAXFAG6gEWAKJkQKo9AA4AbgbUN13iS3avrOoLfdc1GWeKBQEg12xLEJHFAEkAgDIA7gEKAHyRTn3K8wkEAADAgLR7gA0AUTIgvR7ABAAOBvyi+ZtTX8x4/rzSL95b0tBCXxMATSAD8JwbKg8AUAYAPUABgP4zoL7K9ASCAQBgQKo9wAmAKBmQTg+4wAoAJgY81Np39qs5ph9idPPc/Er3vgEr9CMJ4GWAVABAGQDxAAUAjp8N9RG/JwACAIAB6fUADwBEyYA0egAHAIAMaN7yLd+h5FOV+x3dV/SMv14/4DxTHqtArhk6DdR9lBjeT9TVkbNfkAKAXyxT1zmeABQAAAak1AO8ARAlA1LnAVAANNoOlKczoK5wkftE3/LI3dbHr5D7BXEwwFEPABoACwDkeAAEAIuLq8dPVo6fnA5up6aPJ7N9Nns8ne3E6fkktOs3QWvmGQAAYEAaPcAXAFEyIF0ewAAAMAM6uq+M3wL9yDqGOeZCX2PikHvfUBsJgmrCaMoQmhQUDgCgDKDUAyAAqMzcr994GdpaB+qlNGNraLRBNOXV48wAcvvoWPeOJs8Rawg8HAZ4A7EXND4gjLnTPtJAbY3tI452/LPbjt8Uz7dsAAAwIHUesOaBdV+gpQCerwwLxGpmnTAbAIIYUFe42L1vgG+h76W+hYda++xjf3MKqWAuKDQAQBngVw+QD4CNl4EAyG8erG8d8HvVv0n6GZC8c8T08wP0RgVAQ2QAADAgXR5gACAZDEiLBzADgMqAlw9eW1xc9Rye0C9+fnb+oQ0X3dFfigeECQAoAzw9IBQAgBlAQQUCQwYYQHpAHjjMD7wtcg8IywDQMrGgNWIp8oAqAJLBgFTUA3gA4MOAg4eGlpfpcd77q0ePT6BA7waA6wpPTThkAEAZ4PaAsAAAZgDNAFAqSXmAJw8EGIDOEWPygHABkCEP0AGwNndGTwQlgwHJ9wBOALgYcOT9MY5tHlZWtfc+HK9zbRrhiPuCHhA+AKAMcHhAiAAAM8DTA0gwKA/wLiEIMMAqG8ByQaEDAMCAVHgAYQCJYUDCPYAfAFUG1Ddd+tNfxr3H9tSr1YW+ZKIf2GfzgEgAAGUA6QHhAgDMADLcm8kfRyVZeUCsHhAFAAAMSH49wDIA5QEB24s2mjuDCgGg8WJ90yWhhb6Fr/XNhar7BdE73B4QFQCgDMAeEDoAwAxweIAHEtLPgPTWAyICAIABCfcAlwEoD2i44EsCgwH8AChcfGjDRaGFvij6szDATgioBzAAoHqGjGvlVx/4CmiNGPIAIABy8Gmgnnc6hvM+b8mg7+CB+Tb9DEjpvKDoAABgQMI8YKKwa7LQZb5aAEAGoDzAN/ojMDSCt4JoNM8PqKt2RBf6ktGfhQEcHsAGgKgYkGvphwMgGgbguE/CgOyrekAs9QAGALSPeJwHgDeFBnZSOy/IAoBZB0YGoDzA3wPABnABh/66wtePbP+mPMJznvvo6KK+0Ncd/VkYwOoBzACIigFMAIiGASjcYxJ4dJQHRF4PiBoAqfUAJwCUBwQYQAPYAAoX6/SUke4BO574lnuhb/OWb+ubLukRXIwBTB5w/OQktRptfrG4vZ/cRBqc8/HLDgXngqAAaLmc22g26JJggVwQZYGYiYf0MyBd9QA2AEiRAAADElgPcAJAeYA0ADReqCvo2wF1dF+ZnuU5z/1S30LTRn2pF30fIXhNGO4BnAAI3wPAAOjPRc4Aj7E/WTxIPwNSVA9gBkBUDEhaPcAbAMoDKBhgSQFd2PtSiW+pF1roq8/3Bzap84L4ARAyA1gAEAMDyOy/u6/qAZHVA3gAEBUDEuUB3gBQHiAFACILffW0DzD049tgDIB4gBAAwmQAHABo1pDygPXbSp7NNpxvG+J865nc57gosEbMc50wJwCiYkByPIAGAOUBnhgAGgDfQl9N0468Pxac88FB39GBMSCwHgAHgH6KQHOfRyv6JfqB173rAXAA4KUD0TPAPfYnr8TlAa+9Pf7uX6eLnWXMA86g3zaU/HoAPwCiYkBCPIAGAOUB3ADg2ONB0zRzoW9BT/qHzQC6BzABIEoGwAFArh+OngFJqwc0tJVGx/T9xvXDEj6bfew5EwPcDLB9kGPI7/kReR4gBICoGJAEDwgGgPIABwYgBgCZQuO4Z3lZP9EXhX78ypwFQkIg7AFMAEBHCHhIQAi5IDgACAPoN/o1PS+o581R8udtZVXr/e5Oz5ujDW0lWyhnyQUl2QNEARAVA2L3gGAAKA+IAACLi6t7Xyrpc0aNsT/5GioD/DyACQDoJJloPAAOANIAarwekN9a6v3uDgkA1F9Z1YbLdw+/M9H0GG8NgASG56Ce46IMD5AAgKgYEK8HQAGgPABjQLoBoBN9zUUD+uoBJwZCZYBnPYAVAEgCImAAHAAuA6hdD9j5wjA9Jzk9e/+Dj6c2del5IVYhSKYH/O3UnBt47iv6iWCuw2RsV4Argem3JXidMBQAygNCAgBa6EusGa5uIGFXgVAZ4PYAVgDoob/YZx4qGWZNGA4AtwHUrAec+GzWHfvcV+4taY89V2YFgPN+jiG/50cEPKBhR1kaALLuAWwAUB5QB1sJ7P7t8rwyPLxQbOvXx/7Vqq81/I/VAzgAQB4pHF49AA4AHwOoOQ/Y1Hn1Huy06fLIXe6SQNI8AAiAbc+ONbaXbUN+TyGgD/CBX02kB7ABQHmARACghb51jRfWFb42DQDnf6r7x5HFgCjnBXEAINdsGkCoHgAHgJ8B1JoHvPvXac/Bh/vi4XcmOFJATgNAVQHPQT3HRV4PAAJg+/Pj7vOEvXkAjPL024IYEH09gAcANe4BUmoAX57XT/Q18v7GfkGFiwYGqjBA+R+EgQhzQbgewAEAqxQcZi4IDgCqAdSKBzS0lSamQNuQzM2vND02hJYIeMd0st7r00+OBwABgAwgUQyIeF4QDwBq3APEAXD85GR906Vq9EfnzFysL5w38z8o+YMlINpcEKoHiAAg1HoAHAB0A6gRD3jtbejBcx8dreAFYhnwACAAjCJwucE4ZtJ74O/ICNEH+MCvJskD1jxQd9ojoJObQvv0a9YDBAHwp7+M20O/edAYzgLZVABjIFoPEARAePUAOAAABhC1Bxz+w+jxU9OUrUP15WNS94y7UgLtQL68rG3pvk4CQIQBSfAAIACwASSNAZF5gAEAXgY4yZE784BPW5s7w9Dq/2kdDc/Yj+A8YREAHP7DqFf0N3JBOO2DKgE49ONOhAwQBEB49QBWACTEAx5u//7zs/Mo7f7a2+Oe64TRdhHSGLB58Oke2+Ivd9IfX/n87Lwj+gvmgmxJJI7Uv+dHWOoBQAA89pw5/EcASFQuKJp6QBUAvAyoQQ/gAwBa6GvkefCQ39UxQr+3ASAMRMUAQQCEVw9gBUASPODJ/WW0DQMKuIuLq4/vvaqP9FsHbHsEGXtHmxiQ4QFfnjeRgwO9X6frwKgnANLrAUAAOAygBj2AAAAvA2rNAzgAUF3o64r41YPmsRbohPAzgAgZIAsA0usBfACIywPyrQOH35lw7wc+XL5baNMBQDbLANB1MQa07R5y/7meAOgfvOsX/dPrAUAAoFlAePiPO7VTD7ADgJcBNeUBrACYnr3f0X0Fh3hYp7ocDOd/yE74HiARAHLrAXwAiMUDHm7//uxXvutRj/2jUt/qIQE2JxBgwEdHK57h3n3xlcPjdACk0QOAAPA0gJryABcAeBlQOx7ACgB9i7fGC+ZCYteQ38UDYm4oGfQd/ZAZAAVAWz/O9vh15NYDRAAQpQfsOfADff7l8rLW8+YozQAEPKDpsaG5+RV3rHdfmZi639DmfWCAgwr5tqG23UNH/jxly+/7zAf1vcczuc9xMageAAQAOQsID/9xpxY8wAsAvAyoEQ9gBcDc/IppAOig+WAG4ExRbB7AAICmXr/Q77guZa8IEQBE5AFG2oe+9w4KxHPzK227h3AlAMGANADuesDhdybcsd7zih7Qt5byW4MZsKX7+vitpZVV7d2/TrMuGI5+XhAQABQDqBEP8AEALwNqwQNYAaBp2u2FVZ0BCAANOL5TOjF7ABsAImSAOABC9YCWjsFzvR77bnoGX03T+gcWcOofd0gtMPtMuaCtpes3QZs/LC6uFjuuIQDQGYCiP/6vePev075jfIgTcAz5PT/i7wFAALhnAeHhP+5k2wP8AcDLgMx7AAcA0EEc3fsGWBiA8RCDBzADAMwAXBbm2y8IAoCpyn3wYB8tBfB8ZT4/YM+BH6YqoGW3OJJqmvbBx1NkxHcbAKsH7H99jPz+lP6xk9N6ft8wAIoHOKI/+oZH/jyVZA8AAmDbs2MNO5wzQXHox53kMED6+gAqAHgZkG0P4AMAFwNi8wAeAAAYIF4PgAKg6BnTrYtyPcBvtg8l+OIvraxq+1694UgEkUiw+jAPuNS3gL85pfPvwwD0vT+J6O/JAM/oj77t7z74MbEewAaAVDFA7vqAIADwMiDDHsANAIsBDDXheDyAEwAABqDCAHc9AAqAFuNI4RYr4vM6QbAHbOwYBMZcz3C8sqqfAo2jvJ8BAD3gsefKkPKDpmmX+hbc0d/BgMeeK4/fomWTDr8zwcqAaOoBcAB4nimPx/5kJ5MeAAAALwOy6gEiANA0bXlZ0w//SnY9gB8AITMACoCi95nyDgyIewBf2geTYHr2Phr+YwAEd6gecPwUdO/P/a+P+QEA1QO27RmhR390ijUHA2zM8Ezuc1y01wPgAGjYUU4jA2R5AAwAvAzIpAcIAgAx4OWD19bmz4HnhkbtASwA+HpdU6+zNbNNDYLXA8AA6MvBGOBAgs9bDw/Itw588PEUcLiNIz7Z6f3uzqbOq3n7cjAEAD4PKHZcW1xcJf8Iv/71m0v5zYMUADz2XJk+jRV/55VV7Y0jk6xrBcL2ADgArOiPEGJsDEcO/B39jHkAGAC8DMieB4gDAOWC9PUBSfUARgDwMICvHsACACgDODygRTjt89HRimfoDzYAn/UB+c2DR/48heMyvaMP2/0B8NhzZaZq9sqq9trb47ZxPWQuEHkPx5Df8yNVDwACQF8JXP2IRYL0MEDcA1gAwMuAjHmAFABgD6hLpAcwAQCdIuCUgHByQYwAgDLAZ+DvKCGYHrDv1RvTs8yzfXBEnqoYaZ+NlwNjPZMHNLSVgFF7bn6l8OhVHQA+DICfIYP/o5aXtVcOMzMgPA8AAmDbnhEr7ldJUFPzghgBwMuALHmALAAgBhw8NJRAD2ACAHGkMGcuCF4TZgcAlAEQD5CS9tnY4dwFKJAEvjdU6wH5zYOvHGbY+t+M/v4MgO8kQTKg583RhHgAEACkASAVsHhQGx7ADgBeBmTGAyQCAJXRGBkQRT2ACQD4HDGDBJwMAK4P4AIAlAF0D9jYMdg/sMCd9F9Z1af862mfjZf15pX697wI9ADIk0FjjrbdQ3r2H0V/Hwas31Y6dhJaTxZkQBgeAASAuRKYHPuT/fQwgHt9ABcAeBmQDQ+QCwAuBoS+PoAJAIQBfM3HAHg9ABLm9IVgxT5XA80LyrX0e6rAngM/VGb40z6VmWraB0V/RgZ4gsG6uHlwz4EfcBSmdz4/O28L/RgDXgsCOBhwb0nf4yh2D4ADANcAyE7teAAvAHgZkAEPkA4AxIA33iqz7BkXrgdwAECKBwTmggQAwOkB+daB9z6EZlc8g++lvgU97UOGftyX5AH4tBnPvwB5cc+BH7wB4FUPWL+tBJ9Xiv+Ue0v60jZWBsj1ADgArFhPjv3JfqY9QAAAvAxIuweEAQD0y6MzIBnzgjgAIO4BkDViYgCAMgBLwKbOq/0DoIW1OPyRneXl6k4POOK7O2AGWEN++0e2dJWAW/8PXr3rTP5gA/DJBeXbhk59MUP+R0H6fAywMcNzkg/4IhwA5MDf0bfYkB4GsM4LEgMALwNS7QEQAIzfWuJbHaqfGcnAgLA8gBsAUjyAUg8QBgCUAbmW/pcPXgNuquwZE8dvLe058EOuxcj4u+M+ecUe0P0CPd4uwlEVgBds9dMoHRHf/daVC2poK8ENAz+KxcXVp3tG49ovCAgAfTM4crBP6aeHAUz1AGEA8DIgvR4AAcDo6OJDGy5SzgPBvyfuzpH3x1gYEEo9gBsA4h5ArwfIAEAwA+o3Xv7oaIW73qtp2tmv5h7eUa33krHerw9mgAMPhbZBIKWmKvrW/+jQed8skI8H8DHg9oLOANu4npz7D+mDh/wN9juBANi2ZyQQANn2ABkA4GVASj0ACIC6/Ln6wnn4uawkCXQGxLpfkCAApHiAZz1AEgBoDNjSVZKQ9vEL9JTrYAaQBsC29X912iifB3AMaG4vrHYdiMED4ACw4jtl+I+/lDkPWPPA2tMP1Mlo675wDuo5ruTOPODT1ubOMLT6f67lbXX5c+Zn8+fWejU4AEQY8N6H4zF6gCAAxD3Arx4gDwDeDNj7Uun2Amg3BRLYuD9+a2nnC8Pe9V5K6MdfAjMAeUB+82B55C7+0ymde0vapk7jJHoBBhQevcp02gH6+8zNrzy5vxyxB8ABEGgA6AaLE+lhAKQeYAAgVgakzgOYAIAYwJFC1TTtT38Zj2udsBQASPEARz1AKgCcDHh879V7tL0vKQFW/9KX5+cf3jGQw9GcrwNmQH7z4L5XbwT8napfPn5qGiV/HK+suaDCo1c5ilvTs/c5GCAyLwgOACuy42F+YCc9DAisB6z56drPdAmIlQFOdfCRgAeYJCB3hlsC1tb/k+IBrABADOCYSmEygKEmLK0eIAUA4h7grgfIBoCNAdyZn+Vl7fA7E/rcoWrjlwCWNWLA8Tja+t8R+vFbDgb0fsdw6hliUGXmvn78ACTv73ePPcvvSPo73sIBADSArHqADoAkMCBFHgAEgL7ZJ9kaL/z9VKU6IGP4/4+OVnINZ810UFTnCUsEgBQPwPWAEABgMuDXz3zP8K9C3Do6tvTEvmvrf9VnLCSOjgGP770KLFNf6lvA4d6zw8qApseGImMAnwfAAcBjAEgRMuEBJgCSwIC0eAAcAA4G1BfOAwMrEV707tHjEyw1YQkeAPx7Ftv6XcN8tBiY8sq5VwRiQDgA0Blw6PfQdAr5r2OmfWwnz0TEAPgy3f2vj3nGffJiNAyYmIrIA+AAYDKA7HmAkQKqO608IDhfVC0IMwHAwYC6hgvH/z5BRhBg/9inkywMEF0fIB0AUjxgXXNvaADoO/L+GHBAjf7J9LTPH0bx9kF47Vg0HvBw+/cMW/+3DugTh4IaKwOKHdeulEAlaPKHfPzW0pbu62GvD4ADgN8AMuEBlgEkhAHJ9wBWALgZcPQ4DwOOn2RigJAHMACgQBnsU77E7AGoHhAWAFouHzw0RMYpSP+9D8fx3kGYBNVOuB5w5H3oye/61v+tA4HRH93AwYDBq8wMGLx6V9+P2i/XD7keVA+AA4DDALLkAZYBPKA8ADJzNH+OAwAeDDh2k2m8ieLR309V6gvnI6gHsAEAzABxDwgLAMW+jR2DHP8iHx2tkGN/sp9rCYsB+c2DgYc1oh8Yc+t/NLMoyAC4GVAavgfhJXnPG0cmOQAArwdEAAAbOVJbD3AagPIAv1wQnhfEBwA3A/i2GDv1xQwLAzg9gBkAYAbYawbMHhAeAHLFPr6ZWqe+mMm3DlQH/t5nyEicG5pvHeh5c5QMppS+zidyXmk4DNjUeXW4zOYBvd/d4QCA8yP+HsAAgO3DtlAeOAfUfoOVQUoPA8j1ASYA0PAfS0ASasKJnRfEDQA3A/70F55tJk0GoKXC4cwL4gEAmAEiHhAqAIrbL4+O8SwEOPvVXGHLZZwOCtsDgNNVl5e1tt1Djh2EQsoFbeq8yrRd9tz8ijOaQzI/xj0QD2AAwI6yPoXUHtY536aHAXh9gIcBYAyo9QEOG0ASIAIAJwPy5/g84Mvz8/VNl8C5IGYP4AQAmAHcHgAFQLP7PADQlS1dJT4G9H53p9A2GIEHPLm/TBnyk1/6/Oy8bfiPVUC2B3CcHnNvSWM9R94XGF4ewAAA/HEBBqTXA2wAwKEfJYKUBzgAgN4KAsDJgIYL8IIe+et99qs5PRcUjgfwAwDMAD4PYAAALwMe3jHAkdTWNG3w6t2NHToDSANAfYn1AHieas+BHxzDf7SJkE4FeQxoemwIuB6N/OkdLt9dv60kwgC6BzAAABkAwoAAAyxpSJUH2ABgFgCMajCGgfIABwbEAeBgQK7h7OE/QLO65G/Rpb6FhzZcDMMDhAAAZgCHB7ABgI8BLf2FLZeBaRbyn0PTtNGxpS1dpfA8YFPnVfjW/57Df7kM2NJV4oDlyqr20dEKAoAIA2xOgAfyRocBAPYPWnGcHQZp9AAPAODhP+7EzoBE1QOkAMDBgLr8uTfegqo9GXR6v7vDwgDo+gBRAIAZwOoBzADgY0Cx76HWPr6dXKcq9x/fezUkD/jg4ynyX5/S17f+R9P/7a+ICiYGxDzgyf3liSmeYzLn5lc2dZUxAEQY4OcBDAAgDaD2PMADAGjsT74mIReUnPUBsgDgYECu4ewbb5U5ZiIyMgBUD5AAADADmDyABwB8DGjpX/8rznlBc/MrO18Ylu4BhbbB6VlQwK3M3LdG+jj1b3Sc13kZ0PPmKHAlmoNSy8va/tfHyOgvmAvy9AAGADgMQJgB6fIADwDggb+jozxAVg2A3GXasV8Qnwf0DzDlgoI9AA6AusLFdYWvfVsTZS2Y9SW4B0ABUOzLNdubxzHxgLJwSz/fqr3FxdV9r95ADCBLAsYVzvUB8M0q3vtQH/7jhoI+GfptV9gZcOTPUxwjFU3Tbi+sekZ/QQa4PYABAG4DEGaAlUdKfD3AFwCkAah6AFkGkGgAiAQ2BuTPHTw0xPHb9a/SnaaN0uoBcAD4hn5MBRgDgB4ABMAvmr9xAoDPA4r6Fm98VfrlZa3nTWuvCBIGfDVh4Fx7c+t/AgCYBDgpRF7R+2AGNLSV4HsQCq7DrQAAIABJREFUOcb+E1P6ptDusT95xTacB08MdX5q+zADADwNQJgBafEAXwA4hv/4rfIA6QBw5ILqGi68fPAaPwNkzAuCAyDAABAGYAyAeAAQAPopAg4DQG/5PKDYd/gPoxz/Iiur5n5BLgnoZ2UA29b/XtHfzwDM6wAG8E34QRi4UrrryPuTcZ/sO6M5GAOkBzAAwM8AhBmQCg8IAIDyAHLsH0YKCKeDSA/42YP/9/LBa8D5HuQ4a7h8p3nLt+LzguAACDYAFgYEegAcANIZ0PPmKMe/CJrxgusBdhIw5ILgxzE+se+ac4BP8IDEgPM2KgPadg8BTx8jfyBR/8vz802PDeWN4+bJWO/X52YA/iADACgGIMyA5HtAAADwwN/RqWUPCMMAPHJBhgdwRBxGBnjXA+AAABkACwPoHgAHANo+Wq4H7DnwA1/l89ink9UFATx7RbTthmYF9a3/iXDv1ydrAGTfLxfU9eIIsP7sjv7HTk6j0I9f/eI+eR2HctYO8gCZAMj0OmEQAJQHkB4QHgAcuaCfrz+z96USxyGF5ZG7gh4ABwDUAFgYQPEAOADQqcJyPeDBYt8T+67Nza+4wxz9ysqqhrYMIg2gioRgDzj2D+hRQvrW/1QA0AwAfdDlAa8cHuf4IdQ0DR2UhuM+2SFjvV+fNfST90sGgBgDkuwBIAA4hv/4bW16QKgAcDAg13CWjwGjo4s6A3jrAXAAMBgACwP8PIAJAPgcMbke8Pjeq8DNOB1UwFsG4YxQtUNjQKFtEHhO/ejYkr7zM6CRo353n/QA1mMS8H/y3PzKvldvkEHf0feL++R1MqYz9eUDQIwBia0HMABAeQBbDaD+nzi/z9px1AP2vlTiyDyM31p6ZPs3fPUAOADYDICFAZ4ewAQAfKC8XA/IFfv0LYNGF3Gwg3fQlkFMHgCfg6SfSwyI/pB78q0DDW0l+LYTjicwfmtJPwHYSPpTXslY79dnivv45lAAIMaAZHoAAwDwwN/RqTUPgBoAOl2geo6YCAPq8ue69w3wM4DdA4AAaN7yLQ8AwGvE3B7ACgCUCAqjHiCyZVCLsWVQdfiPqwIeHpBvHQBuTnd7YfXhHQP6YfRgBrjH/vjKw+3fc5z6izDQP3h3U+dV82yZmBgQFgDEGJBAD1jz0wdOOQI6/a3yADYASPKAtQYDgKkAcjg2MXWfwwPgAGBOASEJADPA4QGsAEDniMmvB7T054p9glsGQTyAbev/jZd1ALAwwJMWIhN+Pj87r5/2tXnQanEwIEQAiDEgaR5gAICRAZ6EqB0PYAaAJAbUNVzo3jfAUYGcmLq/4wn43FB9XhAcAOuavg6bAaQHsALACv3FPtMGpK4PKGy5DJ+gSYL5g4+nXAaAVMDmAcBh+MqqtqWrpBcA2BmAR/1omdieAz9w/Ixpmrayqn3w8ZSe8CGjP+pHzoBwASDGgER5QBUAjAyoZQ9gAgA+R4w1BYTvJ+sBa+v/2dF9hWNC3lSFjQFwANQVLqIWai4IewA3AMKrB9RvvPz3U9BZOogB+nEOG/UDZOh7xj2x7xrJDEoffUMr+nN5QL51gHvCz70l7bW3xz1CP4ZBtAwIHQBiDEiOB1RTQA+cYs0F1awHMAGAnD+KYzprh2RAXcOFHU98yzFGm541GNBobBcRdI7Y8b+Djq3XJxpVARCNBwABoEtDc69nk18PMOL4R0ehDLjUt0AeH0bxAHgNVt/6H4/9yQ5LPeCDjzl3+EETfupxrPfrRMiAKAAgxoCEeEDVANZ+pgNAeUDuzFq/Vj0yngMAMj2gQU/R7HjiWw4PmJ6939F9BTIviA8AYTNgXdPXQAB4h/5mMwsURi4o19IPOdxt8OpdFP1x3HdXAtCVlo5B4Oz7wat3vaM/iwdw7/BTHrmrHzxZXT1Ak4DNg5QZQehLfnOByOt4qg+lExEAxBiQBA+wGwA7A2rQAzgAIN8DDAZMVUCbA5Opg7n5FQgDGADQaKaAsAqEmgsCAoBiAOHlgnIt/fQtg0bHltBEHUf0x2/JDtvW/+So390HeMCeAz8AeUP+OPUPLGzqvIqjP+okgQHRAUCMAbF7gN0AlAf4Df/x9fp/cgNApgfkz9U1XHhk+zccDLi9sBrIADYARMgAIAA8DYC8GNIasQeLfX5bBk3P3m/bPUSGeNT3NIB86wDwjPXp2fuFLdXJP+7Qj68AGPDa2+NkcA/sn/hstqGt5Ij+CWFApAAQY0C8HlAFABr7k69rP/Mc3cMvZnVeEDcAwvCAR7Z/w3Eq0+Liave+AUouiBkAUTEACAC6AWASyK8HGNtHv3zwmmPRxu2F1c5nSw8aX3UzwH2Fbev/jcTkHxzx3R0AA4CVDDThxzP044vxegAcAPnAzeCAN7AfIWkN//FnIz8/oAoANPYnX1U9AI/67R1BAIThAcC1QuSY7t6SRmEADwAiYQAQADjE+3XCWh9Q3W565wvDuFC/vKztOfCDO8rjK24JAB60e29J29gxSCsAODAQxIB860DgQZhowg8O9JROjAxgAEDbUBIYEJcHVAFAjv3JvvIAe/RfmzsjCAD5HmDkgjh2JlhcXN37UsnTAzgBED4DgAAAGkCI9YBiH9oyaGVVPxYGPvbPtfTvOfADiWpK/8RnswzRH8EgiAGFtsHBq3f9/tDp2fv6jCOWM2RoGAhtXhAbAJLBAEsIIvQAOwBIA1D1AFfoRxOEpAAgFA9g353GjwH8AAiZAUAArGvq1ZvPTFDH9fDqAVu6SvqhYMV+vRmzRf1eSQkIHIPj6Kxv/e8Y40PeBjFgS1fJs7Y0XNYn/KCFYwlnABwAaPtofUIRMNUTeBvO57B3ovcAOwDIsT/ZVx5AwEAKAMLwgA2tlyB/Nxw+UGd5Wdv7Uqm+cF5Xger6ACEAhMkAIAB0A2BhAFYBufuGPljsM8f+AAYgNmzpKgGPHuv97g5P9Id5wM4Xhh1ljEt9Cw+3f4+3jjAxUJ39SUkExbI+ADirddueETSX1MRAYHAH3sAe+q3hP/5sJB7gBQDlAUS4dy8LgATZ0dFFW4ivriFwXJTuAToDhhccIT7w7fKy9vLBa2QuSBQAoTEACAAz+sMYEGI9wNgyKKcXBgwJCPKAXMtl+Bn0Lx/kGv5jRQjygJ43rVMwj5+aXr+thKK/ZQDoOySSAXAAWAaAzp4EhvjA23AcZ+9E6QFeACDH/mRfeYABBkiEBQLAxgMp+4Y2XEAMAI4iMRuWl7WDh4b00wgMD5AAgHAYAASAZQAwBqCkUEi5IAMAIAYUtlwG7vc3fmupvnUgh6M5XyeIAWht8AcfTzkH/q0D5A5C9OE//iqtGCB7jRgcAKQB1KAH+ANAeYCPB0gHgHQPaNp4ERIocfRHHdID5AAgBAZA/rumKvdtBpASBtRvvHz4D6OOfxS/t4ffmchtNLeN408EBe0bmm8deHJ/2THwdxpAIj2AFQDORcWBA3zgDezDf5wLisYD/AFAjv3Jfs17gHQAhOEBD2242D/AnAtaWdU9oK7hAgsALtQ1XqQ1YrMg8b0igABwGgALA0KqBwR6QP3Gy8DpvLcXVovbL+dabPuG8mMgyAPw8B9tF0ryILEewAcAZAA15QFBAFAe4PKAkAAg3wNaLnAwQNO0N94qMwIgOgYAAVDdPdSYC4SiP4wBIdYDqksE/OoBLx+E7v159PhEdTZRdAzAA3/cIcFg9hNTD+ADQA16QBAAyLE/2a9hDwgJAInyAOCZt+axw+bcoSg8AAgAwwC+NjDAzIC46gGX+kDGhrb+x/tIx+IBWAVIAzDBkAwGiACgpjwABgDlAYQHhAoAyR7QeKG+cB4YWfzSzZTrVQBcrM4fDZ0BQABUDSA1DHh871Vg3f7sV3PV4T9eWxCdB+DQ7zH8x6mkBDAACIAt3dedo340F4h8Bab7A29LZD0ABgBy7E/2a9IDQgVAGB5QXzjPd2oVJfSjL1UBYC0goBUDZNSEgQBABiDuAZHVA+BHyqBdJciFYwYPImUAxoDbABLiAXAANLSVPBlQIx7AAgDlAaFOAyXWCsj1gFzD2Yc2XAyDAXYAROEBQABgAxBhQGT1gId3DAC3Yh4u61v/OwygeiVqBtAkIO69IuAA8Iz+HhcDB/jAGxLmASwAIMf+ZL/GPABqALkztuE8Ed/ZrktaH1BfOA/fYyBw7O9vAMgGwsoFsQIAkaCKgYTWAyAnyaAHfuj3N1D0dxmAx3nCEcwL8jOA2D0ADgA/A0AMyLwHsAOg5j2AAQBiDJDuAbmGs5+fnQcGd8htdgPAoR93/DHAOzeUFQDV0I+KAV8nbn1AS//6X/V5brzjfv6VGX3rf8fwH1eDlQfgU8PybUNwAHgM9skCgKMPHOYH3pYYD1jz058aJ0GSI3q+fs14ABsAxBhguYI8D4CfNOuOQY4rXgAItx7ACgDSAKow4PSAkOoB8GNY3vtw3D38r8Z9XBDuj35eUAI9AA4AugFk3gMMAHAwoIY9gBkAYgyQ6wF1+XP1hfPwkqMj4jve+gMgrHoAHwBwSaDaYWZAePUAyH+RpmnLy/rW/+7hv8MAqjyo9XoAHABsBoCEIHCAD7whAR5QBQAHAzxFoQY8gAcAYgyQ7gF1jRekMMAfAGF5ACRcGltB4JyP1UEGIOgBcvcL2vtSycFUv7cnPpt1HCrgUwbAKhA1AxLlAXAAQAwgwx5AAICDATXpAZwAEGOAZA9ouJBrOHv85KRfuAFeDwKAfA8QAUB1+I+RwOwB0teIwcvyT+y75jn89zQA5QFAAOjHGziy/PC3wGF+4G2xeoAdABwMqD0P4AeAGAPke0DDBUEGBAFAvgeIA0CKB0ipBzy8Y2B5GYTa/oEFevT3+2rN1gOAANjSfR1uAJn0ABcAOBhQYx4gBAAxBsj1gCbezYJw0IIBQKYHiANA3AMk1gO2dJWOHp9wHL2CHy/uvHzQd/hPMYBa9gAgAIQMIBP1AC8AcDCgljxAFABiDJDlAU0bebYLxSEJdXQAEOeIVTeEIAf+jr7/xFDYOmFZAJDiAbLqAYUt+kbQE1P3HY8XvdW3/je2+/cf5uO8v1+n5uoBQABwGEDGPMAHABwMqBkPkAAAMQaIewDfgQHu8GQCAMQAOR4gCwDiHiCzHmAcF7z+V309b446NnBdWdWOvD9GD/1kNdivH30uKN51wkAASDCAlHuAPwA4GFAbHiAHAGIMEPGApo0XIf8J7nDvvmIBAMQAbAP8HiAXAFI8QEo9oHpaQF+u2LfzheHPz86jveEWF42t/4t+Q3um6zXkAUAAcBtAZjyACgAOBtSAB0Cip34kJLGBqG+fe3+I+n/yeQDfwfHu0I+u2AAAYoCoB0ABUMBTfZg6zPOCJNYDMAPQUfJbukrHPp386GjF7/wAhxb4jf3J67XjAXAAoPXD/HOByFlDgRN+gDdEOC8oCAAcDMi6B8gEQLQesKH10ujool8057juBACIAUIeAAVA09frwAyQ4gGy6gEYA/YO8Ex5iBDUhAfAAdDQVhJkQKr3CwIAgIMBmfYAyQAQYwDcAx7Z/o3c6K9pmgcAQAzg9wAoAAoGAMAMsJcEmD1AZj3AOjhMTwcRDcQAcrzv168FD4ADAO8gtH6b977QzHIAHOYH3haJB6z5yU9P6tsBBTbPcT3rxUysE5YPADEGQOoBYUR/XwCAGMDpAVAAIANAGGgCZYGkeID0egABgD5gLsiRGvJ5m3EP4AOACANS6gE6AMJiQEY9AAiAByA1APKecOoBdflzj2z/BnjEI2sWyNsAGi7A5obyeAAUANgAWBgg6AFh1APsAIAywG/sT17PtgdwA0CEATZXCBzgA28I2QNMAITFAE9FSLkHwAEQJQP8POCR7d8Adxtmjf40A4AygNkDoAAgDYCFAVI8QNUD/OaARrZfEBAAaBoomQWqtXqABYCwGJA5D2ACQJQMcNcDdjzxLUf0n5tfccxG92MDzQCgDGDzACgAHAbAwgBBD1D1AL/oD7ou6TxhOADc0V+QAenyABsAwmJAtjyAFQBRMoD0gB1PfDs967241C+ga5o2N7/S0X3l+N8nKPfgL21ovaRne+itEQ/zAzvB6wOgAHAbAAsDpHiAqgf4RfwIPAAOgHzbkHQGpKge4ARAWAzIkAdwACBKBiAPEIn+P19/RiYAQDVhqAdAAFCZua/PAfVrsJqwoAeoeoBf9AddF/YAOAD8on+NeIAHAMJiQFY8gA8AUTJgxxPfzs2v4HE6sFOZub/jiW91h8ifkwwAEAOwH9A8AAKAqcr9usJFPYKLMUCKB6h6gF/ED9UD4ACgGIAgA1LhAd4ACIsBmfAAbgBEwICfPfh/Hd1Xbi+sAoM+vm2qYkT/6sGT8gEAYkCgB1yAAEA3AEr0Z8kFCXqAqgf4RX/QdQEPgAOAbgCCDEh+PcAXAGExIP0eIAKAsBnQvW8gcG9hHPRxZ/zW0iPbv1lbjf6hGAC0JhzgARAATM/e7+i+4mi/fuZ7xxXy7a+f+T681vlsKZr2xL5rEbSdLwzLak/uL8tqXS+OPLm/jF6f3F8GnrSjzwLa6lsDINlgC+Xk9g9B/YR7AA0AYTEg5R4gCICwGJA7071vgGPsj6J/XcOFKAAg6gEgA8BgUx31BOhPwABAKb/V3A2CjPjuPjcDbB8ETv8PvE3S+oAAAITFgDR7ABQA6754IHfGr/luD0cuDcN9wBoxvrH/6Jg59tdLx0QLJQWEJwsJzAuCGAD9d159VT0B/ASQAeS3hs6AxHrAmp/8RF8JTG/BG0XU0n5BDACIhAE/e/D/uvdBDxfEP/qapo2OLjoyP5gB4QKA3wOUAZD/gKov+gSwAUTAgGR6gAGAuBiQTg9gA0D4DNj7Ugl4tCz561Ieubuh9RKO+I5O6AAAMcCjHqAMgPxHVH3BJ0AaQAQMSKAHrPnJTz7VJSAuBqSwHgAHwNrcmQfWfaG3cHJBdbnTLx+8xhH9h8t3KNE/xCIwzgJBa8KOeUHKAAQjnvq47Qk4DCACBiTNAxAAYmVA2jwADgAz+ofGgJCif3QAYPcAZQC2AKbeiD0BTwCEXRNOlAdgAMTKgFR5ABwAyADC8IAH1n1x8NAQx9j/X6U7TS0X0GovR9qHfBtFCgjbQHBN2PCAgv7a+90dsV959Wn1BKwnsKnzKhr1u1/ds4DcV2zD+aD5oL43B074Ad7ANS/IAMBPTxqJoFgZkB4PgAPAZgBSPeDgoSF0Zqz1swzo9Q8smNEfTSsipv2Q0T9SA4Dmgox6QOHi309VAP+h6hb1BIKfwO2FVX3zZ2MKkOerO+K7r/iG9SAeJMQDqgaQBAakxAPgACANQJYH/OzB/+OO/g9tuIh2i3PvG8oPgPy5gM3g8Eif3gn2AJ0BBw8NBf9mqzvUEwA8gc/PznvGffKiO+K7r3AzwPZB4DA/8DZGD6gCQC8Ff6pPBo23JpwGD4ADwMMAhD3gjbfKgJ9t5y29392pL5z/2YP/97MH/8/aMdTfAxhSQPlzdREyoL7p0nBZZYGc/77qPesTWF7Wdr4wnN88SIZ7z7474ruv2EJ50NifvDl2D6gCwDIAgwRqXlDd6Qd8GisAZHlAXe704T+Msv6g//vYlkt9Cyj6O0I/xQOYARAdAy7ybXXH8dzURzL8BA6/M6FHf9T8s0AICe6I775ChnX+fuAAH3gD2APsNQCEAeUBPqEfIYEVALI8gC/6n/1q7ufrz/x8/RlH9He+tdcDeAAQLQOAR9ZkOISp/zS+J1CZuf/K4XE9+48BUMMeUDUAlAJyvqr1AR4ewAcAEQ+oy50+8v4Yx4/72a/mPMf+ZPT39AA4ANaiFBB+pSf6gV8NrgfoM4K69w0ceX/s6PGJY59OZqH9o3JMuB0/WRFpx05Oszb/P276+Mmgdmr6eITto6OVVw6PFx69agv9GAM16QGEAZDDfysjFB8DkloP4AOAiAdwR3994J8LGvuTGw1VPYAJADExwGOdcF2j6yyBwsU6ovmeEOB3ckDke0ejHaT108Sa+zxasc91TDzTlf5c0Wgt/TnRdlk/Yt5o9Rv1PmdrHQBtDR14m8De0RYPYmVALPUAfwNIAgMSOS9IBACsHlCXO/3eh+McY/8vz88Hp32I0O/wAFYAxMQAxzphV/RHPCAAoB8UQ4/1fl8FnCNmP0Dm63VNvc7W3Ivju2cHnSOWhDNk9ODe0k9/zbWYAMhxR3/0wcDgbtwQcIBM60B9+hlgKx4A0/2Bt1HrAQQASAPAuSATA8oDrFyQCACYPGBt7syf/sIT/U99McM89idgwLQOgJw/qk8Hwg2Y7aHfFpwLSqgHIBg4AdAUAACSCggDHhLQzDTk97xZpgcgCYiGARRXQHjIAAMi9gACAI6gbxmAmhdkRf8H6k6LAwDkAeu+OHrsJsfY/++nKtzRH3sAhwEgElgAiLAmXGdywscA4vAA4igxTg/AMIiRAXQDQF9NiAdYbFAe4OkEPh7gBQBMArwyQHkAMS9IHACBHrA2d+bosZsca33N6E8O57n63ACIKReUOA+wp4OYGYCifxJyQbBSQaS5ICvWE7kjMkGkPKABzAAHAIyFYJ65IJMK8eWCElMPkAUAPw9YmzsDjL8OPzh6fEJf54WOkeGK+2vr/4kkAPgX8NtSVHkAYQBfG/0UMyAVHuCkgvIAGAMcAEDZHuKVhIHyAMMDZAHA0wP4o/+xm1b0F2PA2vp/AgHQtPEiWQMg+3EwIJseoM8IKvalYl5QjPUA0gBUPcDbABAS7LkgTwAQHkCmg6x+TXuAdABgFfh3h2Ozs5VV7eixm95nTPJ6gDgAYsoFJWtekLgHoHlBqh7gHOC75gV53pCBXFDY84I8AUA1gJr3ACgA6k57jvH9Lv58/ZlTX8w4sjqQt3/6y7h39BfwACkAiIkB2fQAVQ/wDvHVMoDbAJQHQDyAAgC8RzTBA0sCYt07OtZ6QCAAVlb143b9Ar37el3udFjRn5cBsgAQEwOy5gHJqQknth5Aw4OqB/jXAygAqMZ9dxnAlIBYGRDfOuFAAKDz1vWNg9Den0GvP19/5svz85DBvuOe9z4cr8udpg3/EQCYFgMbWSOJAIiJAdn0AFUP8Av0fgagPIDuAQAA2Eb9diroX6q5ekAgAEwDAAAAjf3PfjXniOyQt0feHwOFfi4GyAVATAzImgeoeoBf9AddVx7g5QFrfvL/qjHdM9Dji6QHOC7GyIA4PCAQAJYBBDEg13CWI/qvrGpvvFWuy+mGERIDpAMgJgZk0wNUPcAv4isPoI33fQEAZACK+54kiJEBkdcDAgFgGQBaPuaVAkJj/0t9C5DBvuMeFP31uUNGC4MBYQAgJgZkzQNUPcAv+oOuKw+wY8AwgP/3KdQD8NjfAwbx5YKi9YBAANgMwIcB9YXzHDva47E/jv4hMSAkAMTEgGx6gKoH+EV85QFwDyAAEOwBxPoAqw5MZpDiY0CEHhAIAKcB2BmAxv580f/goSFU9dXLy1UDCIMB4QEgJgZkzQNUPcAv+oOuKw+oesCan/y/E/rwHzfHGJ/+lkwHmUiIjwFReUAgADwMgGAA99j/5YPXUN7fEfrxW4m5oFABEBMDsukBqh7gF/GVB0A8AAGAiQGEB3jjIT4GROIBgQDwNoC60z9d+1lTy4XAjzsy/pqmraxqVvR3jf0xAB7AE36AHf91wmEDICYGZM0DVD3AL/qDrisP2D6MAcDEgGrax20ANeABkAiuLwRDo37iFUV/1j0+l5e1vS+VzLE/rifb8z/SGcAAgPp/klsAMfXVfkHrmr6Wsm+oqgf4RXzlAXQPIAHAxIDaXSccCABPAxCM/jj1jzYOctcA5DKADQApY0DWPEDVA/yiP+h6bXuAAwBMDDA8wFcCYl0jFmY9IBAA7hpAU8uF0dFF1rH/vSVz7O8c/ofvAcwASBkDVD3A86Qw+sUUnyOmPMDPA9wAYGeAuxJgJoJiZUBo9YBAAJAGUJc7jaK/O7NPv7K4uNq9b+CButOO6I8MIGwPYAIAPkeMKf9D3hxHLihrHqDqAaDx/v9v73xe5DiuOL5/TTBCLMOyLMMgD8vKCCEksYg1xGax8MF/Sk455JxLjrkFsQjhgxBCWRx7s5LjRREyCLOYIOMYCYIUycFIVuiururX3fXjVVdPVU3PF5qhp3Z00OV9+vO+9arl4XHtH6+qB2gB4M8A6gGKByPNA5wAoAZwZe/+06c/22t996+i+hel3zVLvKBekBcApjRM3vmSVnb+fQoGjNMDkAe0i7ss+vCArgeYAODPAFH3tSQY15ywEwDCADand/avH//40y/d+m5f+e+r6tlfW/2pASzOA3oAAB5w7uID23VJvBrM69P7PWLIA0zVn7W+eh5gAUBfBrQMYHQe4ASAMIAP97/uUf1fvHz7yWffcJ/9VRgw9N7QHgCAB9iqv2ADjwGD7AvCfICp4sMDqAfYAeDFADIfUBV9uVu0QsJI5gM4AHjx8u2z52/sT/rdvxbV/9MHraa/9kzpRXtAbwDAAxwY4DGg+Soxbw9AHmCq/qz1VfIAJwC8GNCs+LQdNCIP4ACgW9ydK/zqr0VCtTjQfEBvAMADHAC4yG0BDeIByANMFR8eIDyAAwAvBhAPUL2gxs3Se8AiAPD8P2/2rx/bKjvt9sj7xXlAIADgAQ4MRPEA5AGm6s9aXw0PYALAiwHSA7oGMAoPGBwAz56X1Z+cF+RLgvbvgz0gEADwAAcA4noA8gBTxYcH8AHgxYAxzwkPC4Bnz998uP9149wI+YDfLuuG9UV4ABcAu0eNWk/3g25/AQ9wYCCKByAPMFV/1vrYPcALAF4MGO2c8IAA+PGnX67s3a/2/JBTg5il3/GzAA8YBAANNmA+QLtJlMcA5AHb1x55X3L7v7PQr7IH+ALAnwGNAIBQoVhfyjxgKACI6t949g9gwLAeMCAA4AE5eADyACcGbD8Yrwf0AIA/A2iUq8fxAAAUTklEQVQYoHiwtHnAIAB4+vTnS7tHs3l50gOt+/Te0PNxPPi3/lUvDxgQAPAABwCQB+w+nGuuR/Nr1eX97E91AR7w8Xc75fXB/unOx9+Jz53mC2Fula+F8frs9Q4ZLQmWzQPCAXD6/WtR/Y2P/woDrWru+jqUBwwOAHiAAwO8XhDmA/rAgM0AmwTsPd4eowf0MwCBil4MaBnAEnpAIABE9d+c3nFXf4EBV9FnCYGnBwwOAHiAAwBxPQDzAaZav2p5wNqkeCVk74vPADIfUBV9uVu0QsLS5AEhADg9fXVp94hb+tN5wIIAAA9wYCCKByAPMFV/1vq4PGBtsn4rFgOaFZ+2g5bKA3oD4Nsnr7cvfrW5ddsbAJwzQTmiwPaABQEAHuAAQFwPwHyAqeKvjgeUAIjHAOIBqhfUuFkCD+gHgG+fvH7//KFmx6d6zHfecEo8+U1IHrBQAMADHBiI4gGYDzBVf9b6WDxAAiAeA6QHdA1gSTygBwAePn4VWv3j5gELBQA8wAGAuB6APMBU8VfBAwgA4jFgueeEfQEgqv/m9M5sftcj+zUJAXnG58S/PTxg69xhBADAAxwYiOIByANM1Z+1vvwe0ARAPAaQibCuChRNoXS9INf7hL0AcP/kldjsX7T+p+UbvkyVnb/uyQA9J6x5QAQAwAMcAIjrAcgDTBV/3B6wNlm/WeTA9Oq/Kch/RqwRABAqpGWA9X3CfADcPyk6P5vTO+LBn372yYEpITwZ4OcBXgYwP2yU8uZxQM4/wQMcGIjiAcgDTNWftb7MHiAAkJQB1AAUDzLOA5gA+NvfXxQ9H7HnZ1o3fwboAgkSeDLAywNu3Py38wUG7969u7R7NJ0fFpdn3df/HucF4bwgzUgw5oSf7Py2uM5/5L7E0C//UwEgKQNE3deSIGEvyOABHAA8e/5GVX/64E/vQyXAf28o0wOm80NvAIQxAB6QgwcgD2A975vmipfTAwoAbExulY2gDBjQMoAsPYADgBcv3944+GF5r9PvX/sZADzgwvHMdF08npHLUeu1EoA8QG8GOC9I7wT9DOBmujyAzAdURV/uFq2QkC4T7ngABwCc6jmC39QtIAEAeEAGDMB5QTgv6PxHT5gMqA0gLw+g7aDMPAAAUOjSACCMAXU2gDxAqwK8TBjvD1goA8a0L4hmAMIA8vAA1Qtq3GThAQCAAwBhDEAe4OgR8RgQ6AHIA1YkD6gBIAwgFw/oGkA2HgAAuAEQxgB4wCAMGMQDMB9gIsE4PKAGgMyB8/CAxoN/XnkAAMACQBgD4AGDMCDQAzAfYKr+rPVl2BfUBkBGHmCUgMRzwgAAFwBhDIAHDMKAQTwA5wWZKv6ye0AbANl4QOupX36tGkEpGfCPf7K2SKoqOdabt7++e/98OQWmtgBpbwJmxOABgzAg0AOQB5iqP2s9bw/QAyBTD1B9oaR5wI2DH97+Otaq7vH/Oj19VY0Ba+s+XQxgADxgEAYM4gHIA0wVf3k9QA+AHD2AdoQUCVLMCe9fP/Yok+P96R/++JQLgLBeEDxgEAYEegDyAFP1Z63n6gE2AGTkAXXFL3tBDRgk2BvKPCxzvMX/3elpcc6dBwDCGAAPGIQBg3gA8gBTxV9GD7ABIBsPyG5OeDa/+9evXo64vtv/a9//639X9u5vlQdKR2MAPGAQBgR6APIAU/VnrefnAW4A5OgB1ADS5QG/+/13q7Yj6NnzN3/684/i7WbF0XJxGQAPGIQBg3gA8gBTxV8uD3ADIEcPaHWEqq8JekGbW7ffP3+4f/14Edcnnz5IeX32zSf0+vTBlb374uU2s/ldVf0jMwAeMAgDAj0AeYCp+rPWc/IALgDy8oCuAaTzgOJ9L9qXiG3drv5UvhBGvBam+7k1q18VoO7rU6PliwQGeIsA4/0B03n52nrxSX5frZ+7J8q99jNaLwgeMAgDBvEA5AGmir8sHrA2OUtHf73uk7xHLL/3CbeOC1Vf6Y2VAV0qqBWFhAFeHuD//oCtc/fEKwQaL5ORnZ8uBqIxAB4wCAMCPQB5gKn6s9bz8IASAGwGZOQBRglINyOmKj599hf34q2Q4nG+/Cye6OVN/bwvbUCtqJvBSECe6xtl3bpO3yRT/KsMGAAPGIQBg3gA8gBTxc/fAyQA2AzoRAJJPEAOBrfCgKoRlAUDivpuIIF6wGfeDFb9F/8uyS06/8W5D5gRgwcMwoBAD0AeYKr+rPXUHkAAwGZAph6gYJA8DxAqIKs/JUFRysu3BDc+ZYNIFHpBBVX0u18HaAdZn/dNZgAPmH1w5L4uHM24l/klYhcaLxGbXTx21HrtywPivkcMeYCp4ufsAU0AsBmQnQfQjpAiQYo54aJeb90WRb8q/ZIE4k9VQSf9H7Fi/1Q82JreHQAAvfIADRgy6AXBAxxswPsDrj2a7z7cJp/z3djvkjSxoVpP5wEdALAZkJEH1BU/iznhqtCLrUGEB1WJlwZAY4ACFWYPUH8S/yQtA+ABbgn4gC8BR8Y3CYu3S5KXCS+FByAPMNX6PD1ABwA2A/LwgOzmhCsA0NKvJEDe0IpP67v2Xj3+i78WAIAHNMMDeEAOHoA8wFT9WespPGBtcvag2AnavdZZW0Jz9ADaDkqVB4gYgHxWTaEyAxCEKMq6aBaRPUJaAHQXkzMAHgAPEOXe9ClUYH75RHNdPZkHXQ/nV8tr9+E89IrdC8rNAwQAghiQnQe0OkLV1+hzwqT6i4rfmBdTf5Wdn26VVyvUAMR9Dr2gdiSAPEAbEbsD4WMZGueSCQfuC8J8AOt5f++x/mdxPUABIIgBeXlA1wAy8ABqAOLZv67v5YZR1RRSN+oHpht4QD0N0OwIFes7X/a7Zjtf1pe2pvsuuhmgMoNcGID5gO1rj7wvU03vrOfjARQAQQzIyAP0BiBGB5J6QPfECHiAaVagW9DZK8gDkAfQ1hDd/2O6X9l9QS0ABDEgIw8wSkCKGTFS5SsPEI/83ZkAshfI9NTfXYcHwAMcFb87JcDbGzqIB2A+QN/q2Xucgwd0ARDEgDw8IL85YcEAZQDar4wwoHsyhOBBcgYgDxgoE0Ye0CMfZmXCpmd/ur6CHqAFQBADMvUA1RdKmAcoFehMilU7gsqzgOh8QPd537SSnAHYFzQQA5AHLIoBtC9kvl+tfUEmAAQxIDsPoB0hRYL4c8IEAPUxQXIyoKjs4p6hAtgXZGv7kLQAeYCjO8TrBQXuC8J8gKkLxFpf5L4gCwCCGJCRB9QVP4M5YVXlZd2vdgSp0i/mhBkM0KoAPMAGBuwL6oYBOC9IP0mwKh5gB0AQA/LwgPzmhFXpF8eFlsGACIdrLeABAB5gK/fwAG251y5G8QDMB7Ce9zt7Rqt/tRgPcAIgiAE5egBtByXMA9RJQcIJWgagvvJI0LIBeIANDPCAAAYMsi8I5wWZSBB/XxAHAEEMyM4DWh2h6mv0+YCWB5QYaHgAu/TDA2zlHh6gLffaxSgegDzAVP1Z60N7ABMAQQzIywO6BpCDB7R2iKqogI2BlgTkcFYE9gVhX5DppCCKAc1hQZd7bARq/RPW3lDzXiB6ytCY8wA+AIIYkJEH6A0g/ZwwnRHz2hEkSj88AB4wi3h2dOC+IOQBrOf9xecBXgAIYkBGHmCUgKRzwk0JqNpBwSqAPMAGBuQBAb0g5AHehwVde8Sv+3HyAF8ABDEgDw/IdU6YxgCi7tOgmNcLggfYyj3yAG251y4iDyBvEBPTwqOcE16bnDkoXwng9TmK9wdQD1B9obR5gKz7ge0g5AFMDFQ/gwcEMGAQD8B5QSYzWLQHlACIy4DsPEBLgvhzwnJfUB0AKAPw3BUKD2ACAHPCOcwJIw8wVX/Weti+IAmAuAzIKA9Qz/7ipgGD6HtDVcdfwqCdBHiSoKUCyANsYIAHpPYAzAeYKv7iPIAAIC4D8vCA/OaEm12gxmywZ/WHB9jKPfIAbbnXLiIPGG8e0ARAXAbk6AHUANLmAS0JkAeI1g0iXizckgDMBzioAA8IYADygKXbF9QBQFwGZOcBrY5Q9TVFL4i2gyQMelR/eICj4ksVQB6APIDOhdH3BJjuR7AvSAeAuAzIywO6BpDKA2jRpzBQ930NQDgB8gAbGOABqT0AeUCcPMAAgLgMyMgD9AaQaE5YMqCKgltdIPFXHgbgAbZyLyVguv0FPCAHD6AHRRQ7RC+faK6rrbMffL+yzoowPfvT9aX2ADMA4jIgIw8wSkCKOWHJgE1V/dWNKP0+GEAewMRA9TN4QGoPwHzAoj3ACoC4DMjDA7KeE643BSkw8AygavuUr5ykNpBDJoz3CQ90ZhzeJ+wrASfzq6vuAWvrZ24Uw8CW66zXkHDQWRGZeoDqC6XKA2jfnxpALwzAA+AB9Ng4R89HKwFx3yOGPGBxHlAAICsGZOcBtCOkSBB/TlgxQJ4Z154RY6sANQBxDw/QIgF5gIMNmA9Y/vmACgBZMSAjD6grftkaasAgxd5Q1fFvnRIhVaCgApsErV9iX5AWA8gDbBjgMQDzAdnOB1QtIHjARqvWF19znRMmNgAPmM4P3RfZ52Or8rqfwQNsAGD3gvD+gIUywNQjqtbN5wXVBpAbA3L0AGoAyfMA+dRPNwi1Hup7fIUH2AiBfUHaSCCiByAPMNX6fucF1QCYnDnIjQF55AHEAzSWkGJvqDAAUxqs2kSMXhDyAFu5J0IAD8jBAzAfYKr+rHWdB9QAENU/Nwbk5QFdA0jrAVICNI0gHwx0RQEeYAMDPCC1B2A+wFTxfT2gDQB4gC4MkHmA3gASzQmLB3zJgGJEQDmBZ/WHB9jKPTxAW+61i7xeEPKAfPKANgDgAQYAyAExowSk6AWp6q9gQFc8MQAPYGKg+hk8IIABg+wLQh4Q7gF6AMADHBhoqUDVCErKAPn4r2kHMcKAYhQAc8LkYd8CA+QByANGc26oHgDwAAcAqAcoGKTNA2QyXB8X0dotysMAPMBS+jV/ggek9gDkASEeYAMAPMCBgY3PN7QkiD8nTDs/Zd2HB7iHA+aHmoLOkwCcG+qQAMwH7D6kJ4aK+wzPDbUBAB7gBoB6/G/DIN2csDwroniWp2AIiwSwL8hGC3hAag9AHtDPA9bW3yvOArJc8AADBsh8QJ0ByKy4AENKBggDgAfAA2YXjjrX2M4NxXyAqfo710sAuBig8GA7NDTu2dF5zQcID6DtoGzzgL5JgMgG4AHwAHfzp2UDvL2hg+wLQh5gqvim+QAJABcD4AFuD6DtoPo+ugfQtk83D/BpBGFfkK3ck7QA+4IcVOAxAPMB8ecDCABcDIAHGBgg2z5dA8jMA+qOEDxAe4QcqenM0q/5GfKAlgGIrzwGDOIByAP4HtAEgIsB8AADA8o8oH7ql0ioV6J7AEmA67rfOkSahwF4gKbK61ABD8jBA5AHmKq/dr0DABcD4AEGBpRF3ygBiTPh+pQIBQZ6wyNBa0QAeYANDPCA1B6APEBb8bf3HtM8QAcAFwPgATYG1E/90gOqRlAKBtA8QN5XQuATBmBO2FbrmzYAD8jBA+aXT4QKVEJw+WTeva72eIcw/SdjeJ+wAQAuBsADbAygHqB4kEkeoB78JQ9az/W+X+EBNjbAA1J7APIAuweYAeBiADzAxgBR97UkiD8fIGu9evZvpAI+/R/kAbZyT1QAHpCDByAPMFV/tW4FgIsB8AA3A1oGkNYDJAk0E8LiLDkfGFBXgAfYwAAPSO0ByANUxW/duADgYgA8wMCArOeEi9otTw8V97SaO+/hAbZyDw/QlnvtIm9vKOYDFjcfwACAiwHwAAMDZAjcbQel9QAaAygMeGbCWkjAA2xggAcEMADzAQtiAA8ALgbAAwwMIB6gekGNm+jzAbIL1I4B5Lq2smsX4QG2cg8P0JZ77WIUD0Ae0Gr+iK9sALgYAA8wMEB6AA2E6X38TFgYgKz4bRIoP0Ae0JoWJjWdWfo1P4MHBDBgEA9AHkBJ4AMAFwPgAQYG5DcnLKt/8Wgvj49We4S0z/umRXiApsrrUIF9QTnsC8J8AK3+23uPPQHgYgA8wMCArOeEG6WfsqGvBBSDY9O7xTUb4jp3b8v/ms4Pt87dE5/FP58fmi7WkdHKBnTFncmA+mfwgNQegPkA/xbQezeKlwe4GAAPsDGgEQAQKhTr0fMA1e2RRV/TDuIxAB5QF3crIeABOXgA8gDlAf4GwGAAPMDGgEYA0EwIMmBAvT1UUIEHAGODCB5g4QE8ILUHIA/oCwB4wOTWRn19vjGRV/cZ37SiJUEqBqj9oB0tMBX37jo8AB4wu3hML8fzvhYAeJ9wxPcJBwDAxQB4gM0DWlRowCBRL8jSCAqzAeQBNjDAA7QY4O0NHWRf0CrnAWEAcDEAeYCBAWQ+QJT+Fg+SeAB99i+3BjXCYXYvCB5gK/ekI4Q8wOEHPAYEzgmveB4QDAAXA+ABBgbI7r8o/dQAKiRE9wBpAFVvp/X2mDAJwL4gBxXgAak9YDXzgCEA4GIAPMDAAOIBbQMQeEjHABkJYF8Qa5Moea53FPrOL+EBOXjAys4HrK3/5i/V5k61y7PfzZkb6mHfcjM5c2C7zh5M/K6bk7Oda/3mhHFtTG5N1m+Kz/L3tybr5KoDXhr2Mu9lIDxpPubrq3z5m64BpPKATiOoEAIqB4IN7I5QKytGHmAjBDwgtQesWh5QAiAKA+ABNg+wsCF+HkDLfVn94QHwgNmFo851LFeOZxfM1/LsC1rBPEACIAoDlBnYJOCMrwQcaCTgLEsClAFk4QFGCUg9I6YNA8IiAXgAPMDR+emqAC8THmRf0OrkAQQAURgADzB4gKFZVDWCEjNAGAA8AB4gH/mpDYzNA1YqD2gCIAoD4AE2BlAPUH2hbPOAvkmACAbgAfCAnD1gFfKADgCiMAAeYGOAqPtaEuSWB/g0gjAfYCv3ZHcQ9gU5qMDrBWE+gPMOmf8D5i5hMTHrGgEAAAAASUVORK5CYII=;fontSize=14;" vertex="1" parent="1">
          <mxGeometry x="-1160" y="-1480" width="80" height="80" as="geometry" />
        </mxCell>
        <mxCell id="fKHsVGfNWyKWpTp4zAhi-88" style="edgeStyle=orthogonalEdgeStyle;rounded=0;orthogonalLoop=1;jettySize=auto;html=1;exitX=1;exitY=0.5;exitDx=0;exitDy=0;dashed=1;" edge="1" parent="1" source="fKHsVGfNWyKWpTp4zAhi-89" target="fKHsVGfNWyKWpTp4zAhi-87">
          <mxGeometry relative="1" as="geometry" />
        </mxCell>
        <mxCell id="fKHsVGfNWyKWpTp4zAhi-89" value="CodePipeline" style="shape=image;verticalLabelPosition=bottom;labelBackgroundColor=default;verticalAlign=top;aspect=fixed;imageAspect=0;image=data:image/png,iVBORw0KGgoAAAANSUhEUgAAAgAAAAIACAIAAAB7GkOtAAAAAXNSR0IArs4c6QAAIABJREFUeAHtvY1vVceZ+M9f89NXq1UVRRFClnXjeh3vjWU54LUIYSlfSgilEZBqE6UoaaJtKiVZURptorbJb4U22W+zm778WtEWpW3Sb2gThFxwYmIcc6EGgkMd82Iw72DZ96dz55w5c+btPDNzzplzz32i0dXc8TUx19znM5/nmZcVPcOTfBuZ6smkrW30AFrv2oaurTvZ697WT/e6tw2n+zJpGz/vc2+bZvq0rX/TTHrbfK7fvW0512/QZvu38K2+ZTZoW03bXH2r0LbN1Y3bhfq2ZHv8Ql3RBh6/ZNC2Xxqwb5cHtrfazssDhm3wWwsDOy8Pxm1h8FtZtH+5NphJe+rGINOGnrph056+NeTedt0ZMmmrd92RtGcWV2fSvrO02r0931zdasPPN4FtBR/9CQ9gAOhd2+gZmVI9BhQBAKBHD4C1DUsArJ8OvpE8ko45A/o2nO5dP00egz8qEwBsOO0CgP5NM+G3awHQBwHAppkMALA5HQD1IOifq28NHkUA9BMAFMeACwEkHmceOQBsUwKg/vgFAwA8DgPAzssD2y8NCo8hALanAGBwZyvck6DfeqTA8MWAoaduDP7LNdVjQBEGAIN2AHjqhikAVu+6M/T0LfYx+BNMADAkBcCuO64A+M5S+Ce4A+A7SwQAq10BMDzpLgEEDD4ZQNTBjQFUHUIMlIABMT/ahwFJS+AloHAGiKKQlICCGaAUBRsPCA0gQkKEgSwk4FsL7hJAwOCFARwzCAxKwQDqEIUzQGEAWXhAjBCPHpAFA2IDIA5RAgagBzApIyERtFWM7+IIYwDEBqriAdQASCcCwOXBnYUyQGcAJJXk2wNiHnSwB2gB4OYBbGrIvwfQdJB5IohIQCIdVAIGoAc4M0BKhaQKKIoBueSCMvIAzgCCesC3FiIMFMoAqS6wYPDrAYl0UBkY4MMD0gAAZgAb7sPkD1dI8OgBNAtEhcAWAzQjhPUAef0grSCM9QBdZVioBJDagFE9gDOAsnkATwV/HhAbAKknl4EBhdcDAAAAMyDO+bRCvwQJHhnAGoBtTZgWhLEeII/+ZE1RGgOwHqBjgLMHSA2gPB7AGoD3ekBCAkpSEy7WA2AAADOADfocD8KnfhnArih1lwBcF6RaRZrGAPQAHQPcPEBqAOXxAN4A/NUDWAMIC8IlYUCBHgAGAJgBNO6zMGD7nusB7PJQWwZgPUBnAOgB+u0Cyjk+ZNkodF1QaT1ANICSeABdJNpR64JMAABmAAn3lASSDnqAtIzssEEM1wU514QrtS6otB4gNwDfHhAbQIfVAwwBAGaAZoNYiAe/DEAPSN0ppkrvGI2n5YKwHqDLBSldob09QCkBnvaI0VxQoiRQhppw/vUAcwCYMEAy92eXBvllANYDysEArAfoGFC5eoDKAMJEkCcG8AbQMR5gBQATBrDZf7GP9QD5+UIOuSDcH+CcC6ra/oBy1gNED6AHSHjcH5CQgJLUhPP0AFsAmDAAPUAe5aVlADrowACsBzgzAOsBtlvGbA+Miw3Adz2AZIRiJyhDLii3dUEOADBhgDj3Z0fQA+SEcGAAeoAzA9ADimAA6wHUAEIY+NgjxkX/EANlYEA+HrCiJh4HbTTC5vRd+lgPoHN/tuPAAPQAZwagBxTBAFIV4A3AtwfEBlDpekAAgMIYwM76xT56AHpAclFQGc6ORg8oggE0+rNC4N0D6M6ACntACIDCGID1AHmUZ2f9Yh89IHmNTLF3yKAHFMoAyTIhH7kg3gAq6gEraqsDA0APCK+dwf0B5VgbmlQBvD8Askn4EvDMOHIukOrR77mhogF49wBCgpgH1aoHrKitniieAegB6AHJEC+5Vgz3B3TU/oAw0GsWEfnwALpHjKaDgpEyMCCjdUEEAB4YINYA2BGsB8gJ4ZALwnVBzjVhrAcUlwsSVSBIDfljADWAsFMGBmSxLigAQM/wJHqA7uZh2zPj4ssD8NxQ1QESaWdFoAd0lAdICgAtJ4j9oAQMCLWgDAxw9gBqABNeGMDO+sU+egB6gJApwnpAR9QDpAYQYsAfA2giqDIeEBsAeoBOAhzukEEPcD87Gj2gwz0gNgB/+wNoFogtDLR7PYAzAPSAkzwGcF0QrgvaJmb/xZHkZcLbLtTb6j7h8p8XVLZ9wjEPypALsq0H8AaAHsADgD00FD1ABQNVit9oHOsBqptklOdCM+mgSp8byhuAPw9gp//lYoBVPUBqAOgB6AEzfZvi1q+K++y4UaxXvTiNAcmSANYDGADoIFGF+wM4A/BeD6DRP+y0pwfIDQA9AD2ABUAfG+g1fVVYNxpPYwDWAzqwHiA3AN8eQBnQvuuCNAaAHoAeEEtAqRiAHqBjgFIF2tsDpAbg3QPafV2QzgDQA9AD0APqW8V6rziC5wXlu0dMZwD+PIA3gDY8LyjVANAD0APQA8SIDxnBdUEwKpAIDnskJBAfy7BPOOZB+9QD0g0APQA9AD0APWBg52XaogPjLg/uhIX4b6W9DBb9y7xPmJQBysUAwLogoAGgB6AHoAdAZv3ia9AD0qI/wYMJA6QGEKaJ/O0TptE/7LSDB8QAIDN9/SOeG6q0ATwvSLo6yGj9j+rFuC4I9wdo8RCGfvqaEjCgXdYFxQBonQVEZvr6R7w/gLEB3CcsjfvsoCqsG42nMQDXBXXguiDWA7g1Qh7PDW2vdUE8APQGgPUApQGQDcPoAWzop32jWK96cRoDcH+AjgG4T/ipG0MWjSzsAT/SLBC7YbjM5wXxAEAPSAnx3MkQNO6TUyIczoro23C6d/00eewVb4W0G8H7A3zeJYn1AFj2XywR02QOoEPzP6wQhIO+c0ExD8paD5ADAD3ABgOUDegBdO7PdlRTe6Nx9ACsBwhUoAyQLBPyx4C2WBckBwB6gA0AsB7Ahntp3yjWq16cxgCsB+hyQbhP2CIR9NSNRErHPCNU2nVBOgCgB9hgAD1AGvrpoCqsG42nMQDrAToGVK4eoDMAogv+PCDOApVyn7AOAOgBNgBAD6CxXtUxivWqF6cxAD1Ax4CKeoBYBojZ4I8BZV4XtKI2pF/0Gd4YrLcB3B+gRAXWA6QYUIV1o/E0BqAH6BhQOQ+QFABa03+/DOANoGQe0AJAGgNgKoD7A3B/QLhbGO8PqIMuEZurb8N9wrCVQkLhVxXuuQ0BNPqHHX8eQEgQ86Ac64IiAKQxQG8A5KvoAegB9NSg8jAAPaDDPYAyIGSGPwaUcF3QitrQ0SALRNrqlHQQQAXQA9AD0APEHQD6EfSAfD2A0wKP+4SpAYQd3x5AAABlAHqAco5PF/9oOlgPwHpAmBrC+wNgEd9tjxiZ8vMGgOuC6A3yzyxSAEAZAJCAieJzQb1rGz0jU6rHnrUNSOtd29A1TWTXfwnXBUnjPjtoVPtVvTitJozrgnS5oEqvC+IMwHs9oDzrglgAQBmAHoAe0Lfx8/5NM33kqAnm+nhaA2A7WA9Q1ITRA4rwALkB+PMAmgVKbC7zlAviAABlAHqAMQPQA9gpv7SvmtobjaMHuJwVUVEPkBqAdw8gJIh54IMBIgCgDEAPMGYAmynCeoA/BuC6IF0uqHL7A3QG4M8D2Om/RwZIAQBlAHqAMQPQA6Rxnx00mu+rXowegB4gbB0gJBAfg1qxv7WhNPqHnWI9QAUAKAPQA4wZgB7AhntpXxXWjcbTGIAe0FEeoNo4FvtBCRgQakGBDNAAAMoA9ABjBqAHSOM+O2gU61UvTmMArgvSMaCi9QCpAYQY8McAX+uC9ACAMgA9wJgB6AFsuJf2VWHdaDyNAegBOgZUrh4gekBsAP7qATQLxBYGirlHLBUAUAagBxgzAD1AGvfZQaNYr3pxGgPQA3QM6AAP4NYIea8HxDzIPxcEAQCUAegBxgxAD2DDvbSvCutG42kMQA/QMaDSHsAbgD8PYKf/hTEACAAoA9ADjBmAHiCN++ygUaxXvTiNAegBOgZU2gM4A/BeD6DRP+zk6QFwAEAZgB5gzAD0ADbcS/uqsG40nsYA9AAdAyrqAXID8O0BlAF5rwsyAgCUAegBxgxAD5DGfXbQKNarXpzGAPQAHQMq6gFSA/DuAcWsCzIFAJQB6AHGDEAPYMO9tK8K60bjaQxAD9AxoHIeoDMAfx7AG0Bu94hZAADKAPQAYwagB0jjPjtoFOtVL05jAHqAjgEV9QBCAvGxDPuEYx5kXQ+wAwCUAegBxgxAD2DDvbSvCutG42kMQA/QMaByHiDuDyAjsR943SNG00FBSSBTBlgDAMoA9ABjBqAHSOM+O2gU61UvTmMAeoCOAR3jAbRC4H1/QIyB7BjgAgAoA9ADjBmAHsCGe2lfFdaNxtMYgB6gY0AHeEBsAP7qAWQhUJwFyrQe4AgAKAPQA4wZgB4gjfvsoFGsV704jQHoAToGdIAHUAMIYeA1F0QwEMIgCw9YURs82roX3uURdKc8eoAxA9AD2HAv7avCutF4GgPQA3QMqLQH8AbgzwN4A8jIA1oAKIoB6AHGDEAPkMZ9dtAo1qtenMYA9AAdAyrtAZwBePeAhAQ414QjABTFAPQAYwagB7DhXtpXhXWj8TQGoAfoGFBRD5AbgD8PyPy8IAYARTEAPcCYAegB0rjPDhrFetWL0xiAHqBjQEU9QGoAJfEA93VBSQAUxQD0AGMGoAew4V7aV4V1o/E0BqAH6BhQOQ/QGYBvD+CrAlY1YQEARTEAPcCYAegB0rjPDhrFetWL0xiAHqBjQEU9gJBAfPS7T5gagPW6IBkAimIAeoAxA9AD2HAv7avCutF4GgPQA3QMqJwHlHOfMG8AVuuCVnQPfhKsBBXbkMvCUNwf0Ohdq21sKDfqowdI4z47aBTrVS9OYwB6gI4BHeMBtELgfZ9wzAOTXFAAAL8MQA9AD+jb+Hn/ppm+jZ8HbdOMvvWzsV7VV4V1o/E0BqAH6BjQAR7AVwi87hGj6SCj84JaBjB01C8DsB5gzAD0AFXop+NGsV714jQGoAfoGNABHkANIISBPwZQAzCqB4QGgB7QMzJl3NY2egAtr1wQmzhaP93r3jac7sukkYm81SN6QH3rbNTm6luFtm2untIuBC94nHncdqHOtccvBC+QtYHHLxk0ZXy/FFOh0h7AG0AbrguKUkAtCUAPEBnQu7bRMzKleoQAoEdfDFjbMJ7+09CPHkDn+6qOampvNI4eoAIDhAHK11we2N5qOy8PaNvgtxYGdl6WPg7uvNxqC4PfyqKRCA57pNGfdNhHj/UAmggCekBsALUSMADrAfYwWHcyAwlYP92biQRsOB0m9NEDtsz2t1p9y2zQ4gk+sC9IwNZUCZhrTfnRA6yQAIv+/G0B4nf5yAXRLBC7YVh/f0AMgDALhPUAWS5IZQBkHD1Anjuyiv48OdqnJoz1gDjzo5z1M9mh8DXt7QFcDaAkHkBIEPNAvS4oBkBtMCgF0yZZGIr7A2RsCLNGgGJAjrkgmhRCD/CaC8J1QToGVK4eQLNAqo0CfnNBNB2kWRcUAyAO/SXIBeG6IONcENYDVKGfjhvl/VUvxnoA1gOEhA878Wf7fvcJUwMIOzIPkAAgKAWXgAFYDzBmAHoAjfWqjiqsG42nMQA9oKM8QDX9j/3ARz2AlAEoA8KqgMAAOQCwHiAuB6IjWA+QZ/z11WOsB0TVYB81YbFu7HVtqLJC0N71AHbuT6N/2PHHAJoIknqAHABYD6DhHt7pXdvY+MSp53fPvP7W3P73rxw4uHBk/Pqx4zcb07eq2U7faXR8O/n5YuP0Hcij9Xt18vPFirW/frF08vNF8RH41/xk6u5fPr194PCdn/7h9vf/6+bO3df+6algnShp0cLQy4M7rVYBictJhYSPasrPjVMGhOM+GMAbgHBekBwAWA9IjfvUA9Z9c/qV/zj/0ejClYXFJv6H7wC+A4W/A0vLzeNnln76h9vffuVKEG3DzQF+GMB6ALdGyGNNmJAg5kGUC0oBANYDVCQY3NjY88bsp5PXl5YL//eO/0N8B/AdSL4D9GM4v7D80z/c3vFvCxEGvHkAbwDEJHx4ALstgGNAOgCwHsAxYPjRE2++c/7qtaXkv0B8hu8AvgMlegeOn1n67o+vDuxc8JILotGfFYJw0B8DaPQPO7vupAMA6wEUAIMbGz//9cXbd3DOX6LPOf4o+A6o3oGl5ebEycWdu6/5ZQBXGwieloABRAtWdA/Em79o6l/aKcPaUI/7A5598cz5C3dV/9RwHN8BfAfK+Q4sLTcPHL7zte9cLf68IK4GwNqARwaw64JaAGgrBhS/P+ChTSeOjF8v5z9u/KnwHcB3IPUdWFpuzi8sf/fHhTKAZoEkBuCvHkCzQIwBDHwC9wBaFvZ4VkSRHrDjmTMX53F5T+pHDF+A70DZ34Gl5eav/u+df3oqi7KwydpQduLP9suQC4oMAMaATqsH7Hljlq4uKPu/bvz58B3AdwDwDnwydXfdrisZpINMGCBKQOwH/uoBQ0/fSgKgrXJBeXvA62/NAf454UvwHcB3oM3egb9+sZRNScCEAezcn0b/sOOPAQIA2ooB+dUDfrF/vs3+UeOPi+8AvgPgd+D8hbvFM4D1AMqAcNATA1Z0D4wFBQCuMedCS1cE0UGyNKhi9YA33zkP/oeEL8R3AN+BtnwHZmYXv/ad1kYB8fgHoxFbD+DWCHlZF0QAYMOAqtYD9rwx25b/nPGHxncA3wHDd2Di5GLxNWEy5ecNgFCkcA8IAHD/4McuHlCl/QE7njlj+E8o8fLFxeank9fffOf887tnHnvq1EObTvzjI8GVwvKGd8hIDxDFc0Px3FDlcaGXBndeXrfrymMvXPn2K1de+58bBw7fcdyT/96h2xkUhL+1wKZ3Uvs0+pMO+1iwB1ADGGt3BrjXAx7adMJ6xeex4zd3//Bvgxsl4Z4eG8ddLh9QwSMD2AtkbO8R69twunf9NHkMbiSWBnSLQQcG9G+aCS+VbJ+7JPH+AN39AduDoD8QPdJXhpt7W5fFf/uVK+8dun3Hdpvm9//rpkcGSGhRoAfEBuDoARXYHzA6djUxn4c9GT92fcczZ4JQrprpK8ZLcZ8wCf3kJpn10y7XyocYsAj30m9xYEB8q3D7MADvE6aRXd9JwiC8P2DwW8Fx0F/7ztWf/uH2ovmmndt3lh97oXWMqFHqX/pik3oAVwPw4gGcAVh6QNvXA0amvrfnLCzgx6+6OL/4r6/MpsZ9nQEQNnj0ABr6acccA7EBkO+VBnSLQQcGoAfUt85Gba6+VWjbxCtiuJEL9W1z9ceZx22e75AhoV/AA3+HzGMvXPlkytgFJk4uZiMB4FwQzQJJDKDAekAMAGIAjh7QpvWAgQ0N0+TP+LHrw4+e6B2ZTAWA6gUsGHzmguhFkjQpZM4AmghCD+jX3C6ZdpckeoAQ3y9xI6wBREjgGTC48/Jr/3PDdAtnkAjycYcMO/Fn+wEY8s8FxQBo1QCIAVh6AFkbWgYGmNYDfv7ri/HEHtDb97v5IKwPTwZNkeHhxtlwHyZ/uG/06AEk9LMksGJAIoNkMeWXfgt6gM+aMGMAxAZ8ewDHg+hpggHBTQDfWvj2K1du3DQ4uHd+YTlYEeSDAaIExH6QMwN4AGTiAe1VDxh+9ITRCc/v/PJ8jYR++siFcthTCRI8MoAWA9ADVBfKb5rRze41E3/uS+gBj18akDb14p8o0AdCIJOASwPbJQzYufua0RqhN38xP/gtn2dHcwYQYiBPBvAAcPeAtqsHvPNLg21fibk/BYCVB3CKED71ywAqAbbrghISgOuCuNBPn6YxANcFsRE/ta/JBe3cfQ0+vYskwM9dkqwHxAaQcz1ADoBMPKAMuaDU84IGNjTgnnhk/HoQptm4z/ZhE38a90UDCFNDfhlADcCBAaQSgPUAnTGkMQDrAfq4z3oA88qEBwy0Lgf+/n/dBKR1w5e89j83gmpw8I1ZHBoKrgmT6C81gFw9QA4Adw9ol3rA7h/+DfiP4+L84vCjJ5TRn5AAxgB5DYD9Xr8MQA/QZIHIl+hc3qWTxgD0ACay89Vg9ktJGPAMGNh5+d2Dd4Af8+NnlqLLhP0wgCUB6wRBP4dckA4AmXhAyesBn05Cb3r53p6zKdHfhAHcpjDRBjyvC0IPKAcD0APYQC/2o+QPhweeAf/01ML8ArQgHOwJCCXADwNo/ocVgpw8QAcAdw8oTz2gtnpCXBq0bttJ4Fqx8WPXQdHfkAE0HSTvoAfguqAt59ADxLjPjbAGECGBZwA8EfTTP7QOh2ilj/zmgngDyKEekA6ATDygnPUA+LlvwV5fNt2f2mfzOdq+OPdnR9AD+rJmAO4TjjaIzUo2iG3ltoMBn3reI8bxIHqaYMDgzsszs6Bdwn/9Ymlg5+WgfuDVA4rZJ5wOAHcPKG094MDBBUhm8Njxm2bRHz1As41AGtAtBnF/AO4PoMtGmcOCWBvg1oa+9j83IJ/3peXmul1XQgZ48gCaBZJLQHb1ACgAMvGAUtUDeoYnryyAZgS7f/g3GwCA14ZiPUA+zU+lggMD0AM60AP+6akF4JLQ4Pr4f7mWlACf9QBJMSAjBqzorrO7f+F94ztkylYP+No3pyDTgTt3mwMbGpYAMGGAvAxA00dYD5DywIEBeF6QMwNKtk8Y4AEHDoOWA/3q/94hB8z59QDV9D/2A+d1QS0AgBmQiQeUpB7w7Iugo//Hj13n9/2mFgC4F9AgntZhs/9iH+sBclFwYAB6gDMDxCJBqesBwFLwXz69PbAzOGGUYIApBpTFA2iFwHFtaAQAMAOSJQFjDyhPPQB45/ub7wQHPxTGAPQAeZSXTv/poAMD0AOcGdA2HjDYOjIa4v0zs4tk7s8+lmF/AHGC2ACc1wUxAAAzIBMP8F4P2Pc70LXvz++eIQAojAHi3J8dQQ+QE8KBAegBzgxoJw+A7PxfXGzSGkA5PYAaQAgD21xQEgBgBjh6QBnqAcAlQF/feaK2OjAA9IBedocw6WtW+8C/RCfyjh0HBqAHODOgbTzg+JkliATQhUCsBAQwiJuHsyLkBuDgAQIAwAzIxAM81gOA938Nbmy0DhQqmgHsrF/sowegByQ3CZ/rT64KJU/rW2aDFl8OA+wLF8hUaH/AXz69Ddn++bXvXKUFAFYCSD/CgAcG0PwP6bCPFvUAGQDADHD0AL/1gGPHQUdE9Y1MRifKFc0ArAfIo7xeFNADkiQolgEl8wDZ2dHAhUCPvRBuBeAMgDyNAOCzJixfI2SYC1IAAMyATDzASz2g8ddbEBOkZ0igB/ApIDwvCM8LSr9acq5esjtkgAfD7dx9LdhTxiwEEvsRBjx4AFcDsPaAFd31w8FWAGkbgG8LoK80Xhfkqx4ABwAxAHKUENYDeAzQwgA86a95pX52D/8qegB6AN0nnPQAOACkc392MAJA0R5As0ByCTDZI0YA4MqATDyg4HoAHABR6J/wlQsSawDsCNYD5JkiBwbguiCmbFC1eoAdAMpcD2Cn/zEbYLkgCgBXBrRdPQAOANYAIhhgPeCkXAU0s3v4l+Azff0rHRiA64KcGVDSeoAdANiJP9f35QGq6b8RA1gAuDIgEw8orB4AB0AU9KkBkE7RDGBn/WIfPQA9ANcFReeActcDJJ66AKBdPIBWCFLXBXEAcGWAowcUWQ+AA0A0gAgJRTMA1wXJozx6AHO5GN4foMeACwC4uT/7tDweEBsAYH+ACABXBmTiAQXUA+AAiMI9ZwDoAUIWCNcF4bqg0q8LcgdA+T2AGkAIA3U9QAoAVwY4ekAx+wPgAFAZQAQG9ACBBLhPWEMCl2uE6fcyU34h83OuH+8RY5YAcULgDgB24s/1y+ABvAFoPUAFAFcGZOIBudYDjAAQxXqpBEwUvzZUrAGwI1gPkGeKHGrCuC7IuSZclvOC3v0ItAFo5+7gPgBNK7MHcAag8QANAFwZ4OgBedcDjABAt4MREoiPxTMA6wHyKI/1AEYOsB7ATf8Htl/KCgA6Nng9L0huAAoP0APAlQGZeEBO9QBTAESbAFQSgB6QTARhPUCTBSJfovkclw4T7qW5oOTgrHhkULFnRfj3AAMAbNcZAAFAOT1AagBSD1jRFewE1jef+4TzqweYAkCc9Ysj6AHyzQHrTvbCNwFoXqmf3cO/6pALwv0Bzrkgz/sDzAAAYIBKBXzVA3QGIHhAAIC8GZCJB2ReDzAFAMAAcF1QUgJI3GcfNcFd/aW+Dad710+Tx154lNe/0oEBWA9wZoBPDwACYMe/LXB3yqsCvXhGEDsSYcDDeUGEBOJjsIMsWhcUAiBvBpSwHmAHAHHWL46gB6AH9G2aIa0/NRG0aabfJQVEvzctF4T1AFIPAAIgKAIHS4kuh01bENaxwWs9QNwtHPtBiwExAPJmQCYekGE9wA4A6AHK4E5PhRM7WA9IxQCN4y6dNAZgPQBeBN7xbwvBaaAmDChnPUBqACEGnrqRAEDeDHD0gGzrAS4AEGf94gh6gBIV6myPQalAn+GBf9UhF4T1AOdckId6ANAAWikgeoZEdTwgNoBWPWBFV39QA2BbrjXhTDwgk3qACwDQA5TBXZz+0xH0APSAEuwThgOAGED1PIBdI9QCQLEMcPSArPYHuANAnPWLI+gBSlSgB0h54JICot+blgvq5HoAHADCHoIqeIDMAPoPt6MHONYD3AGAHqAM7nTWL3bQA6Rxnx2kcdylk8aAjq0HwAHAGkCVPEBmAIUzwNED3OsBUAAMaXZ+BV8SZ/3iCHqAEhXoAWzop32X0E+/N40BnekBcAAIBkBKAu3tAWoDKJwBfusBBgBIYwBMBYo+M449HUjs43lB8pMkHGrCuD/AuSZcxP4AIwDIJMBgbWg51wWpDaBwBjh6gEs9wAwAaQwQZ/3iCHoAegDuD6in1IFzXxdkBABRAkxzQaotAtEGMc/3CUdFYBL66WO7rQuyqAeAAXC0NjQRttUp6SCiV9EFAAAgAElEQVSACqAHMLuFsR5Acz6qDs3nuHTSckEdVQ+wAADrAQwSoLmgcnoAyQUpANBW64Ls6gEmAIAyQJz1iyPoAegB6AEePcACAEzQv5SEAZQBZfMAukNYDYBiGVB8PcAQAFAGACQAzw1lJIA9KcjhzDg8Lyj9PAn0gMcvDTwOPQ46uREsKP9GyR+6O8ysJlxOD9ACoFgGFFwPMAcAlAHirF8cQQ9AD0AP8OIBGRpAhIQ29oAVXf2jwSYATatoPcAKAFAGoAco47u4M4CMYD1AVQag4y5lAPq9He8BjgBg00FMH8qAsnkAAUCJGODoAfB6gC0AoAwQZ/3iCHqAkhO4P4DGfbZD47hLJ40B1d4f4AqA1glxbCWgrT2AAqBEDCimHuAAACgD0AOU8R09IDovmiaC+thAr+m7hH76vWkMqPC6IFcAqK+bh58dXR4PCADQHeR/RkuVC3L0AMj+ADcAQBkgzvrFEfQAJSfQA6QkoHHcpZPGgKp6QDYAqIoHsAZQLgZk4gGa/QGNkzeagP9qQ0fVDfcHNHrXqptqmp86jvUAadxnB11CP/3eNAZU0gOyAUBVPCAGQPU8QF8PyAIA6AHq6E/AkBrrIS9AD2BDP+3TOO7SSWNA9TwgSwC0vwfEAIiyQBX0AOn9ARkBAMoArAco8zwqBqAH0Fiv6riEfvq9aQyomAdkCYD29wAeANXzAFU9IDsAQBkgZv/FEawHKDmBHiDFAI3jLp00BlTJAwwA8Di350vxtJ09gAdAhT2AqwdkCgAoA9ADlPEdPQDXBW2dq5OWcmCceGjoXH3bBb49fqEua2YAADJAqQJl3x8gB0D1PECsB2QNACgDxFm/OIIeoOQEegB6QIgHy3NDjQEAZEB7eoAcABX2AFoPyAEAUAagByjjO3oAekDOHmADACAD2tADdACongew9YB8AABlgDjrF0fQA5ScQA9AD7D1AEsAABnQbh6gA0CFPaA2dDQ3AEAZgB6gjO/oAegBuXmAPQCADGgrD0gHQPU8gNQD8gQAlAHirF8cQQ9QcgI9AD3A3AOcAABkQPt4wIquPrLwH/hYnXNDcwYAlAHoAcr4jh6AHpCDB7gCAMiANvGAFgAADKieB+QPACgDxFm/OIIeoOQEegB6gIkHZAAAIAPawQMiAAAYwJQEquABhQAAygD0AGV8Rw9AD8jUA7IBAJABpfcABgAABlTJA6AAGNQcBgf8EujMOHHWL46gByg5gR6AHgDzgMwAAGRAuT0gCQAAAyrjAQYAKIoB6AHK+I4egB6QkQdkCQAgA0rsAQIAAAyohgeYAaAoBoizfnEEPUDJCfQA9IA0D8gYAEAGlNUDZAAAMKACHmAMgKIYgB6gjO/oAegBzh6QPQCADCilBygAAGBAu3uADQCKYoA46xdH0AOUnEAPQA9Qe0AuAAAyoHweoAYAgAFt7QGWACiKAegByviOHoAe4OABcADUH78w8Pglg6ac4yvOkU683s+5oVoAABjQvh5gD4CiGCDO+sUR9AAlJ9AD0ANCD5gLzoXeFj4CAbD9pcvkNGkDALShB6QBAMCANvUAIACC00MHj0qa7q5gyPJQ0NpQ9ABlfEcPQA+w8gBTAFTbAwAAADCgHT0ADgC/DBBn/eIIeoCSE+gB6AFJD7AAQC4MKEc9AAYAAAPazgPgACBXiUkkoKhcEHqAMr6jB6AHGHqAHQByYUCiBsDWCYqrB4ABAGBAe3kAHADk9FD0gJ6RKbO2ttEDaL1rG7qmCvFG4+gB6AGRB1gDIBcG+PYAEwAAGNBGHmAEAO4+Yd4GsB6wttEzMtUrPEIA0KMHwNqG8fSfsmH9dPC99NEKA30bTveunyaPvRtO92XSNn7e595kc/8+ZrBfGvS5QZer5On3pt0p3594wWz/Fr7Vt8wGbatpi+4QphKwVXpdcGLQBQC5MMCrBxgCAMCAdvEAIwDQiyTRA8wkYGTKMwMoDAgJrBgQIIS2TACw4bQLAPo3zYTfzoR7NvTTfnkYUA+C/rn61uBRBEA/AUAhDHAEQC4M8OcB5gAAMKAtPMAUAOy18rwBkGVC6AGCARAn8MwAagAODEAP6KfzfVUnMc0/l5z1i095CSiMAe4AyIUBnjzACgAABpTfA0wBwN4njB6AHuA9F4QewKSMDHJBBgDYdoFsBZA+VmN/gC0AAAwouQeYAiAuBQ8dDW0A9wcky8JiDYAdQQ+QM8O9GLDxc5rzUXXKkwtKmoEHDzADQMEMKNwDHAAAYECZPcAaAFgPMJ7+U04AFgXlWBPGegBXARafqtI7RuNpuSC/9QBjABTMgGLrAW4AADCgtB7gAgCsB2gYwM76xT56AHpAUgKKrgnbAKBgBhToAc4AADCgnB7gAgCsB2gAkP4l9ADpUiKHXBDWA+D1AEsAFMyAojwgCwAAGFBCD3ABANYDUqO8OPdnR9AD0AN8eYA9AApmQCEesKKr91BX32gGrX+UifKSftk8IBMAYD0glQTKF6AHoAdsOVd8PcAEAHP1bRf49rhyaVA7rgtqAaAoBjCEONzVr271w11M664f1rax7rqsDYx1a1tWAMB6gDLEy/YGowfI5/4sDBxyQfH+svbZI5ZUgdzXBRkCwDcDcvaACABFMaA8HpAVALAeoAFA+pfQA9jQT/sODMB6gL4eYAYAcpFAdT2AAUBRDCiJB0ABMPAJzfjrO3hekCrcs7N+sY/1ALkTODAAPUDDADMAREfI8YmgqtQDVqzqPRSUAWjrmHoAEADff23m+6/N7P5hGdrfdv8waHt+fC7b9vzumZ7hSZs2MrXnjdkM2v87t0fRWDzoDg0Vzoz711dmVX8mGX/lP85btr0XX/He/vPSKwW2f3/rckHt/yz8e85t4uRiE/BfcCNYdIlYeKFYFT0gAIAXBnj3ACAAAP9U2v4ljb/eson+LWbk/ZdnAWC0R6wxfSvvnw3//Aq/AyEAYgMgR4p6rQnnUA8IAeCFAX7rAQgA+ultIwDAGYAAoL9f7Fi8AxEA4suEK+kBMQC8MMCjByAA6Kei8ddbNbsU0PAk/UNy6nAGQJ5CckEIgJx+Ix3yx0YASNwlECSFglYdD0gAwAsDfHkAAoB+kgkA7BhA/5CcOlIAQDwAAZDTb6RD/tgkACrrATwAvDDAiwcgAOgnmQLAggH0D8mpowJAKgMQADn9Rjrkj00CoLIeIAGAFwYU7wEIAPpJDgCwerI2HDajgjD9Q3LqaACgZwACIKffSIf8sTIAVNAD5ADwwoCCPQABQD/JLQBM2DGA/iE5dfQA0DAAAZDTb6RD/lgZACroAUoAeGFAkR6AAKCf5AgANgygf0hOnVQAqBiAAMjpN9Ihf6waAJXyAB0AvDCgMA9AANBPMgFAz/BkbbUxA+gfklMHAgApAxAAOf1GOuSP3f7S5QF+E4DUANp7XVAKALwwoBgPQADQTzJjABOmDKB/SE6d4HgJq/OCEAA5/UY65I9VGwCN+HPhzoB2Pi8oHQBeGFCAByAA6CeZNQBTD6B/SE6d8HwhcwYgAHL6jXTIH5sGAKkNtN/+ABAAvDAgbw9AANBPsmAABh5A/5CcOuTwOAsPQADk9BvpkD8WBoC2rwdAAeCFAbl6ABAAL796ljRyKpz+sU3PjHt+90xt9QSZ+7OPkHVB0GPpbM+MIwYQYsDEA1IPg9MfFUe/anlg3H+c939g3N6LRR4Y98p/XirowLi3LrscGGdwGNzW2Wjrr3S+rxpsJw8wAIAXBuTnAUAA6G+V6R74hG+D0OOjw5tkBo/WxDZ0tObUJmpDrRYUdR0bZH/AVLB1YCTtcWQqzOeYdGIDIN9lwgDliRHrTva6t/XTve6NXgDg2MGzo7ckbpKpb5kN2lahbZk1OA5661x9qyrKs+Nt7AFmAPDCgJw8wAUA9w9+3D0wRh55ALTh/QHsrF/sQzwAtHcMHPfZOwNYA7DwgOwZsH46gAd9tGJA34bTveunyWOvY+in396RDKhvnW1dKJaI/v0tGKgYYAKA2QAAIAawPCD99vAAYwB4YUAeHuACAEELLD0A75BJdQLeANADaMQXOw4MaMd7xOzukjQBQCv6QxnQlh5gAwAvDMjcAz6dvA4pZ/UMHRXCfXjbcCYeQK+VlySCBh0TQUfDRNAQKAskzv3ZEV8eIBoAeoD8BjHCAwcGtO89YkYe8N6h25AP/mMvXGllkIwY0H4eYAkALwzI1gNGx65C/h0MPjyuAoAwbuwB5blPGFYqgNQDADeLgXNBPdG18nJRwHqAKAEbTsdx3BwGlfeA/i2zf/kUBIB1u66E+R9iABX1gBWreg6SS8EsHuOLJNvwPuEDBxcgAPjaN6eEQB8aABnPxAPKkwtiZ/1iv3gPUBkAegB6QDIFdA7oAY3pu0vL6R/91du/DHYCs9EfyoB28oAWANqKAVl5wL79F9L/FTSbz754Rg8A4avGHhAuBxo6WqF1QZl5gLwGwDoEegB6wJZzSRjoasJXry2lfvCXlput6B8VgTkMpB8R0Tb1gAgAbcWATOoBP9p7LvXfQbPZ3Pv2rBDiEwaQoQdgPUCe6okSQQQG4qPdWRH8AiHrhaF0RRBZHYTrgjbN9HNt87l+98ZHeS7oh0/1HrBu1xXIp35mdpFZQlplDwgA0NV7KEgEtRUDXD2g//CuF05B/imMH7sOAYDwGmMPwHqAKvqDxtED0AN4Qkg84JX/vAT51P/l09sMAKriAdsvDe68PJB8ZAyg3Rjg6AH/vBV0n+3iYvOBNdA6MNYDQBsCuPuH2XyOti/O/dkR9AB5VcC8FCwpI2+a6dM2fsrPGQB56i4Bm+Wz/mT+J3iNygMOHL4DAcBP/8ABwJoBZa8HxADoNA+oPXjkysIi5F/Dy6+e7a5L0j7CrF98jbEHYD0ANN9XcQI9AD1A7QGrt3954yag/ttsfvfHV5MGQHYU2+WCSlYPSDGATvIA4EKgY8dvBgAAMyATD8B6gIoE7Kxf7KMHoAdQIeA84JW3QAWApeXmyL9ckgGggh4QGwApA3SUB3z/tRmIATSbzR1PN4wYkJQDYw/AeoAq+oPG0QPQAwQPqG+dnZkFGf/Jz9kKsHCaELciCLo2tKQewAMgrAZ3hges3fwZZEVws9kMS8GFewDuD1BFfHHuz46gB6AHcB7wyltXgB/2n/7hdr/0ILn4aDm7XFAZ6wFyAHSKB/QfHj8GOhCi2Wx+b0+rEmDCAEcPwHqAKvqDxtED0AMiD1i9/cv5BVD2f2m5GR0CIc792RE7BpTOA+QA6BwPeOkHZ4BZoIvziw+tnwgTQVgPsL0/ALRMSFXjFcbZWb/YRw9ADyAeADwArtlsNqbv1luLiBQ1AHcGlMsDdACovAd0D4w9sGYcuDCg2WweGb8eFHiJBIAZ4OgBWA8AzfcFNoTfhR7Q6R4wC1z7TyaC//5/FgChn2Kg7T1AB4AO8YCf/OxLoAQ0m819+y/EAAAzIJN1QVgPUJFAnPuzI+gBnewB21+6fPsOKPnTbDbnF5ZXb//SBABtvy4oHQCV94DBh8fh/0SazeZPfvalBQMcPQDrAaroDxpHD+g8D6hvObf9pcuQk3/o/O/1/56X3yMWl3/p3J/ttLEHpAOgEzzgnV+ep/8IIJ19+y9Y5IIy8QDcH6CK+OysX+yjB3SaB3z7lSvw7G6z2bw4v9ia/s8VyAD/9QAoAKrtAQ+sGT9/4S4k9NPXjB+7blETdvQArAeooj9oHD2gMzygvnX29f+eXwQt+qcf6GD3r/4uybTUUFt6ABQAlfeAZ1+ELgei/2Quzi9+b8/Z2oNHwozQgHgUhGQkEw/AeoAq4otzf3YEPaDyHrBl17lPpswmc81m85OpuyS++2CATw8wA0BVPaC7fri7fvijUdAVMRQApDN+7HrB+4SxHqCK/qBx9IAqekB96+wjO2d++ofbd4yDf/P2neUtu86R0E8fVXfKV8wDzABQYQ/orh8efNg4EURhcOz4zZdfPVvwuaFYD1BFfHbWL/bRAyrlAVvOffuVK+//ecEi9JPP7ytvXWlt/Z2j0b9zPMAGAFX1gK7+wzuebpimDikDms3m4mLz08nre9+effbFM19/fHLw4XEwEvC8IMAlYsOTqohvPI4e0KYesGlm9fYvt+wKgv7r/z1/4PAdo3U+7KeV9N/96BYX99mnlfcAGwBU2AO6+g/DT4gT/zHhCL4D+A4U8w4AD/bR/zATJxeDqx+jEyPY0E/7xTKg6HqAPQCq6wGje9+e1f+7wa/iO4DvQFu/A0vLzZnZYN0nd2Ycjftsp1gGFHpekD0Aqu0BpjsD2vrDgD88vgOd9g7Mzt0NDv2P5/7sXWOSuySLZUBxHrBiVe3DRCgnB0GDH6vqAd31w8Bb4zvtk4N/X3wH2v0dOHn6jhj961tmNXdJBlVi0lJ2BbM7hEm/1PsDWgBwY0DMj95Dq6xaV++huPWNdrm3/lHmxmB9/3BXv7J9/7UZl5pwu39O8OfHd6B678BfPr0d7Pjdck4x/acq0BEeEAHAjQFV9YCu/tFvPDE1O2e+tLh6nxv8G+E70ObvwNJyc//7Vwa2zdG8v9jpNA9gAODGgAp7wODD43Z7xNr884I/Pr4D1XkH5heWv/3Klf7NdIIP7FTcA5IAcGNAdT0g2Cf85HPTpucFVefTg38TfAfa9h1YWm6+d+j2IztngpzP5laT135jJHSOBwgAcGNAhT2gu374gTXj7/zyvNHZ0W37qcEfHN+BKrwDn0zdfeK7XwRrOknop49pDEhmhyrrATIAuDGgqh7QXT/c1WqDD4/vfXvWcf9hFT5b+HfAd6DE78BnJ29HOR8h+qMHPH5poNUUAHBjQIU9gDCgq2UDL/3gzPix65nsSCzx5wh/NHwH2ukduDi/+Iv9863D3c71b5rhJ/7UAGAMqLwHqAHgxoCqekCwZjRSga7WGaJrNk5+/7WZ9w7MX1kwPIC8nT5W+LPiO1Ded2BxsTlxcvHnv764/aXLQcjmorz+aVouqNr1AC0A3BjQCR5AGNBdP1x78EjtwSNrN3/25HPTP9p77le/mX3vwPzo2NXxY9cbJ29oGuRTdfvOsuZPyOBLf73VaK82fauBLcN34PSdRtYNWCqz+P9+MnX34OHr7x26/eYv5l/5z0uPvXBl9fYv+8hkP3XKL4VBGgMq7AFpAHBjQId4AMUAuVdA9jiWuEa4Hj0dGIMAoHHyBnOVmPG5oeT+APpYGzwqaUNHa05tojbUaqsnaq5tsjYctp5h2BGh0peNTBkfESr9luLPDV0/3bvuZK/0cf10MA5ufRtO966fZh97pYeAWgxu/LxP2xqn70D+bfdtmtG0IIcDb9LgDhxMY0BVPQAAADcGdIgHWDMA8iEhACBXibVIYMkAvEdMhQTxzgB2xPP9AetOBjwgDRz6dZCwCPfSb8kfAMG8HtKAUV7/sjQGVNIDYABwYwB6QOQE0cSfGkDdzACqxIA0Ueh4D2CDPhUC0jHHQEIC1k8X4AFQA9j4ucYAyJfKw4DqeQAYAG4MQA9QMQBuADQLFGHA0gPwHrF29QCSFLJlAHUCAoO8GWAAgLZiQMU8wAQAbgxAD5AywAgAUeind80bM6A2eJQWAwISYD1AmvdXDRZfD6AeQFNAtGPrAZQEuTIACID+TTNhLUFbDChVLqhKHrBiZe3D4ERoeAOfFB3P+sVvsTo0dBV7aGjvoQwODe3THxTKfVV5aCi3NtSoHmAEACIBBAMRDIwZULY75XuGJ2urJ1SPtdVF54LY7L/YL0U9gNaHzRlQWE0YCIBEJbl9GFAZDwgAUCQD0AM4D7AAAM0FRZ22ZwDWA+IyLzfl557SLJCDB8QGQPghLfBaDCZrwkYAQA+ox9cMFHp/QAiAIhkQmwF6gGEROIr4QQooEw/AekBb1gOoATjUAxJlYYtwL/0WhgFGAEAPYAAwW99qxwCbe8RiABTJAPQA6gFZGAApCRh7ANYDVNEfNO69HkDlwCoRlLcHWAAAPYDBgB0DjO8TTgCgSAagBxAGOAIgEw/A/QGqiC/WANgRz/WAcnuABQDQAxgAFOQBPACKZAB6QHf9sCMA2KRQq2/sAWWrCWM9AFoPoAZQynqANQDQAxgM5O4BEgAUyQD0gEwAkIkHYD0APSDIC0mT++aD1gBAD2AAkLsHyAFQJAM63AMyAYC7B2A9QBX9QeNYDxAI4QgA9AAGAzl6gBIARTKgkz0gQwBk4gFYD1BFfDb7L/axHtCXZIAjANADGADk6AErVnb/iWwFkD4abBDDfcL9ip1izP0B4h6xDAHg7gFYD1BFf9A4egDDgEwAgB7AYCAXD2gBoBwM6EwPgAKgTo9/SOlk4gFYD1BFfHHuz46gB1APyAQA6AEMAHLxgAgA5WBAB9YDDAAAZkBSBYzXBWE9QBX9QePoAS0PyBAA6AEMBjL2gAAAq2ofBomgcjCg0zzADABgBmTiAVgPUEV8dtYv9tED+jaczhAA6AEMADL2AMYASsOAjvIAYwCAGeDoAVgPUEV/0HjHe0DmAEAPYDCQmQfEBoAekHK8aD93OKjmqaIaTKrEyZqwDQDADMjEA7AeoIr44tyfHelwD8gcAOgBDAAy8wDBANAD+kaVJEhjQHcQ4gkYoAywBACYAY4egPUAVfQHjXewB+QEAPQABgN2HjBXfzw+MigGADEA9ABl9CdgSGNABIDR4JIATYs8wB4AYAZk4gFYD1BFfHbWL/Y71gNyAgB6AAOADDwgBkBYByYGgB5QlAc4AQDMAEcPwHqAKvqDxjvSA3IFAHoAgwEnD+ABgB6QYgBZewAYAIe7mavkE/2BlJ0BJPpn4gFYD1BFfHHuz450oAfkCgD0AAYATh7AAwA9AAQAwF2SwHqACQBcGeDoAVgPUEV/0HiHeUABAEAPYDBg6QFyAKAHgDCQRT3AEACuDMjEA7AeoIr47Kxf7HeUB0ABsOF0YjrP3ClmNo73CVvdIyYHAHoACABZeAAEAMcbN6IbxA63OmOJFBBNDcFyQY4egPUAVfQHjXeMBxgAwI0B6AEuHqADAHoACANuHmAFgFJ4ANYDVBFfnPuzIx3iAWYAcGNA7AroAYYeoAMAegAIAG4eYAsAVwY4egDWA1TRHzTeAR7QmL4F+bdND48LOtb5n42fowfYeUA6ANADQBiw9QDIh0RIAZFEkCsDsB7QMzxp3EamQCF+ZIqd9Yv9ynuADQDcGBDzAz0A7AHpAEAPAAHA1gPcAODKAEcPwHoAEAbyl1XaAywB4MYA9ABTD4ACAD0AhAFzD3AGgCsDMvGADqkHHDi48OY754cfPSEP6DI5EOf+7EiFPcAeAG4MQA8wYgAUAOgBIACYe0AWAHBlgKMHdEg9YOMTp5aWg1/X0nLzyPj1Z188A8eA7pUV9QAnALgxAD0AzgAzAKAHgDBg4gFAAIh3SSYXhroyIBMPqPb+gH2/m+d+WTOzi6+/NffQpnQhYGf9Yr+SHuAKADcGoAcAGWAGAPQAEABMPICLKdKnxxs3ulqHxwlBn1aDcX/ARG21UZusDYcNUgce2NC4cbM1/xd+Q4uLzQMHF5747he6ab4sO5R4feU8IAMAuDEAPQDCABsAoAeAMADzACGeSAYoANrCAypZD9jzxqzkF5Mcakzf2v3Dv/3jI41EZGdCvzj3Z0cq5gHZAMCNAegBqQywAQB6AAgAAA/o6h9NxhD5MxYAeTMA6wFSIQCGs9t3lgc3KgGgAkM8XiEPAL5jiX0ArcuEJSO4P2DLbD/T6ltmg7bVtEnOC1qxsusDSUBnD4VW9NEDQBhI8wB5yE+OcgDImwFYD+AYsOOZM8lfiPLZ/vevxNGcmfuzg+ysX+xXxgOyBAB6ABP9CQmyYkALALYM4MlR+3Cloq2qfWjQeg7GV8Mb9tvuPmFlLGG+EACg/zApA9BHrAfUhiaCZpb6l75eVw+oDU++d4Av/zK/nET3sadOsbHesl8JD8gYAG4MwHoAowsJD4gAYMsA9ABHD0jED8WTEADFMiATD6hAPWBwY+P2HXn5l/t1NU7egEd8ce7PjlTAA7IHgBsDsB4gZQADAFsGoAe4MIALItKnMQCKZQDWA3qGJ19/a076SxEHX37tXJA7UmR+jMfb2QP6NpzOBQBuDEAPEBmQBIAtA9ADrBkgxhFxJAGAYhmQiQe09f6As1/cFn8j4sjVa0vB+h9yuBCYAeysX+y3tQfkBQA3BqAHcAwQAGDLAPQAOwaIoUQc4QFQLAMcPaB9zwuqDU/ueuGU+OuQjvz81xcTpWMwA1LMoG09IEcAuDEAPYBlgAwAtgxAD7BggDSacIMSABTLgEw8oB3rAR+NLpDjH7jfiPh04xOnEgAwyQWJc392pE09IF8AuDEAPYAyQAEAWwagB5gyQAwl4ogcAMUywNED2vG8oOFHTywuir8NyciR8et89DfMBVXPA3IHgBsD0AMIA9QAsGUAeoARAyThRBhSAqBYBmTiAW1UD3jznfPCr0I+8PzumSCCS28XAOeC2Fm/2G87DygCAG4MQA+ob53VAsCWAegBcAbII0pyVAeAYhng6AFtVA/oHZm8OA+a/1+cXwzitTT6d7AHFAQANwagB6QBwJYB6AFABiRDvfxZCgCKZUAmHlD+esDzu2fkvwxh9M13zveOpN0s1nkeUBwA3BjQ4R4AAIAtA9ADIAwQ4olkoAWA0WAzsKa1jgtti33CbVEPODJ+XfKbEIaWlpvrtp3UTf+pGYAZUI16ABAAvarzf0zH8byg5HERwLMiYACwZQB6QCoDhJAiGYgAUCIGGHnA/YMf7317ds+Pz5EUEH0sbT1g3baTwMU/H40ugKK/Ohe0+4d/O3BwgTtDVKwBsCNtUQ+AAmD9dBkY0LEeAAaALQPQA/QMkMR7YSi4FD6Y+4+2Wpt5wANrxslZOkvLzWdfPEOjf5nrAT//9UXhlyAf2PWCsPqTTueVzsIAACAASURBVPmlHdYDhief+O4XZKHRseM3IRfLxHJQ+v0BBgAoBwM6sx5gAgBbBqAHaBggjyvJUcYAysWAVA8YfHh8/FicS7l9Z/mxp04F3zX4CduICtQGj0ra0NGaU2sdGAc7M65neLK2eqK+bvLKAqj8Ozt312D6T3kQMWDjE6euXluiv+qZ2cVgM0H01Z6RKXbWL/ZL7gFwAPRtON1bDgZ0oAcYAsCWAegBKgbQz7+mQwHQXh6wZuPk9Olb3N/rysLiP2+dpNG/hPWAl187x/3MqqevvzVnA4DWHrHhR0/Mzt3l/uQrC4s7njG5arjEHgAHQBD9STPN+6tej/UAcD3AHAC2DEAPkDKACwHSpxQAURaoDTzga9+cOn+BD3Dkbzczu/jQ+gnKANIpTz3g2PGb0t8CN3jnbjNI2tB5vUnnHx9pfHZSfsTQnbvNf31lNlhWFKmAOPdnR0rrAXAAEANAD+jffE7ZtpzrN2iJ22P09wdYAcCWAegBIgO4sCJ9ygGg/B7w5HPTbHJD/Esdb9zoG4k9oDQMmNzyxAnxp5WOvP/nhZpJ0Keo6B2Z/Gh0QfpnksGl5eab75ynAEjvlNID4ACIDQA9wIEB9WDWf66+NXhkrw+jfem6IFsA2DIAPYBjgCYQ0C9xACi5B7z0gzOQExSC9TNDRzkP8L4/YN/voHe/7HjmDLlWnkZ2YOcX+0H/i/3vXyEzfQIAdtYv9kvoAaYAQA9QTv8pFQwkAMoABwDYMgA9gGUAjfKajhQA5fSAV9+YAS6gbDab+969wALAez2gvm7yxk3Q3S+nz96urdbdI6aCAfx2gWazeWT8+sAG8A3DJfMAUwCgB6QDYHN6IsjUA9wAYMsA9ADKAE3cp1+SAqBsHnD/4Mf79l+gPzOw8/pbcywD/OaCXn0Duvt3zxuzrasozRjw7Itn4HQkb+D06VvBRrM2rAfYAQA9IB0DmXqAMwBsGYAeQBgACZQaAJTEAx5YM67Pa6v+mkvLzS1PnCgJA06flRdmuR/+xs3lgQ2N6C5iGANGpoYfPQG8WpL7383O3eWWh1IeSDql8QA7AKAHpAMgUw/IAgC2DEAP6Oob5T7t0qcaAJTBAwYfHv90Ml7sL/0rSAeXlpt7354Voz8dKXJ/wI5nzkh/SHFw3+/mSfQn+wbguaCXXzsHqY6I/8cbN5effTFeHirWANiRktQDXACAHpCOgYw8YMXKVR+s7Mqidf+Jn9RbjNQ+XKloq2ofGrSeg6tsW1fvofB7ew+tsmpdvYfi1jdKsz3SjvhpF0dSAeDRA9Zu/gx4aSL391pcbH5vz1ka67lO8fWA9/+sW5nD/vCPPXUqmv5PRB2YB7S2/urXR7H/I7a/uNjc88asZMofZYcSXyqBB7gAAD0gHQAZeUALAF4Z0OEewH7IVf1UAPjygG88MQU8M5n7q924ufzkc9Nc0Jc+LWZ/wJqNk3fkmxa4H7x57PhNdvofScAE3AM2PnFK3ALG/28Uz3+xfz51hzCxAc8esO6kOwDQA9Ix4OwBK+5b9cdAArwygFcHhQSsNJKA2ofWErCq52BhHqD4pCeGAwD0kc1fuseCPWDXC6fsktoX5xc3b5/qHkicBiGN/mSwAAbAF+d8b8/ZaNZPp/8TEQagHjD86InGyRuJ3zH4iXhyXGLuzwqBRw9YP+0OAPSAdAA4e0AAgDIwoGM9APLBDwEAYACjAvmeGQdc7C/+7aZP31qzcTKI/qQlDwVKxYDksKBBx8OCjn519QRwSn5lYbG+rhXlV4dBPwr9FAZQBvzjIw27snmzGVgIPTmOzf6LfY8ekBUA0APSMeDgASEAysCAzvQAMUSKIzEAAAzI3QMGxva+PSv+kJCRI+PX62uPtY6QiwAA8IC86wG7XjgF+eGbzeY7vzwvTv9rPAygDOgdmQRuChN/PPHkuHJ5QB4GgPuE6Y4wsZPGANX+gFYKqOsD9ID0fJFVQXgVWxDuPSTWgcXPtjiSAACAAfl5QO/QGDnbWfwhU0cOHFz4h6GPW5dKMtHfxANyygUdPAxawkTvfuEiviABBvWAnuHJH+09Z7o5gLzV7Mlx4tyfHfHiAVkZAEkEoQfk5AGxAZSEAZ3mAalxs9ls8gAAMCAPD3hgzfjo2FXIDyy+5ue/vkjOjo5uFS4HA1ZPrN38GTD+jo5dlU7/FTyAeUBwlfzU87tn7Kop5OQ45dzfaz0gWwBgPSAdAFb1gNgAVqIHQFaOZu0BYqwURyQAADAgWw94aP2EXd1yabm558fnag8eIaGfwYAlA7I9L+gnP/tSfMOlI8++eIYDAJn7ywyAlARgDGidKPfYU6eAlxBwPxs5OY6d76v6BXtAHgBAD0jHQFouKHmq6CxvAOgBqlxQTuuCuM+z9KkcAAAGZOUBX/vmFLBMyv38t+8EO5iYWf9Y98CYCwOyrQd8dfUEcBnr+Qt3e1vXxXAMIE9ZErB9+NrQnpGpddtOArcic29ys9nkTo5TOkGB64LyAAB6QDoADD0gBACZ/lMJKENNuEPWBYkfZnFECQAAA9w94BtPTNlNToMk9dONKPoHoZ9tEQYsPSCTesDzu6GH/+x9mxz+Q1f7xB21ARh7wODGBnuBmvgvQTNyZPz64Mbg5DiVAZDxwjwgPwCgB6RjAOwBEgOgGMD9AaINZO4Bmo80/ZIOAAAGWHtA7cEj1ov9Z+fuBjd/JYM+eRqFfsoDbwwARtvFxebwoyekc3+9AURsMMgF9a5tWJfZT56+w54c59cD8gMAekA6AMAekAAADf0kEYQeIAIgMZJFPYBGeU0nBQAABth5gNHZzuzPf7xxI7jzSxb96SDBQAQDSwa41AO+9s0pYPn3wMGFr66Op/waEqi/ZMCAnpGpN985D/zZ2Le92WxenF987KlTKRIwMlWAB+QNAPSAdAwAPCABgLAA0KoGUxigBySCfqtQnKEHcB9g6dN0AAAYYOQB3fXD8Ooo9zOPjl19YM04DfTgjjEDHOsBP//1Re4nVz198rlpdWQPwMDm/VV9g3pAqyyc1clxnAeEiaD8GQAFwLqT/IyeXhFs1FHdD2w63mH3CUsAQKf/tOOdARWuB6iCDjsOAgCAAUAPcFns/9vfXwom9XWa3knpZOIBFvWAvpFJ4KFsM7OLwfR/yNEAjOsBPVmcHCeqAOFBAfUAAwA4MAA9wNEDJAAgc3/2sQy5oKruD2ADvaoPBQCAAXoP6K4ffmDNODAzzv204dnO9bEg+pOmTQEpzMDYA+zOC3r51bPcz696+qO954LoT5o2EaSa+7PjRh7QOzzpeHJcPN+P9gTwI7mtC4ICYP1077qTQTOa76tebDrfV72+YzxAAgA68ec66AFiLigesa0HqOIOO24AAAADNB6wZuOk9dnOL796Ng79hgzIxAOM6gHAPQ237yw/tL41eYcxQJ8pir5qUg8YngxOjvvrLfbfA7xPT45jVYBbKZRTPQAKABr9HRiAHmDtAUoAsAaA9YA40AubxRzrAZAPsxkAAAyQesCmbRPnL8DORE7+0OHZzjToc51CPMCoHvDYU9DDf/a/fyWI2kPkvDk/HtAzPOl4ctzwoydoJYA3AGIGOXgAFADUACgJVLN7+LhqXm863gEeoAQAN/2nT9EDNDCwuEAmGUvlz4wBAGAA5wE7nm4A70PnfsTW2c6fddcPt1qU/LFiQCYeAKkH7H//Cve3UD0N7n4Jo78BA6KZvr5sYOYBmZwcR6M/KwThYNYMgAKAxn1iAOgBm2b6pU08AM5iRFgXlAIA9ABduGdswNoDVKGHHbcBAIAB1AOsz3Y+ffZ2cLZzGP0zYECyMJBLPaC+bhJ48E5j+lYy+hswgM37q/pG9YCe4cmekSn3k+MoA6gTxJ1MGWAGAIIB+gif7GteaTrfV72+0h6QAgA68ec66AE6MJjUA9hAr+pbAgDAgK7+UeuY8unk9cGHx5PRPwMGZOIBmnrAq29Ad//u/uGMDABHgTXhPDygZySbk+NEA8jcA2wAQNJB9FET3NVfwnqAUT0ABAD0AF24d/MAVdBnx+0BoGVAd/3wvt/Msf8jeD882zkx9yfRPwMGOHqAvh4APG/nxs3l+tpjCgBAGaCa+7Pjxh4wPPnYU6eARxhxv1Byclw85Y+WBiVGMvIAGwBQA6B5IXWgh64aUs3rTccr6gEgAHDTf/oUPUAHBpgHcB9R6VMnACgY0Ds0Zn0jVXAvyoNHZHP/zBiQiQeI9YAnn5uWvsPi4M9/fVEd/Q1yQdl7QCtqr9t20m69Fj05TikBGe0RswcANQCsB0iLAZtm0uf4kPJAqx5gAAD0AF24t/UAMfSII64AEBgw+PD48YbNnbRLy80f7T3XVT9MWq4McPQAcX9A9+AnBw4uiG+vdOTrO0+kAcCzB7icHDc6dnVgY7w0iBpAXCFw9gB7AKAHqOI+Ow4J8amv2XLOAAB04s910AN0YEjzAGn04QYzAADDgEc2jdtNHu/cbQZnO/ePUgB0KVNAVAX8rwui9YA1GycXF7m3Vv50/Nh1QPT36gGt4yIyOTmOVQFCgkzqAa4AQA9gw720nxrfAS9Ycd/K97iArn+KHqAL9+YeII9AydFsANBigOvZzvXWXfORAZTfA9h6APwq4+/tOQsGgGcPcDk5bnbuLnd6aGwAzvsDXAGAHiAN+twgIMTr80UtABgyQEoI9AAdGNQekAz18mcBAGT3CYs3DOtHvv74pN1if3K2c2vrQAsA/WEKiKpArrmgrOoBwDttLs6Tw3/IBB/4CNojln09oOUBPcOT1ifHNaZv9a5tcBKQeGqbC8oGAOgBXMQXn7oxIAKAIQPQA3Th3sQD5CE/ORoCwI0BtQeP2GV+GidvDD483tUfhX7aaR8P6B78ZNcL0N2/P/nZlybTf0oIEAPY9T+qvsW6oN6RySe++wXweLvkP67mnjdmJTUAdoGQFQOyAQB6gBjxxREHBkQpoJXvmeaC0AOADIhfJvMA7tMofRoDwIEB8AjI/gzkbGdJ9CcYKJABjh4AvM5+abm5dvNnVgCA5oLy8wC7k+OOjF+npwOxNQBHD8gSAOgBYtDnRmwZEBnAqj8GAEAPqH24StWYeX0c02GDmn3CbLRV9aca14IUEG19o/pUj/jV7v7Rfe9eUP35qvHf/v5S7cEjyuhfOAOs1wWt3fwZ8H6Vj0YXbKO/QU1YNfdnx+08IDg5btrs5LgrC4spBmBVDwD+GOFRoNxMX//UfXPA+ule030Aqte3+f6ApAGYMwA9wBQG3HlBquDLjk81rq2i0Z90zBkAnALT/++Bgwvd/aNBI4VfmvkRO6X3APjlNrte4A7/oRkeeAeUC8rJA3pHJvf9bp7+EiGdq9eWKABUBhAWh01yQdkDAD2Am/WLT809IGkA6AGq6T8dh035pVSQegDkI0oA4MSA3kOmN80uLjZffWOGOzNOaQMFMsDUA766egJ4qf3s3N2eoaO1QXisV70SxAB2vq/qG3mA3aGhn528TQEQBnq2AMD1wQzIHgCcFqAHiAAw3yMWAYDM/dnHVX+Uzu7hg7guSIqBcDCqBxgBwIUB8DNw2B+JbPqNMCDUgVkbKJABRvWA7+2B3v3y+ltzIQCKYkCGHvDQphPHjt9kf3fA/t634yKw3gCMPCAvAKAHSOM+O2jiAREAyNyffcR6AJ31i53sPADyKaUGQNJHcTEAXhPuHx18eNxuDeiBgwu9Q2NlYwDcAz6dvA55kxcXm2s2TgbTf9oSB0GrJvua8YI8oHdkct22kzOzsE1uyffi4vziwIYGNQBoB+ABeQEAPYCN9ao+mAERANi5P9tHDxCjPxlxYEBsBr2Hkp9H+TMOAJYe0D/6/degB2FyPwdZCdoqBowqs0CF14QhHrB5+xT3d1E9ff/PC8GeYRr9SacQBjh6wI5nzgBzXNzf/fad5R3PnFEFfXYVkNhPvUcsXwCgB6hCPx2HMSAJANYAsB6gCv103IEBtB7AfSalT0UAWDCAVHThu2G5n2R27u6mbRNt5wH79kPXPu14usFH/wIZoKoBsOPSesDzu2eA1xtwv9ArC4uPPXVKFf1B41oPyBcA6AE00Gs6AAYkAcDO/dk+egAN+lzHgQHEA7iPpfSpFADGDOg9FITvvlHr61/Cqx/7R1sYaIN6wANroFmv02dvk6NDPTLAwgOs73KYnbu78QlQ9Bfn/uyIxgOgAFjbsFkJSgCAHqCJ/uRLaQyQAQA9gIvy+qe2DCASII343KAKAMYMIEfC9Y3ueLpht2t0abn5/dfo0qCyMEBVD4CnvPb8+Bw5PVSSBSqlB/QMT775znng5gbun9NnJ28/tElyFCho1s8tClKfHW0AABcGsCqA64KkPNAyQAYAdu7P9tEDVCSwZcCqnoPch1P6VAMAGwa0MPC/t4wDz8YRfyRmaVBZGCCtBzT+CtoSdftOePcLPTe05B7QNzL5/p+h51pzv76PRhf+8ZFGcMFk645JYNBnZ/1iX+oBZgBwYQB6gDTus4NqBqgBgB6gCvfScVsGcJ9P6VM9ACwZ0BesC5pqXJP+H1MHmaVBZWEA6wG1oaPfeAJa/t337gU6/acdjwxg8/5if3BjA7iuSfwl/mL/fBDxoyPkjBiQggqhHmAMABcGoAew4V7aVzBADQB27s/20QOkAKh9GK/tMYGB+CkVR1IBYM2A3qEx+B0p3A821bjWOiSudOuCCAngG9+2PHGCxn0qAX5zQap6gPVFYEvLzWCXAxv6aV/M6ihGxLk/O8J5gA0AXBiAHiCN++ygjAFpAEAPUIV76bhJ6HcvAnOnSljsDyBLg9755XkuuEOeLi03JcdEs1vDaL/APWJB9B/8ZPDhceDamGPHb7LRn/TFuyQTQlDU2lBu+m99FfCdu83v7Tkrj/6GuSC4B1gCwIUB6AFsuJf2BQakAYCd+7N99AApAMw9ABJqIQZgv0esLzjwx3pp0NVrSzuebpRqXVD3wNiP9p6DvLHNZvOlH5wRAcBiIBH66S6BohhAVWDXC6fs9vEFv6BnzoTZHjrrFzuKWb8Y8dlZv9inHmAPABcGoAdI4z47mGQADADoAapwLx038QBInIIDwDoX1N0fLA2yCzG37yx/b8/Z8jDg/sGPgTcfXL229MCacREA7D1ifnNBRAJ2//BvwMssuX9OM7OLX995Qjf3Z0kAZoBIhcRIqx7gBAAXBqAHsOFe2mcYAAMAO/dn++gBUgCYeAD3iZU+NQKACwM2fePo+Qt3pT9D6uBPfvZlSc4NffK56dSflrzgnV+eF6M/O+I9F0SWewL/OtzLjjduBMs92RCf2gczQJz7syM9axuuAHBhAHqANO6zgxEDTACAHqAK99JxmAdwH1rpU1MAWDOgq7U0qHHyhvTHSB1878B869Qgz+uCgGXtpeXmP2+dZMO9tO+RAX0jk/BSNvfbSSz3TI377AvADEjM+oXvygAALgxAD2DDvbTfYoAJANi5P9tHD5ACAOYB3OdW+tQCAC4M6B0a+2jUcpn5p5PX5fdH0oJwzvcJP7R+ApgtOTJ+XRrxpYPF7xMe2NAYPwY6xk78N7P//Su9I62V/mxkh/eFaK6K9eysn+sDAdDTupGY3Essf2RDuVEfPUAa99nBzefMAYAeoAr30vE0DxA/veKIHQBcGNDdP/qrfbPiTwIZOfvF7Uc2ye4QLoQB8MOOnn3xTPfAJ9Jwzw56qQe4LPd8853zteHJGjzcS18JZoCKDXAA5MgAFhi4T5gN/VF/xX33tW6CZGf0dn30ACkA0jwAElKtAeDCgK6+0VffmLE7bODKwmJraVDRuaD7Bz8G1jAuzi/2DB0NAABgAOFBYbmgLU+cAP4tuH88ZLmn9Mw4s0oAQQKYAdzcn9wwbASAHBmAHhDF+n5ZpwUACwagB6jCvXRc7QHcZ1j6NABAz0Fu1T/8qcX+gPBW4d5Du144BVxQz/3ki4vNZ188U/DZ0c++eIb7MVRP9749G0b/UjFg9cSTz03brcUiyz2jZaOBAfj1AFMA5MgA9ABZ6Cc8iABgwQCpKKAHSAGg9gBVhGLHQwB4YUDf6DeemLo4b3PZSLPZDOJscHqoWgUy3SN2ZByUNF9abq7d/FkCAGAPoFuF89gf8PJr54AFDPafR7MZ7Mj7+s4TJPqTlaPePcACADkyAD1AwQAGABYMQA9QhXvpuMwDuE+y9OlU4xq9PwA+8edeae0Bq3oPPbJp/PTZ29KfLXXwt7+/dP/AWAEMWLv5M2DCKrjvfmCMBwCAATnWA1ZPvPmOzX7sZrM5ffrW8KNh9I8MYKLV8ekBdgDIkQHoATIGJAFgwQD0AGmsVw0KDEgNoM1mMzYA8u3RfcJciE99as2Arr7RB9aMA+fX4t9odOxqsN+qnq8HwA+0ePK56ejkuFYNgGSB/OWCeoftl3seGb9eXzfJzv3ZAyQ8eoA1AHJkAHqAwAABABYMQA9QhXvpeJIBYrgURygAvHlAf3BcRO3BI7/9/SXxx4OMTJ++tWbjZH4e8A9DHwOvRTz7xW1ydnRJGFBfNzk6dhXyHoqvIcs9a6snorQPmfhzj348wAUAOTIAPSDJABkALBiAHiCN9apBhgHip1ocoQBIHDhasAe0GNDdP7r37VlgpoX7i1ycX9y8/bOcPOClH0DLvz/ae46EfgYDlh7gXg9Ys3Hy5Ok73BsFebq03AyWe65OxHp27s/2vXiAIwByZAB6AMMABQAsGIAeoAr30vGIAZBPOwcAjx7Q1Xuou3/UemnQjZvLu144lYcHHDt+E/JO3rnbHHx4PJr7j7kwwL0e8PWdlss9FxeD0z3Z6K81AD/1AHcA5MgA9ICIAWoAWDAAPUAa61WDLQZAwhYHAJ8e0LpNrLs/WBoETLlwf8Gl5WYwB9csDTJfF/T1xye5/4vq6XsH5mn0p50IA5YeYLc/wHG551eTc39VDcCjB2QCgBwZgB7QYoAWABYMQA9QhXvpOPxKyMgYaPT35gHRxcKPbBoHHrophuN9++dqDx5RqoAhA/a9e0H8X0hHvvHEFI373QOsAYy1xgtiwMuvnrVb7nn+wt0tT5yQRn9WCNT94uoBWQEgRwagB2yaSQOABQPQA6SxXjEojVPcoM4ACBgKrgf0jZKdYg+sGbe+npAsDXJnwANrxoE7p6ZP32KjP+0TA3D0AHg94PW35uyKKOrlnqBKQJQmKogBGQIgRwZ0vAcAAGDBAPQARbhfJYxzsV76VAMAvx5ALhSzPrFy+vSth9ZPODJgz4+hd798/7UZGvS1HWMPANYDvrp6Yt/v5qW/4tTBcLnnUCLWq2f6+pcVwQAoAEam6B0y+o78qDh6lhw7nbfud955QSvuve/3wXFAqU06rzcdxH3CWQOAZoSCjhcPaK0O+snPvkwNYdIXzM7d1V0sDMgFTZ++Jf2TucEbN5eDvQjB/i95y8QDNPWA+tpj1hspfvv7S0HaZyhqsgIABwM2+y/2C1gXZAAA7wzoYA8IAJAXA9ADhHCfuQEQAPj0gCgdZHep5E9+9qXSAMgBEloG7Hi6wQV61dN9v5lThX7FuLEH6M+Mq689BmQV+1eIl3uGl1AaMIBDgvA0Xw8AAoAcJBccKdq6Ryz1ET2gb+PnwNa/aSZ85aaZPkULAZAXA6SKgB7AgIH9tKv6mhRQwgC81gO6+oJLJa9eW1L9LcTx4EiGYDmQ9rAg7f0B8OzT5u2J8q8i6Idl4ZzqAWs2Thod87m42Nz9w5kaf/+wAQPEuT87kqsHAAFATpMOMeCXAR3pATEA8mIAegAT7nMygJJ4QHf/6D9vnZydA10qOdW41ro+jADAhgGDD4/fAf2vmp9OXu+uyzM/KhJE48YeoK8HfH3nCWDJmuyZEKL/0daIAQOEiT9XHsjLA4AAiA2AnD7tlwFs8aAz6gEJAOTFAPQANQPEebE4YmYAvj1g8OHx442USyWZ1D8FgDEDfrQXWv793p6z3fXDcAbkWg948rnp1DWgF+cXtzxxQhH9jRnAzvrFfk4eAAQAawDoAX0bTisbOPOjSxAJiSAeAHkxAD1AwQAx3IsjRgAoQz1Af6nkjZvL/7x1spX5CaN/d5DuN8sF1R48AlSNKwuL/zD0cRD9SVMUgaMpv1QUjD1AXw94+dWz4m+ZjkyfvrV282fa6G/MgOI9AAgA3gDQA/JhgKoeIAFAXgxAD5AxgH7sNR0jACSqAl7WBbXKwt39o9LjORcXmzuebkSpf3b6T/vqQ0OZesCTz01r3jH2Sz/52Zdx9DdhQCYeoNofoDr8OVruSUJ86qNBLkic+7MjmXsAEACiAaAHKCVgw2nd7B6uCIwHyAGQFwPQAwQGsKFK1bcAgH8P6A82i3GXSi4tN1/6wZlosk8jftgx8gDgtfXh3S90+k87hXiAph7QM3R0//tXuN/4ewfmW8s9U+M++wIDBhTpAUAAyA0APaAoD1ACIC8GoAckGcCFAOlTCwCUxAPI0iBa9tz79mywhTjM9ug7Og9Ys3ESuJl2dOwqP/03ZEAmHiDdH/DV1RPszoCf//oiIO3Dhn7aN2AAO+sX+xl6ABAAKgNADyjGA3QAyIsB6AEMA6QRnxu0BkAZPKC7f3TTN46ev3D3vQPzkNCv94Cglts6kpp7i1RPd71wKiz/0rjPdgrxAE09oL72WGP61tJyc8+Pz9lGf4IBAwYU4wFAAOgMAD0gfw9IAUBeDEAPiBigilzsuDUAyuMBgw+P1x48EqT+oQZA/EDiAb1DY8A7is9fuHv/wFgLAK0lQGzop30YAzLxAGk9YO3mz558bjq4YZhf7286YsAAce7PjmTiAUAA6A0APSBvD1hx773BTmB9Sz8oAs8L6v7TSmmrfbhS0cieADbQq/qOAPDvAX3BhWLB9D/aNpyqAioP6O4fffZF0N0vS8utK+mD1Z+0RQuBaPQnHRgDksuEjNcFaeoB8f3yBTIgbw8w8mDvKAAAIABJREFUAgDBgO4R9wdIbQBe+BVeSdYFtQDgiwHoAbUPVUGfHQ8AUPswMZ0XToeGftXfuqA4+hMMgCoBEg8YP3adfXNU/cXF5kPrJ5joTzDgxIBMPEBaD/DCAHbWL/YdPcACAGS+r3pMPSWCvCCvsyIquk94xb33vhtIgC8GdHw9QBW/2PEQAG4MKIMHmDKA8wCy0xhY/g3ufonn/lQCXHNBjh6gqQd4YUB+HmABAJ0BYD1AagBkUJjdw1eLEgB4ZUBnewAb6FX9GABuDIgtoW09QLq3QPq+7Xi6EVQdcmBAJh4grQd4YYA492dHrD3AGgAqA8B6QB71AAoArwzoYA+QBi9uMAEANwa0rwd01w/3Do0BD5s7+8VtdfTPIBfk6AGdUA+wBgB6gC7QZ+0BLQDc9/tWIsgrAzrVA7hYL33KA8CNAe3rAS/9AFT+bTabr74x0yWf+2eWC8rEAypcD3AEAHqADQbMc0GRAZSBAR3pAdKIzw1KAODGgHb0gK7+0dQz5sj7dvvOcnDJTOsiAUUKiGLAqSbs6AHVrgc4AgA9wAYA5mdFRAAISsHvBotB/daEO88DuFgvfSoHgBsD2s4DNm//TPrmiIO//f0lEv0LYEAmHlDJekAmAEAPsMGAiQdEAIgNoEUCXBfU9cFKVZOu9zcdjDYHiPFLHFECwI0BbeQB3f2jv/39JfGdkY5s3v4ZC4C8c0GOHlDVekAmAEAPsAGAiQckawAEA+gBqtBPx03Dfev1q2ofruz+E3kMdo21GCANYdygDgBuDGgXD3hgzfjtO8vc2yJ92jh5I7xjUnuXpJAacsoFZeIBFasHZAgA9AAbDMA8IDIAkgLiH3F/QO4eII1i3GAKANwYUH4P6O4PThXl3hPV09Zpo9EBEgUywNEDqlcPaPz1lup3xI6nz/HJDgD9I+4Tlq4OAjCAMQB2+h9nhPwxoDPqAeyHQdVPB4AbA8rvAafP3la9Oez41WtLrWsmIwAw9wdgPaB11lBx5wVlDgD0gDw8QG0AZWBAB6wLYuOXqg8CgBsDyuwBO55uqN4ZbvydX54P8z/BFWNRax8PqFI9AAqA4clsJGBkyvNZEe15nzADANYAaC4oxAB6QMa5IFoJ4EKY9CkUAG4MKK0HvHdgXvq2iIOtmyajuE8B0IYeUIF6gAEATBiAHpCtBzAA4IJ+bAC4Lkgd/UlZ2KomTE4PFaOYOGIAADcGlNADBh8eT71CnbxjR8avx7N+NvqTfvt4QDXqAWYAMGFAijFgPcCkHiADACUB3RmAHkDX/6g6tgwQw704YgYANwaUzQN+tPec+IZIR5598Uzr0GmZARTOgEzWBbX1/gBjAJgwAD0gKw/gANDaCCbNBYVU8JcLqlw9gGSBpLGMG5xqXFsZXSBDbhFIf7Q+L7rnYHk8oLt/9PyFu9y7IX16cX7x/oGx1jUDagAUmwtyXBfU7vUAGwCYMAA9IBMGcAAg2R7mkYUBeoBq+k/HzT1AGs64QQKAIhlQEg/Y9cIp7q1QPd379mx450xwzUBZGJCJB7RpPcASACYMQA9wZ4AUAIwHsOmguI8eoK4KGDJAFdHYcQqAIhng3QO6+0c/Gl1g3wdVf2m5+cim8a7+Ue7+ACUJsB6QuHrMYG0o/P4AewCYMAA9wJEBUgBoDQA9gM73VR0TBqiCGjvOAqBIBvj1gN6hsbNfgJb/fzS6ILtjslIe0Hb1ACcAmDAAPcCFARoA0DOiGR7EEuD17OgK1QPYQK/qcwAokgEePaA7mNGP7ni68d6Bef1CoCefm2YBUD0PaMd6gCsATBiAHmDNAA0AorgvlgFCCfDKgKrsE1YFfXZcBECRDPDoAYQB3f2jgw+P/2jvOWlBeHbuLpP9J3cIs4+V8oA2qgdkAAATBqAH2DEAAIDErD9JheBLWA9wqgewgV7VlwKgSAZ49IDwGuH+0a7eQ7UHj+x64dTo2FX2WuAf7T3HTv9pv3oe0F77A7IBgAkD0AMsGLDi3nuimC4N9HSQ9QBu0CMD2t8DVEGfHVcBoEgGePQAepU8EYKuvtFHNo3/5GdfXllYXFxsBne/BCt/9K1SHtAW9YDMAGDCAPQAUwa0AABkAIn7UhJ4ZECb1wPYQK/qawBQJAP8e0DfKIVBV99o79DYjqcb+tBfPQ9ol3pAlgAwYQB6gBEDIgAYMYAzgLAk4C8X1M4eoAr67HgAgOj+AHKLAPeYvi+M3UfmsEesDB7AMiDop8z92RdUygPKXA+orZ7IGAAmDEAPgDOAAUA6A5j9AXEdmM0g+WNA23oAG+hV/RAA5WBA2TwAwoDqeUCZ6wE9w5O5AMCEAegBQAasuPee/UEZgDY6u4d02HQQeoBqWwAdl+0PUAV9djwGQDkYgB4QXSjm/x6xctYD8gKACQPQAyAMIAAwYgDjAXJIoAcYrAtiA72qTwBAT5Dm8j/s08JyQegBmTCgkucF5WgAw5M9JgxAD0hlAAWAEQOitI9oAOgBdL6v6iQ9QBX02fGEAZBvj+6UZ6M/6RfGAPSATBhQyfOCcjQAQwagB+gZwALAiAG4T1g9zVeFfjrOMIAN9Ko+awDoAXwROLk0KLUmjPWA1t2QRw0fDc4Lyt0ADBmAHqBhAAcAIwa0PEApAV73iLXPuiBV0GfHJQaAHsDFffZpp64LKk89IHcDMGQAeoCKASIAzBkgVgLCRJBXBrTJuiA20Kv6ogGgB6AHkIVA9LE8+wOMDKBGQrn148hUygQf+IJOvUdMCgBzBrAeQHmA9QCa81F1uv+kCvrsuNIA0APYiT/X71QPKMn+AOA+gNrwZGEMQA8QPUAFAHMGkLgvJQHuE1YBoOsDNtCr+iwAyNyffSzJHjFcF5RJTdhxXVB59gcYAaAwBqToQud5gAYAtgzgDAA9QB39V5oDgFwlL3nEdUGcAZCnneoB3usBUACsDgwAPaB33cmgrZ9OPK6fDkYMW9+G073rp8ljr/SCeGZQDwAjBjD7A8KgH60WDZGA+wMkC4dUs352nDUAEvpZA8B6ANYDaCUgNIDBo+xIbfCopCUuBTNdFHS0NpSyLggMgIla4QxAD6C5oFQAGDEgGfHZdBB6gMID2ECv6osAkBgA1gOkBtDZHuCxHmACAA8MwHoAYQAEAEYMYDyA5oISHfSAhAeogj47rgIAekDK3J9FQlouCPcHGO4MINKg9AA4AMiqIfSAMAtEckHso2EKSJ4yYtI+dPrft+E0EABGDIg8QDQA9ADBA9hAr+qrAIAeYACADj431Es9AA4A5qJ5rAe0KgEF1gPgADBiAO4TTkzzVwpxn46ogj47rgcAeoABBjrPA3ztD4ADgBgAeoDSACgP3FVA8AAjABgxAPcJgxjABnpVXw8A9AADAHSwBxRcD4ADgDGAiVYfPaA4DzAFgDkDEgUAhgrBONYDjPcBqMI9eoABBjrPA4rfHwAHAGsA6AEFe4AFAMwZwBYDKA+wHtDKC6lm/ey4pQHguiC2CMz10xjAHCpXqXvECqsHwAEgGAB6AGMANP/D7hKwygVJ9wfYAcCcASTuS0nQ2R7ABnpVHw4A9AD0AHYHANcvsh4AB4BoAOgBhXmANQBsGcAZQMd7gCros+NwAKgSROK1AXQE7w9gJvvsBcJcv1IeUEA9AA4AhQGgBxThASvuCa6EtG7wuySZ/QFh0I9Wi4ZI6NB6ABvoVX1TAKAHoAdwc3/xad4MgANAZQDoAQV4wIp7vrK/KAYkIz6bDupgD1AFfXbcFADoAQYA6OB1QbnWA+AA0BoAekC+HtACQHEMYDyA5oISnY7zADbQq/oBALo+UIZ1UuwVHtEDDDCQVhOu3j7hvOsBcADoDQA9IFcPiABQHAMiDxANoCM9QBX02fEQAOYMkDMDzw3lVgSRp2kMYEoFWA9IPzwODgCAAaAH5OUBDACKYwDuE473iLGBXtWPAWDOAPQA9ACxAMCN5FEPMAUAekDKTJ89HUjsWy0M7V0/nQRAcQxgdoSJKhAkhfzlgoq9T1gV9NnxBADMGYAekCEDquoBmdcDTAGAHmADAOf7A1bc85XfBHVgttkvCnJeG3rvu/eGiSCvDCjwPmE20Kv6PADMGYAekCEDsB4AOTfUDgDoATYYoEJg7gEEAF4ZwBoALQh3TD1AFfTZcQkAzBmAHpAhA6rqARnmguwAgB5gAwAHD6AA8MoAEvelJPCYCyrEA9hAr+rLAWDOAPSADBlQPQ8ghYGsGOACAPQAGwxYeUAAgHvv2d9KBJWAAZwBdIAHqII+O35lYfFX+2bboP1m9lc5t32/mcus7Z/bV2i7sG+/Q3v3wj6P7Xfz+wzblYVF9t+wqg+e8pOFQNwjnhvKrA6y8gDWAH7jrx7A7A8Ig360WjREgr+acM4eoPpg4Di+A53wDmgAgB5QgAfEBlAuD2DTQZX2gE74kOPfEd8B1TugAQD4S+gB9h4gGkA5PIDmghKdCnqA6oOB4/gOdMI7UBvisjr8U/SAXD0gBgAxgLJ4gGgAFfWATviQ498R3wHVOxAAII0BMBVAD7DxgBgAUR2YGIBvD0hM/KtcD1B9MHAc34FOeAdCAKQxAD0gJw/gAVAiD1BKgNc9YlnvE+6EDzn+HfEdkL4DS8vN1p6ylgSkMQA9wJgBgHVBPABK4wHcrD96GiaCvDLAbV3Qyq4P7lv1R/oIXC0n/fzgIL4Dbf0OXFlYjDYVgxiAHmDMALo5gNwoKWwVlgOgpB5A80IVqgeMjl1t688w/vD4Dli/A0fGr0cAOArMBaEHGDNA6wFyAJTRA9iMECVBu+8TXvnerhdOWX9+8BvxHWjrd+DlV88yAIAyAD3AmAFqD9ABoEQeEEf8Vi4oAQN/a0Pd6gHBHS9dH3T3/Gn82PW2/hjjD4/vgMU78Onk9a+unkgCAMoA9ABjBig8QAeA0nhAdfcJr3zvvlV/7O7501TjmsVHCL8F34E2fQcaJ2+s2TgpRH9yzwzWAxq9a9WNnc5b96NiQDoAyugBrAG0bT2A1oG7e/7U3fOnV9+YOfvF7Tb9POOPje8A8B2Ynbv7+ltzfSOq6G/AAPQAdw9IB0AZPYDLCIVP/eWC3NYF3dfygOBx5Xu9Q2MbNxm2zWMbc2j/e8t4Tm3TN47m3rZNbMqoff3xSfe2eftnWbepzdtt2pYnTnhs6lm/eMckeoBaAtY2jEO/1BVaN4KxO7+U/XJ5gGgA7e8BpCRw38r3iBnct+qP7GpR8lWnR+HWeOkNAeyR0eIL2K/G/dqHq0xbz8FV7q330Cqr1tV7KG7S+4FNB0t7n/DgJ90DY8E5z/RxYCzo8+2T7oFkG/yEuzZS+pScHU0yOfcPfhymdAZb0Zw8DomRHT4CYgB6gDEMmHrAinv+Xhn0ZXN/9sVe7hGryH3CK1cFuwHEFmKgtVGA5ogyIwGMATTuxyG++08kxAdfasX6la2RsB/dMm+GAQcAdPUeCvlhBYBVLAB6DxlcEqABQxoDynZ/wP2DH3cPjJHHFg+SABgAAYClQm3wqKQ5AQBaE8Z1QcYMiISgBQAwA0rkAUoJ8LpHzHZdEJ31s0E/s7jfWm4U2gOAAd09f6IM4DoxElgMtKiwsoWBwhgQC0T7MKCE94gRFYgwYMmArO6QcakJowcYM6DlAREAwAwQtMCLB0Qbg7liQJgI8sqAtHoAmfsHgZ5ke6JHGu6pFrAwoH2nLBAhAYABJO7H4Z7M95OPnAoQAJBBAwygB/Qf7hJb/XAX07rrh7VtrLsua3yeR8z8sAZAvtrGDEAPMGbAupMMAMAMKKkHUBi0RT0givsxCaKMEIn1FAOkwwKAoMKJBGAGcAYgB0PtQ5oRQg9gpvmjaX1Z6KcwYADQlQKAw3IA1CURX8j+B69JpoMsGdA9+ElYEvCXC0IPMGVAEgBgBpTOA9iMECWBr33CogRwI6v+qKoBsHGfBn0qB3TEKfqDPYDkglQewBpA8JpkM5CA2odxPsdcCLAeEMmBTALADEiCwZgBtcGjWA/oGZmybGsbPYCm2xxguy5IAACYASXygDjil3ifMGVANNMPwnqyFEzn/rTD8oBO/GnHFQMOHhBTQVEMKDIXFPMD6wG2uaCsPADrASoG9K5t9IxMqR4hAOjR7A4jX4pKu3APkAEAzIByeEA77BOm0T9a8h+GfpoISpKAS/tQAwjHV32wclVwjEQGDcYAEu7Z/E+Y84mqAqENJCWgSAagB5TBA4gElIEBWA8AMmDFPX+/L1gJKravsCs+lf0yegCbDipJPaAFgCDot5YJBRP8FglIhz5lnUAqAXQwAECxDKARn6sKxCoQwYBLBxWWC0IPyIQBWA/oGZ40buDkj8oAyHjxHkAA4MSA0nkAlxEKn3raJ8zO/Ve+RxkQzOWJDUQZIS4dRJM/JOjT0B+P+2AAKwFUC8JOtBeMKwagB+hLwWXbH5AsBozxG8QA+wOwHqDKAoHGAcWADHNBFABODCiXB4gG4NcDktP/ROgnKaCIASS4q0hAE0EUBoV5ADvN5wxARALlAUsC9AA9BqKvVmpdUBlyQbguSJ8LYgHgxIASeYDcAMjWAa8ewBYAyJYxwgayJ0BWBojn+617xOhT2imMAWLc56hA437QkbXCGID1gExyQUkVMF4XhPUA0HxflTsqygM4ADgxoEQeoJQAT3vEOAmgyR+KBHZfGIAEVAJI2aDIekAY6GXVYxYJlAcsDApjANYDMmEA1gOMiwHDk/C4X4Z6gAgAJwaUwwNKuU+YJv2llQCKhCgdpEkExdP/SAsy9oCuD4L5PnkMOsFp1aIBiMkfWihWSQDWA6JUj3yPGNYDFKdB6M+PA50Zh+uCpLkgKQCcGFBSD6B5IY/1AIYBQRCnJCBBny4JjdYI0UAvdlgDIF/NmAFkgt+6sGxllzL6q6gQjMuyQGQQPUCPgeirWA/Qx332qyAGYD1AZIAKAE4MKJ0HsBkhSgIv+4QJA2joj1JA9FwgGs3ZJaEiAMKXtQyAwiBjBnAeIMv5UABIkj/lYADWAzLJBWE9INdcUErWKM96gAYATgwokQfEEb8E+4QFCQhCOeUB6QMMQImEPNaGRrmgMK2vJQFFQthBD5CeIJ12dnQkAaOSc+LoYUH9iQPj8Lyg2hB6gPEdMnoAODGgHB5Qyn3CnAdET8OdAYQHrbyQvhJA5v7sY5Y1YaYMENQAIgzwIZ7hAXqAwdUCaQzAegDWAxJmkI8HpALAiQFl9AA2HeSrHkAifhT3gygfFQCIEKgm+MDxjHNBNMR3fWAjAeXIBeG6oExyQZmsC8L9AYnIzqwELX5dEAQATgwonQdwGaHwqY/9AUkMkFMiYgBE64L0EsDtDsu3HsA4AXqAwWRfmgUig53nAbg/QBX9QeNZewAQAE4MKJcHiAZQAg8IJYAcFtQCQxDKGS1IxYAoB9l7AFkURIXAtIP1ACkJ0hiA9YD8ckG4LggOACcGlMgD5AbgaZ8wKwHJjJBYDxBDPDvCVgJy8QBaA6AdLQCwHmCgCGkMwHpAfgzo8P0BRgBwYkCJPEApAT72CcsYICaC2Fhv1M/eA7RxX5MawnVBOiSkMaCqHoD1AFXmp5h6gCkAnBhQDg8o3z5hbu7fekqSQjEJoh3C+uifuwcYRn/0AF3Q5zJCaQyongdgPUAV/UHjWdQDVtzzd/taVwIYPVbi/gDWA2heyG89gO4LkyIhOvhBzwDpV9ED4lVA4q2TeI+Y73vE8D5hVcTP2wNaACiWAaXzACkJit8nzOSC+Ol/tCJIGtzFQfQAXbhnAID7hDNZG+q4TxjvD1BFf9C4mwdEACiWASWqB9C5P+kkYFD42tBo4k8rwEFwT2qBxXIgSgj0AB0Y0AN8ewDWA1QRPz8PYABQLAPK4QHl2ydMD4aj90cya0NpKId00AN04R49oH44mv7Tzli3AwMcPQDrAaroDxq39YAkAIplQBk9gDUAX/WA5JSfM4DYCWBlYREV6AE6MKAHODAgk33CWA9QRfw8PEAAQLEMKJ0HcBmh8KmnXFAr/0PqAXxVABz90QN04R49oGQegPUAVfQHjZt7gAwAxTKgXB4gGoAvD2Cz/8z9ke4GQJwAPUAHBvQA3x6A9QBVxM/WAxQAKJYBJfIAuQGUZZ9wwgNMlgahB+jCPXpAyTwA6wGq6A8aN/EANQCKZUCJPEApAWXZJxxjgFoCOCPElQTQA3RgQA/w7QFYD1BF/Kw8QAuAYhlQDg8o3z7hqCYcx30uIwSO/ugBunCPHlAyD8B6gCr6g8ZhHrDiK3/3q2AzsKb9vdEmYaezIkrqATQv5KseEDGA3h2WgAEYANz0nz5FD9CBAT3AtwdgPUAV8d09IABAqRhQOg9gM0KUBF73CQcLQykSSBYI6wG1D+V3zTPzel2Ul70M9wlHGwVwf8BEbfVEJc8NDQFQKgaUyAPiiN9KDSVg4G9tKLM8NJjF0+hPO1ZOgB6gIwR6gG8PwHpAHh4QpoDQA+7lYn3wtJT7hOncv+UB1rkgrAfowj0jBOgBZfAArAeooj9oXF0PiA2gbAwoowewBuCrHsBN+SkP2HErAyAlAfQAHRjQA3x7ANYDVBHfrh4QA+Cev9tXNgaUox7AeIDEEkqxNjThASaJIPQAXbhHDyjZuiDcH6CK/qBxmQfEACDRv2wMKJcHiAbg3QNIQTjygJgEDhIQXDS/6oOgdWXRDO+Qkd8phvcJc7fHwO6Ur+o9YlgPUEV8Uw/gAYAeICsGRPUAuQH43yccx31ugRAMA+gB6AFd9cNsi/L+9KBQruNzXRDWA1TRHzSe9AAeAOgBCgBEG8SUEuA7F7TyvQQGSOg3SQfRbQG0gx6gAwPWA7AesDpYHgpok7XhsPUMT9q3kSlQiB+ZgnuAHADoASkY4FQgTAT5YECU/InXg1ISGEZ/9ABduMd6ANYDFLG+rfcHyAGAHpACANYDKAxKUg+gy4FYNsByQXTuz3bQA3RgQA/w7QFYD1BpAcQDdABAD0jBwL3v3islQfH7hKNYH2aBqARQGIABgB6gC/foASXzAKwHqKI/aHxtQwcA9IB0ANDpPw8DT/uEIxLwZ0W0SBDgAUwC7pXoATowoAf49gDcH6CK+HoPWPGV/xWcBaRp6AEKDDD7A+IaQFQrDsDgiQF01o8eoDogiBtn5vW6KC97Ge4TjtYL+VwXhPsDVNE/dbwFgDQGUDzoDg0t9uzocu0PIB7ApoPKUA8gJKAYMKwJcwZAnqIH6AiBHuDbA7AeoIr4Kg+IAJDGAPSAdA9g00Fxv3APiLJA/KrQaFwa2aWDWA/QhXtGCNADyuABWA9QRX/NOAOANAagBygYEKV9RAPw6wFRxOdJQHNEWA/ILhcUowI9wLcHYD1AFfFFD0gCII0B6AEKBrTqAfGsP0JCPOLNA4KpfXRcBF0jJJ3vqwbRA+Lgzsz6xUH0gDJ4ANYDVNFfOi4AII0B6AEKBrSCvlICPNeEE6E/MgNVxAeOYz1AZEA8gh7g2wOwHiCN+D3JfcIyAKQxAD1Ax4B41h95QJgI8syAIKzTgrB5Fgg9IA7u6AGtg4Oi+T53TBB96nNdENYDVNGfG1cAII0B6AE6BrAeQHngtx5AIz57jQxRAdtKABEF9AAdGNADfHsA1gO4iE+fknqAGgBpDEAP0DGAxH0pCXztDxCn/+a5IPQAXbhnzADrAZEf+PQArAfQcK/qaAGQxgD0gHQGcAbg1wOiiI/rguQ3yHOLgmofAsN9ysvQA3x7ANYDbAGQxgD0AAUDSrlPOJkIiksChrkg9ICUiB+pAHpAGTwA6wGq6N8zMpVmAP/rV6lnRaAHKBgQFYHFdJAvD4gMIFznw90eY4gBcbEQ1gN0YEAP8O0BWA8QSQADAHrAPfvvjdu7994TNZrhkXcYD1C+4PfBkaLadt9976W3aLE/XfWv7BAPiEoCknQQrCyMHqAL95EErOo5iB5QBg/AeoAY/cEGgB4QR39CgggA9ySn+fIor98iUPgeMSERRFaIso8BFWAYEF+GHqADA3qAbw/AegBLArABABiA9QBFLqjc+4RbPEAPAJWFmXm9LsrLXoYeUAYPwHoAG/0NDQDAAKwHKBiglwDfe8SkxQC3kgB6gI4Q6AG+PQDrAYQEhgYAYAB6gI4BYo4oLAh7ZgAxAPQA9ICu/lGudfcfjkYOdwV9RWttD+6KHqP5Pt0YzHVwf0Bwm7z3+4StAJBWE0YP0DFAujvM17qg1HqAbSWA1AbQA9AD1CRwYsD9gx93D4yRx+6BT/g2+Amp+qY+EhWoDR6VtKGjNac2URtqNcVt8jWD8cnacNh6hift28iUcwqISEAaA9ADdAwgHiAlQfH7hIW1oQkPMEkE4bogXbhnCgNYD4io4MSA7oExphkzAOsBVjUACoA0BqAHpDOAZoQSMCjLuqCYBOgB4iZh3CdcglxQJh7QyfUA2xQQxQDeJxyvEIWvDWX2B4TJH245qU8GxHGfKw7DMIAegB5AKwGkE833uTIAferTAzp8f4AzANADYgDsjzeIwfcHiOmgctQDEhggod8kHYT7A4AYCF+G64J8rwvqzP0BWQAgjQFYD1DkghgPoLmgRKdwD2DrAVE/JIFh9EcPAAIA6wGRH/j0gI6tB6z4yv/z/wWn/bg3bS4I6wEKBkSZH7YGwPaLrwlz64LYp7QPywWJEnDfqj/iuiAdGNADfHtAp9UDWgAohAHoAQoGlHefMJ37S9JBMAagB+jCPa4LqtMyAO349IAOrAdEACiEAegBCgaUdZ9wlAUKzpWj0/+oH1ABhgHxZegBOjCgB/j2gM6pBzAAKIQB6AE6BiQKAAwVgvHC6wHSiB9FfzGma0bQA3ThHj2gZB7QUfWAJAAKYQB6gI4BiQJAskJQAgZY3yEjxQN6gA4M6AG+PaAT6gECAAphAHqAjgHEA6QkKJ4B0ZSfLwNE49LILh1ED9CFe/SAknlAh9QD/n9qHjAmdDn1AAAAAUlEQVR5AeG0cAAAAABJRU5ErkJggg==;fontSize=14;" vertex="1" parent="1">
          <mxGeometry x="-1360" y="-1480" width="80" height="80" as="geometry" />
        </mxCell>
        <mxCell id="fKHsVGfNWyKWpTp4zAhi-139" style="edgeStyle=orthogonalEdgeStyle;rounded=0;orthogonalLoop=1;jettySize=auto;html=1;exitX=1;exitY=0.5;exitDx=0;exitDy=0;entryX=0;entryY=0.5;entryDx=0;entryDy=0;dashed=1;" edge="1" parent="1" source="fKHsVGfNWyKWpTp4zAhi-92" target="fKHsVGfNWyKWpTp4zAhi-89">
          <mxGeometry relative="1" as="geometry" />
        </mxCell>
        <mxCell id="fKHsVGfNWyKWpTp4zAhi-92" value="Trigger Webhook" style="rounded=0;whiteSpace=wrap;html=1;fillColor=#dae8fc;strokeColor=#6c8ebf;" vertex="1" parent="1">
          <mxGeometry x="-1560" y="-1455" width="120" height="30" as="geometry" />
        </mxCell>
        <mxCell id="fKHsVGfNWyKWpTp4zAhi-93" value="Test" style="rounded=0;whiteSpace=wrap;html=1;fillColor=#dae8fc;strokeColor=#6c8ebf;" vertex="1" parent="1">
          <mxGeometry x="-1250" y="-1490" width="60" height="30" as="geometry" />
        </mxCell>
        <mxCell id="fKHsVGfNWyKWpTp4zAhi-94" style="edgeStyle=orthogonalEdgeStyle;rounded=0;orthogonalLoop=1;jettySize=auto;html=1;exitX=0;exitY=0.5;exitDx=0;exitDy=0;exitPerimeter=0;dashed=1;" edge="1" parent="1" source="fKHsVGfNWyKWpTp4zAhi-112">
          <mxGeometry relative="1" as="geometry">
            <mxPoint x="-1280" y="-1265" as="targetPoint" />
          </mxGeometry>
        </mxCell>
        <mxCell id="fKHsVGfNWyKWpTp4zAhi-95" value="&lt;font style=&quot;font-size: 14px;&quot;&gt;SNS&lt;/font&gt;" style="sketch=0;points=[[0,0,0],[0.25,0,0],[0.5,0,0],[0.75,0,0],[1,0,0],[0,1,0],[0.25,1,0],[0.5,1,0],[0.75,1,0],[1,1,0],[0,0.25,0],[0,0.5,0],[0,0.75,0],[1,0.25,0],[1,0.5,0],[1,0.75,0]];outlineConnect=0;fontColor=#232F3E;fillColor=#E7157B;strokeColor=#ffffff;dashed=0;verticalLabelPosition=bottom;verticalAlign=top;align=center;html=1;fontSize=12;fontStyle=0;aspect=fixed;shape=mxgraph.aws4.resourceIcon;resIcon=mxgraph.aws4.sns;" vertex="1" parent="1">
          <mxGeometry x="-960" y="-1305" width="80" height="80" as="geometry" />
        </mxCell>
        <mxCell id="fKHsVGfNWyKWpTp4zAhi-99" value="&lt;font style=&quot;font-size: 14px;&quot;&gt;EventBridge&lt;/font&gt;" style="sketch=0;points=[[0,0,0],[0.25,0,0],[0.5,0,0],[0.75,0,0],[1,0,0],[0,1,0],[0.25,1,0],[0.5,1,0],[0.75,1,0],[1,1,0],[0,0.25,0],[0,0.5,0],[0,0.75,0],[1,0.25,0],[1,0.5,0],[1,0.75,0]];outlineConnect=0;fontColor=#232F3E;fillColor=#E7157B;strokeColor=#ffffff;dashed=0;verticalLabelPosition=bottom;verticalAlign=top;align=center;html=1;fontSize=12;fontStyle=0;aspect=fixed;shape=mxgraph.aws4.resourceIcon;resIcon=mxgraph.aws4.eventbridge;" vertex="1" parent="1">
          <mxGeometry x="-960" y="-1480" width="80" height="80" as="geometry" />
        </mxCell>
        <mxCell id="fKHsVGfNWyKWpTp4zAhi-116" value="" style="edgeStyle=orthogonalEdgeStyle;rounded=0;orthogonalLoop=1;jettySize=auto;html=1;endArrow=none;endFill=0;strokeWidth=3;fillColor=#ffe6cc;strokeColor=#d79b00;" edge="1" parent="1">
          <mxGeometry relative="1" as="geometry">
            <mxPoint x="-1720" y="-1240" as="sourcePoint" />
            <mxPoint x="-1720" y="-1160" as="targetPoint" />
          </mxGeometry>
        </mxCell>
        <mxCell id="fKHsVGfNWyKWpTp4zAhi-123" style="edgeStyle=orthogonalEdgeStyle;rounded=0;orthogonalLoop=1;jettySize=auto;html=1;entryX=1;entryY=1;entryDx=0;entryDy=0;dashed=1;" edge="1" parent="1" source="fKHsVGfNWyKWpTp4zAhi-122" target="fKHsVGfNWyKWpTp4zAhi-114">
          <mxGeometry relative="1" as="geometry" />
        </mxCell>
        <mxCell id="fKHsVGfNWyKWpTp4zAhi-143" style="edgeStyle=orthogonalEdgeStyle;rounded=0;orthogonalLoop=1;jettySize=auto;html=1;exitX=1;exitY=0;exitDx=0;exitDy=0;entryX=0;entryY=0.5;entryDx=0;entryDy=0;endArrow=none;endFill=0;dashed=1;" edge="1" parent="1" source="fKHsVGfNWyKWpTp4zAhi-114" target="fKHsVGfNWyKWpTp4zAhi-92">
          <mxGeometry relative="1" as="geometry">
            <Array as="points">
              <mxPoint x="-1646" y="-1440" />
            </Array>
          </mxGeometry>
        </mxCell>
        <mxCell id="fKHsVGfNWyKWpTp4zAhi-151" style="edgeStyle=orthogonalEdgeStyle;rounded=0;orthogonalLoop=1;jettySize=auto;html=1;exitX=0;exitY=0;exitDx=0;exitDy=0;entryX=0;entryY=0;entryDx=0;entryDy=0;dashed=1;" edge="1" parent="1" source="fKHsVGfNWyKWpTp4zAhi-67" target="fKHsVGfNWyKWpTp4zAhi-114">
          <mxGeometry relative="1" as="geometry">
            <Array as="points">
              <mxPoint x="-2034" y="-1360" />
              <mxPoint x="-1674" y="-1360" />
            </Array>
          </mxGeometry>
        </mxCell>
        <mxCell id="fKHsVGfNWyKWpTp4zAhi-117" style="edgeStyle=orthogonalEdgeStyle;curved=1;rounded=0;orthogonalLoop=1;jettySize=auto;html=1;exitX=1;exitY=0.5;exitDx=0;exitDy=0;endArrow=none;endFill=0;fillColor=#dae8fc;strokeColor=#6c8ebf;strokeWidth=3;" edge="1" parent="1">
          <mxGeometry relative="1" as="geometry">
            <mxPoint x="-1600" y="-1320.25" as="targetPoint" />
            <mxPoint x="-1640" y="-1280.25" as="sourcePoint" />
          </mxGeometry>
        </mxCell>
        <mxCell id="fKHsVGfNWyKWpTp4zAhi-118" style="edgeStyle=orthogonalEdgeStyle;curved=1;rounded=0;orthogonalLoop=1;jettySize=auto;html=1;exitX=0;exitY=0.5;exitDx=0;exitDy=0;entryX=0.5;entryY=0;entryDx=0;entryDy=0;endArrow=none;endFill=0;fillColor=#dae8fc;strokeColor=#6c8ebf;strokeWidth=3;" edge="1" parent="1">
          <mxGeometry relative="1" as="geometry">
            <mxPoint x="-1600" y="-1320" as="targetPoint" />
            <mxPoint x="-1560" y="-1360" as="sourcePoint" />
          </mxGeometry>
        </mxCell>
        <mxCell id="fKHsVGfNWyKWpTp4zAhi-119" value="" style="ellipse;whiteSpace=wrap;html=1;aspect=fixed;fillColor=#dae8fc;strokeColor=#6c8ebf;strokeWidth=2;" vertex="1" parent="1">
          <mxGeometry x="-1560" y="-1380" width="40" height="40" as="geometry" />
        </mxCell>
        <mxCell id="fKHsVGfNWyKWpTp4zAhi-120" value="" style="sketch=0;outlineConnect=0;fontColor=#232F3E;gradientColor=none;fillColor=#232F3D;strokeColor=none;dashed=0;verticalLabelPosition=bottom;verticalAlign=top;align=center;html=1;fontSize=18;fontStyle=0;aspect=fixed;pointerEvents=1;shape=mxgraph.aws4.user;" vertex="1" parent="1">
          <mxGeometry x="-1360" y="-1305" width="80" height="80" as="geometry" />
        </mxCell>
        <mxCell id="fKHsVGfNWyKWpTp4zAhi-121" value="" style="edgeStyle=orthogonalEdgeStyle;rounded=0;orthogonalLoop=1;jettySize=auto;html=1;entryX=1;entryY=0.5;entryDx=0;entryDy=0;dashed=1;endArrow=none;endFill=0;" edge="1" parent="1" target="fKHsVGfNWyKWpTp4zAhi-122">
          <mxGeometry relative="1" as="geometry">
            <mxPoint x="-1360" y="-1265" as="sourcePoint" />
            <mxPoint x="-1570" y="-1265" as="targetPoint" />
          </mxGeometry>
        </mxCell>
        <mxCell id="fKHsVGfNWyKWpTp4zAhi-122" value="Approve Pull Request" style="rounded=0;whiteSpace=wrap;html=1;fillColor=#e1d5e7;strokeColor=#9673a6;fontSize=12;" vertex="1" parent="1">
          <mxGeometry x="-1565" y="-1280" width="130" height="30" as="geometry" />
        </mxCell>
        <mxCell id="fKHsVGfNWyKWpTp4zAhi-127" value="&lt;span style=&quot;color: rgb(0, 0, 0); font-family: Helvetica; font-size: 14px; font-style: normal; font-variant-ligatures: normal; font-variant-caps: normal; font-weight: 400; letter-spacing: normal; orphans: 2; text-indent: 0px; text-transform: none; widows: 2; word-spacing: 0px; -webkit-text-stroke-width: 0px; white-space: nowrap; background-color: rgb(255, 255, 255); text-decoration-thickness: initial; text-decoration-style: initial; text-decoration-color: initial; float: none; display: inline !important;&quot;&gt;Lambda&lt;/span&gt;" style="text;whiteSpace=wrap;html=1;align=center;" vertex="1" parent="1">
          <mxGeometry x="-1360" y="-1670" width="80" height="30" as="geometry" />
        </mxCell>
        <mxCell id="fKHsVGfNWyKWpTp4zAhi-128" value="&lt;font style=&quot;font-size: 14px;&quot;&gt;Dead Letter Queue&lt;/font&gt;" style="sketch=0;outlineConnect=0;fontColor=#232F3E;gradientColor=none;fillColor=#000000;strokeColor=none;dashed=0;verticalLabelPosition=bottom;verticalAlign=top;align=center;html=1;fontSize=12;fontStyle=0;aspect=fixed;pointerEvents=1;shape=mxgraph.aws4.queue;" vertex="1" parent="1">
          <mxGeometry x="-2040" y="-1644.1000000000001" width="80" height="48.2" as="geometry" />
        </mxCell>
        <mxCell id="fKHsVGfNWyKWpTp4zAhi-160" style="edgeStyle=orthogonalEdgeStyle;rounded=0;orthogonalLoop=1;jettySize=auto;html=1;exitX=0;exitY=0.75;exitDx=0;exitDy=0;exitPerimeter=0;entryX=0.5;entryY=0;entryDx=0;entryDy=0;dashed=1;endArrow=none;endFill=0;" edge="1" parent="1" source="fKHsVGfNWyKWpTp4zAhi-129" target="fKHsVGfNWyKWpTp4zAhi-154">
          <mxGeometry relative="1" as="geometry" />
        </mxCell>
        <mxCell id="fKHsVGfNWyKWpTp4zAhi-164" style="edgeStyle=orthogonalEdgeStyle;rounded=0;orthogonalLoop=1;jettySize=auto;html=1;exitX=0;exitY=0.5;exitDx=0;exitDy=0;exitPerimeter=0;entryX=0.5;entryY=0;entryDx=0;entryDy=0;dashed=1;" edge="1" parent="1" source="fKHsVGfNWyKWpTp4zAhi-129" target="fKHsVGfNWyKWpTp4zAhi-133">
          <mxGeometry relative="1" as="geometry" />
        </mxCell>
        <mxCell id="fKHsVGfNWyKWpTp4zAhi-165" style="edgeStyle=orthogonalEdgeStyle;rounded=0;orthogonalLoop=1;jettySize=auto;html=1;exitX=0;exitY=0.25;exitDx=0;exitDy=0;exitPerimeter=0;dashed=1;" edge="1" parent="1" source="fKHsVGfNWyKWpTp4zAhi-129" target="fKHsVGfNWyKWpTp4zAhi-128">
          <mxGeometry relative="1" as="geometry" />
        </mxCell>
        <mxCell id="fKHsVGfNWyKWpTp4zAhi-129" value="" style="sketch=0;points=[[0,0,0],[0.25,0,0],[0.5,0,0],[0.75,0,0],[1,0,0],[0,1,0],[0.25,1,0],[0.5,1,0],[0.75,1,0],[1,1,0],[0,0.25,0],[0,0.5,0],[0,0.75,0],[1,0.25,0],[1,0.5,0],[1,0.75,0]];outlineConnect=0;fontColor=#232F3E;fillColor=#ED7100;strokeColor=#ffffff;dashed=0;verticalLabelPosition=bottom;verticalAlign=top;align=center;html=1;fontSize=12;fontStyle=0;aspect=fixed;shape=mxgraph.aws4.resourceIcon;resIcon=mxgraph.aws4.lambda;" vertex="1" parent="1">
          <mxGeometry x="-1360" y="-1640" width="80" height="80" as="geometry" />
        </mxCell>
        <mxCell id="fKHsVGfNWyKWpTp4zAhi-133" value="Rollback Testing Branch" style="rounded=0;whiteSpace=wrap;html=1;fillColor=#f8cecc;strokeColor=#b85450;" vertex="1" parent="1">
          <mxGeometry x="-1935" y="-1375" width="160" height="30" as="geometry" />
        </mxCell>
        <mxCell id="fKHsVGfNWyKWpTp4zAhi-142" style="edgeStyle=orthogonalEdgeStyle;rounded=0;orthogonalLoop=1;jettySize=auto;html=1;exitX=1;exitY=0.5;exitDx=0;exitDy=0;entryX=0;entryY=0.5;entryDx=0;entryDy=0;entryPerimeter=0;dashed=1;" edge="1" parent="1" source="fKHsVGfNWyKWpTp4zAhi-87" target="fKHsVGfNWyKWpTp4zAhi-99">
          <mxGeometry relative="1" as="geometry" />
        </mxCell>
        <mxCell id="fKHsVGfNWyKWpTp4zAhi-149" value="" style="edgeStyle=orthogonalEdgeStyle;rounded=0;orthogonalLoop=1;jettySize=auto;html=1;exitX=0;exitY=0.5;exitDx=0;exitDy=0;exitPerimeter=0;dashed=1;endArrow=none;endFill=0;" edge="1" parent="1" source="fKHsVGfNWyKWpTp4zAhi-95" target="fKHsVGfNWyKWpTp4zAhi-112">
          <mxGeometry relative="1" as="geometry">
            <mxPoint x="-1280" y="-1265" as="targetPoint" />
            <mxPoint x="-960" y="-1265" as="sourcePoint" />
          </mxGeometry>
        </mxCell>
        <mxCell id="fKHsVGfNWyKWpTp4zAhi-112" value="Email" style="rounded=0;whiteSpace=wrap;html=1;fillColor=#fff2cc;strokeColor=#d6b656;" vertex="1" parent="1">
          <mxGeometry x="-1160" y="-1280" width="80" height="30" as="geometry" />
        </mxCell>
        <mxCell id="fKHsVGfNWyKWpTp4zAhi-155" style="edgeStyle=orthogonalEdgeStyle;rounded=0;orthogonalLoop=1;jettySize=auto;html=1;exitX=0.5;exitY=1;exitDx=0;exitDy=0;entryX=0.5;entryY=0;entryDx=0;entryDy=0;dashed=1;" edge="1" parent="1" source="fKHsVGfNWyKWpTp4zAhi-154" target="fKHsVGfNWyKWpTp4zAhi-114">
          <mxGeometry relative="1" as="geometry" />
        </mxCell>
        <mxCell id="fKHsVGfNWyKWpTp4zAhi-154" value="Push to Staging Branch" style="rounded=0;whiteSpace=wrap;html=1;fillColor=#d5e8d4;strokeColor=#82b366;" vertex="1" parent="1">
          <mxGeometry x="-1740" y="-1530" width="160" height="30" as="geometry" />
        </mxCell>
        <mxCell id="fKHsVGfNWyKWpTp4zAhi-67" value="" style="ellipse;whiteSpace=wrap;html=1;aspect=fixed;fillColor=#e1d5e7;strokeColor=#9673a6;strokeWidth=2;" vertex="1" parent="1">
          <mxGeometry x="-2040" y="-1220" width="40" height="40" as="geometry" />
        </mxCell>
        <mxCell id="fKHsVGfNWyKWpTp4zAhi-114" value="" style="ellipse;whiteSpace=wrap;html=1;aspect=fixed;fillColor=#ffe6cc;strokeColor=#d79b00;strokeWidth=2;" vertex="1" parent="1">
          <mxGeometry x="-1680" y="-1300" width="40" height="40" as="geometry" />
        </mxCell>
        <mxCell id="fKHsVGfNWyKWpTp4zAhi-159" style="edgeStyle=orthogonalEdgeStyle;rounded=0;orthogonalLoop=1;jettySize=auto;html=1;exitX=1;exitY=0.25;exitDx=0;exitDy=0;exitPerimeter=0;entryX=1;entryY=0.75;entryDx=0;entryDy=0;entryPerimeter=0;dashed=1;" edge="1" parent="1" source="fKHsVGfNWyKWpTp4zAhi-99" target="fKHsVGfNWyKWpTp4zAhi-129">
          <mxGeometry relative="1" as="geometry">
            <Array as="points">
              <mxPoint x="-840" y="-1460" />
              <mxPoint x="-840" y="-1580" />
            </Array>
          </mxGeometry>
        </mxCell>
        <mxCell id="fKHsVGfNWyKWpTp4zAhi-150" value="Success" style="rounded=0;whiteSpace=wrap;html=1;fillColor=#d5e8d4;strokeColor=#82b366;" vertex="1" parent="1">
          <mxGeometry x="-1040" y="-1595.9" width="80" height="30" as="geometry" />
        </mxCell>
        <mxCell id="fKHsVGfNWyKWpTp4zAhi-166" style="edgeStyle=orthogonalEdgeStyle;rounded=0;orthogonalLoop=1;jettySize=auto;html=1;exitX=1;exitY=0.5;exitDx=0;exitDy=0;exitPerimeter=0;entryX=1;entryY=0.25;entryDx=0;entryDy=0;entryPerimeter=0;dashed=1;" edge="1" parent="1" source="fKHsVGfNWyKWpTp4zAhi-99" target="fKHsVGfNWyKWpTp4zAhi-129">
          <mxGeometry relative="1" as="geometry">
            <Array as="points">
              <mxPoint x="-800" y="-1440" />
              <mxPoint x="-800" y="-1620" />
            </Array>
          </mxGeometry>
        </mxCell>
        <mxCell id="fKHsVGfNWyKWpTp4zAhi-167" value="Failure" style="rounded=0;whiteSpace=wrap;html=1;fillColor=#f8cecc;strokeColor=#b85450;" vertex="1" parent="1">
          <mxGeometry x="-1160" y="-1635" width="80" height="30" as="geometry" />
        </mxCell>
        <mxCell id="fKHsVGfNWyKWpTp4zAhi-168" style="edgeStyle=orthogonalEdgeStyle;rounded=0;orthogonalLoop=1;jettySize=auto;html=1;exitX=1;exitY=0.75;exitDx=0;exitDy=0;exitPerimeter=0;entryX=1;entryY=0.5;entryDx=0;entryDy=0;entryPerimeter=0;dashed=1;" edge="1" parent="1" source="fKHsVGfNWyKWpTp4zAhi-99" target="fKHsVGfNWyKWpTp4zAhi-95">
          <mxGeometry relative="1" as="geometry">
            <Array as="points">
              <mxPoint x="-820" y="-1420" />
              <mxPoint x="-820" y="-1265" />
            </Array>
          </mxGeometry>
        </mxCell>
      </root>
    </mxGraphModel>
  </diagram>
</mxfile>
